<?xml version="1.0" encoding="UTF-8"?>
<svg version="1.1" xmlns="http://www.w3.org/2000/svg" width="1300" height="1300">
<path d="M0 0 C1.60681641 -0.01429802 1.60681641 -0.01429802 3.24609375 -0.02888489 C4.98052734 -0.02751778 4.98052734 -0.02751778 6.75 -0.02612305 C7.93722656 -0.03040817 9.12445312 -0.0346933 10.34765625 -0.03910828 C12.85936851 -0.04485479 15.37109741 -0.04534949 17.8828125 -0.04101562 C21.73466224 -0.03785438 25.58574521 -0.06131647 29.4375 -0.08666992 C31.87499903 -0.08894266 34.31250013 -0.08964653 36.75 -0.08862305 C37.90628906 -0.09783279 39.06257812 -0.10704254 40.25390625 -0.11653137 C41.86072266 -0.10718819 41.86072266 -0.10718819 43.5 -0.09765625 C44.44359375 -0.09828568 45.3871875 -0.0989151 46.359375 -0.0995636 C48.75 0.2746582 48.75 0.2746582 50.55485535 1.57881165 C52.57585904 4.44650816 52.15531317 7.73802144 52.11328125 11.1184082 C52.11402901 12.26666077 52.11402901 12.26666077 52.11479187 13.43811035 C52.11245307 15.05536497 52.10273587 16.67262334 52.08618164 18.28979492 C52.06258681 20.76554912 52.06562205 23.24022637 52.07226562 25.71606445 C52.06668874 27.28768546 52.05957879 28.85930193 52.05078125 30.4309082 C52.05169266 31.17159546 52.05260406 31.91228271 52.05354309 32.67541504 C52.00198479 36.41201626 51.87552576 38.08636957 49.75 41.2746582 C46.78 41.7696582 46.78 41.7696582 43.75 42.2746582 C43.75 51.8446582 43.75 61.4146582 43.75 71.2746582 C46.658125 71.6665332 49.56625 72.0584082 52.5625 72.4621582 C59.92263785 73.5325901 67.16073042 74.89898343 74.375 76.7121582 C75.18557861 76.90511475 75.99615723 77.09807129 76.83129883 77.296875 C82.3891493 78.76299041 82.3891493 78.76299041 84.2734375 81.43481445 C84.43070313 82.04196289 84.58796875 82.64911133 84.75 83.2746582 C85.61564575 82.74026123 85.61564575 82.74026123 86.4987793 82.19506836 C88.75 81.2746582 88.75 81.2746582 90.71020508 81.6550293 C91.38978271 81.94974121 92.06936035 82.24445313 92.76953125 82.5480957 C93.53716797 82.87430908 94.30480469 83.20052246 95.09570312 83.53662109 C95.90974609 83.90392334 96.72378906 84.27122559 97.5625 84.6496582 C98.82803711 85.20351196 98.82803711 85.20351196 100.11914062 85.76855469 C111.8954441 91.00456585 123.01316274 97.13164797 133.75 104.2746582 C137.18120849 100.8923796 140.51396663 97.4633187 143.6875 93.8371582 C144.50089844 92.93094727 145.31429688 92.02473633 146.15234375 91.09106445 C146.94318359 89.69694336 146.94318359 89.69694336 147.75 88.2746582 C147.13019483 86.25964307 146.463528 84.25842287 145.75 82.2746582 C146.8203125 79.79418945 146.8203125 79.79418945 148.75 77.2746582 C149.89082031 75.73358398 149.89082031 75.73358398 151.0546875 74.16137695 C151.90763588 73.09191091 152.76447613 72.0255383 153.625 70.9621582 C154.04652344 70.41237305 154.46804688 69.86258789 154.90234375 69.29614258 C156.82397445 66.93083262 158.20070485 65.42768246 161.17578125 64.59887695 C164.90521179 65.57792321 167.28617585 67.85561452 170.0625 70.3996582 C171.21993974 71.42079493 172.3787875 72.44033797 173.5390625 73.45825195 C174.09368164 73.94922363 174.64830078 74.44019531 175.21972656 74.94604492 C177.06146357 76.54507696 178.97032431 78.02090091 180.9375 79.4621582 C181.53949219 79.90946289 182.14148438 80.35676758 182.76171875 80.81762695 C184.31766288 81.95783749 185.88519645 83.08223663 187.45703125 84.20043945 C188.83955078 85.22717773 188.83955078 85.22717773 190.25 86.2746582 C191.1059375 86.8934082 191.961875 87.5121582 192.84375 88.1496582 C194.75 90.2746582 194.75 90.2746582 195.30078125 93.2043457 C194.6015992 97.10191371 193.19492085 98.59386155 190.4375 101.3996582 C187.11209418 104.73691972 187.11209418 104.73691972 184.45703125 108.5793457 C183.89371094 109.13879883 183.33039063 109.69825195 182.75 110.2746582 C180.76344389 110.2036373 178.7768388 110.130477 176.79150391 110.03100586 C173.55145554 110.41770381 172.26824074 112.20181174 170.28320312 114.65161133 C169.83912109 115.2490918 169.39503906 115.84657227 168.9375 116.4621582 C168.47408203 117.04030273 168.01066406 117.61844727 167.53320312 118.21411133 C164.99879368 121.42291299 162.76951175 124.71199795 160.75 128.2746582 C161.41 128.2746582 162.07 128.2746582 162.75 128.2746582 C164.08984375 129.56762695 164.08984375 129.56762695 165.6875 131.4621582 C166.31011719 132.19950195 166.93273437 132.9368457 167.57421875 133.6965332 C168.29222656 134.54731445 169.01023437 135.3980957 169.75 136.2746582 C170.58144531 137.20793945 171.41289063 138.1412207 172.26953125 139.1027832 C204.46963882 175.50112525 221.12387624 225.90373917 218.75 274.2746582 C216.82222436 301.79397895 211.51049953 345.51415867 190.75 366.2746582 C188.89630389 366.36203465 187.03932459 366.38163973 185.18359375 366.37231445 C184.05888672 366.3690918 182.93417969 366.36586914 181.77539062 366.36254883 C179.99938477 366.34998047 179.99938477 366.34998047 178.1875 366.3371582 C176.99962891 366.33264648 175.81175781 366.32813477 174.58789062 366.32348633 C171.64187774 366.31165495 168.69596319 366.29517107 165.75 366.2746582 C167.13297859 362.69695272 168.70616979 359.52620627 170.75 356.2746582 C170.028125 355.89954102 169.30625 355.52442383 168.5625 355.13793945 C167.634375 354.62618164 166.70625 354.11442383 165.75 353.5871582 C164.821875 353.08829102 163.89375 352.58942383 162.9375 352.07543945 C160.75 350.2746582 160.75 350.2746582 160.4375 347.56762695 C160.540625 346.81094727 160.64375 346.05426758 160.75 345.2746582 C166.52378925 345.75580731 170.70859836 347.45933001 175.75 350.2746582 C176.00265625 349.45094727 176.2553125 348.62723633 176.515625 347.77856445 C177.65992262 344.53035253 178.99639414 341.52080296 180.46606445 338.41479492 C190.77572701 316.4516838 194.66117462 293.25928845 196.75 269.2746582 C195.48542969 269.29206055 195.48542969 269.29206055 194.1953125 269.30981445 C193.09960938 269.31883789 192.00390625 269.32786133 190.875 269.3371582 C189.23917969 269.35456055 189.23917969 269.35456055 187.5703125 269.37231445 C184.75 269.2746582 184.75 269.2746582 182.75 268.2746582 C183.625 263.3996582 183.625 263.3996582 184.75 262.2746582 C186.76964199 262.20221767 188.79167124 262.19088632 190.8125 262.2121582 C191.91722656 262.22118164 193.02195312 262.23020508 194.16015625 262.23950195 C195.44212891 262.2569043 195.44212891 262.2569043 196.75 262.2746582 C194.52752371 236.39997484 190.69636208 209.02703171 176.98046875 186.34887695 C175.75 184.2746582 175.75 184.2746582 175.75 181.2746582 C175.00234375 181.71938477 174.2546875 182.16411133 173.484375 182.62231445 C172.49953125 183.18821289 171.5146875 183.75411133 170.5 184.3371582 C169.52546875 184.90563477 168.5509375 185.47411133 167.546875 186.05981445 C164.75 187.2746582 164.75 187.2746582 162.390625 186.95825195 C161.84921875 186.73266602 161.3078125 186.50708008 160.75 186.2746582 C160.75 184.6246582 160.75 182.9746582 160.75 181.2746582 C163.72 179.6246582 166.69 177.9746582 169.75 176.2746582 C168.70851575 172.10872122 167.13960405 169.78438915 164.75 166.2746582 C164.42 165.2846582 164.09 164.2946582 163.75 163.2746582 C161.67529251 160.45898376 159.50418573 158.03443062 157 155.5871582 C154.75 153.2746582 154.75 153.2746582 154.75 151.2746582 C153.76 150.9446582 152.77 150.6146582 151.75 150.2746582 C150.21142578 148.69946289 150.21142578 148.69946289 148.5703125 146.6965332 C144.85598812 142.3205399 140.83622562 138.41745467 136.625 134.5246582 C135.93535156 133.87883789 135.24570312 133.23301758 134.53515625 132.56762695 C127.34292491 125.8615149 127.34292491 125.8615149 118.75 121.2746582 C116.03640118 119.67991263 113.38863391 117.99009762 110.75 116.2746582 C110.37875 117.6049707 110.37875 117.6049707 110 118.9621582 C108.71065232 122.37892956 107.15019871 124.554433 104.75 127.2746582 C103.1 126.9446582 101.45 126.6146582 99.75 126.2746582 C100.33107632 122.5143597 101.40199496 119.74430789 103.3125 116.4621582 C103.76753906 115.67196289 104.22257812 114.88176758 104.69140625 114.06762695 C105.04074219 113.47594727 105.39007812 112.88426758 105.75 112.2746582 C104.8940625 112.00266602 104.038125 111.73067383 103.15625 111.45043945 C99.7617489 110.27871373 96.53285321 108.91566447 93.25 107.4621582 C84.98144696 103.85428539 76.53218992 100.39948297 67.75 98.2746582 C66.52796875 97.97688477 65.3059375 97.67911133 64.046875 97.37231445 C51.02622233 94.35648549 38.07351483 93.11625139 24.75 92.2746582 C24.76160156 93.11770508 24.77320313 93.96075195 24.78515625 94.8293457 C24.79417969 95.92504883 24.80320312 97.02075195 24.8125 98.1496582 C24.82410156 99.24020508 24.83570313 100.33075195 24.84765625 101.4543457 C24.75 104.2746582 24.75 104.2746582 23.75 106.2746582 C18.875 105.3996582 18.875 105.3996582 17.75 104.2746582 C17.67773498 102.42178319 17.6661878 100.56631943 17.6875 98.7121582 C17.69652344 97.70024414 17.70554687 96.68833008 17.71484375 95.64575195 C17.73224609 94.47206055 17.73224609 94.47206055 17.75 93.2746582 C-9.20156236 91.18808563 -37.78567246 101.88256022 -61.25 114.2746582 C-60.69119141 115.28786133 -60.69119141 115.28786133 -60.12109375 116.3215332 C-59.64800781 117.21356445 -59.17492187 118.1055957 -58.6875 119.0246582 C-58.21183594 119.90637695 -57.73617187 120.7880957 -57.24609375 121.6965332 C-56.17001814 124.48167008 -56.18471252 125.54446034 -57.25 128.2746582 C-58.57 128.6046582 -59.89 128.9346582 -61.25 129.2746582 C-62.06360995 127.98369039 -62.87585046 126.69185945 -63.6875 125.3996582 C-64.13996094 124.68036133 -64.59242188 123.96106445 -65.05859375 123.2199707 C-66.25 121.2746582 -66.25 121.2746582 -67.25 119.2746582 C-71.41627634 119.86692298 -74.42985186 122.2430406 -77.75 124.6496582 C-78.36222412 125.08938965 -78.97444824 125.52912109 -79.60522461 125.98217773 C-84.9645768 129.91121605 -89.81876546 134.25270689 -94.62890625 138.8293457 C-97.25 141.2746582 -97.25 141.2746582 -99.8203125 143.2746582 C-102.45476971 145.44321462 -104.43664201 147.73359133 -106.5625 150.3996582 C-107.33851563 151.37032227 -108.11453125 152.34098633 -108.9140625 153.34106445 C-109.68492187 154.30915039 -110.45578125 155.27723633 -111.25 156.2746582 C-111.95898438 157.12930664 -112.66796875 157.98395508 -113.3984375 158.86450195 C-117.95778751 164.39336892 -121.69355101 170.05087246 -125.25 176.2746582 C-121.95 178.5846582 -118.65 180.8946582 -115.25 183.2746582 C-115.58 184.9246582 -115.91 186.5746582 -116.25 188.2746582 C-120.69076448 187.75829024 -123.48231273 186.61673407 -127.25 184.2746582 C-128.24 184.2746582 -129.23 184.2746582 -130.25 184.2746582 C-142.2720188 209.16378102 -148.88529267 233.70757011 -150.25 261.2746582 C-157.51 261.2746582 -164.77 261.2746582 -172.25 261.2746582 C-173.42355088 232.32706971 -164.37104077 204.05716107 -152.1875 178.1496582 C-151.78829346 177.29710449 -151.38908691 176.44455078 -150.9777832 175.56616211 C-148.18755029 169.78594807 -144.92407758 164.53094853 -141.25 159.2746582 C-140.84740967 158.68362305 -140.44481934 158.09258789 -140.0300293 157.48364258 C-134.40926283 149.24712783 -128.30015464 141.62119159 -121.71875 134.13793945 C-119.20711394 131.34382123 -119.20711394 131.34382123 -117.25 128.2746582 C-118.81094674 126.23178811 -120.37370929 124.19034963 -121.9375 122.1496582 C-122.59008789 121.29500977 -122.59008789 121.29500977 -123.25585938 120.4230957 C-124.13796919 119.27308588 -125.02853903 118.12951824 -125.92724609 116.99243164 C-126.80842104 115.84810773 -127.65089289 114.67291162 -128.45166016 113.47094727 C-129.74405673 111.52915097 -129.74405673 111.52915097 -132.25 109.2746582 C-133.93802734 109.53956055 -133.93802734 109.53956055 -135.66015625 109.80981445 C-139.25 110.2746582 -139.25 110.2746582 -140.93310547 109.16479492 C-142.64964177 107.42866463 -144.17246736 105.62638389 -145.6875 103.7121582 C-146.22826172 103.09018555 -146.76902344 102.46821289 -147.32617188 101.82739258 C-149.6649047 98.99785109 -151.10557317 96.79972397 -152.0859375 93.2355957 C-150.74343333 88.48037064 -147.27210061 86.36972136 -143.4375 83.4621582 C-142.66519043 82.85339844 -141.89288086 82.24463867 -141.09716797 81.61743164 C-139.54555015 80.39463135 -137.9886266 79.17853114 -136.42626953 77.96948242 C-133.52653124 75.71123885 -130.70248303 73.37264882 -127.875 71.0246582 C-121.14969346 65.48617046 -121.14969346 65.48617046 -117.95703125 64.7355957 C-113.62904327 65.59744612 -111.66945385 68.60006874 -108.9375 71.8996582 C-108.38771484 72.51711914 -107.83792969 73.13458008 -107.27148438 73.77075195 C-104.70545717 76.79898282 -103.34404417 78.53812533 -102.83203125 82.5480957 C-103.25 85.2746582 -103.25 85.2746582 -104.25 88.2746582 C-102.55221894 90.71318144 -100.84044832 92.94406851 -98.9375 95.2121582 C-97.9173998 96.44782674 -96.90037068 97.68603825 -95.88671875 98.92700195 C-95.42998779 99.47348389 -94.97325684 100.01996582 -94.50268555 100.58300781 C-93.16148345 102.39419264 -92.20104992 104.23550265 -91.25 106.2746582 C-90.13625 105.5734082 -89.0225 104.8721582 -87.875 104.1496582 C-68.02010615 91.75734485 -47.59034359 81.64936171 -24.8125 75.8371582 C-23.85472656 75.5901416 -22.89695312 75.343125 -21.91015625 75.08862305 C-14.51630545 73.30744642 -8.04364432 72.8741693 -0.25 72.2746582 C-0.25 62.0446582 -0.25 51.8146582 -0.25 41.2746582 C-2.23 41.2746582 -4.21 41.2746582 -6.25 41.2746582 C-8.82055206 38.70410614 -8.5080273 36.96378321 -8.55354309 33.45812988 C-8.55217598 32.26903015 -8.55217598 32.26903015 -8.55078125 31.0559082 C-8.55506638 30.24222778 -8.5593515 29.42854736 -8.56376648 28.59020996 C-8.56951336 26.86866182 -8.5700074 25.14708939 -8.56567383 23.42553711 C-8.56251236 20.78498141 -8.58597264 18.14554413 -8.61132812 15.50512695 C-8.61360086 13.83455546 -8.61430473 12.16398093 -8.61328125 10.4934082 C-8.622491 9.70067505 -8.63170074 8.90794189 -8.64118958 8.09118652 C-8.62231445 5.86645508 -8.62231445 5.86645508 -8.25 2.2746582 C-4.92821887 0.06013745 -3.87113646 0.01890203 0 0 Z " fill="#000000" transform="translate(565.25,207.725341796875)"/>
<path d="M0 0 C1.32 0.33 2.64 0.66 4 1 C3.34 1.66 2.68 2.32 2 3 C1.34 2.01 0.68 1.02 0 0 Z " fill="#000000" transform="translate(648,288)"/>
<path d="" fill="#000000" transform="translate(0,0)"/>
<path d="" fill="#000000" transform="translate(0,0)"/>
<path d="" fill="#000000" transform="translate(0,0)"/>
<path d="" fill="#000000" transform="translate(0,0)"/>
<path d="" fill="#000000" transform="translate(0,0)"/>
<path d="M0 0 C0.75047607 -0.01788574 1.50095215 -0.03577148 2.27416992 -0.05419922 C7.57598608 -0.04579222 7.57598608 -0.04579222 10.0703125 1.58203125 C14.01198549 8.04929471 13.08557996 19.10790431 11.44140625 26.3046875 C8.3038288 34.66288136 2.65954518 41.35880328 -3.875 47.3125 C-6.64469372 48.23573124 -8.49457803 48.47162484 -11.3671875 48.55859375 C-12.23730469 48.59146484 -13.10742188 48.62433594 -14.00390625 48.65820312 C-15.82670484 48.71913594 -17.64962784 48.77645964 -19.47265625 48.83007812 C-23.99881137 49.00724668 -27.76472884 49.18857327 -31.875 51.3125 C-31.37342767 57.61621148 -30.25147321 62.82560773 -27.9375 68.6875 C-27.29917572 70.36446786 -26.66117389 72.04155848 -26.0234375 73.71875 C-25.67764648 74.61722656 -25.33185547 75.51570312 -24.97558594 76.44140625 C-22.96872154 81.67670467 -21.01502037 86.93173791 -19.0625 92.1875 C-18.63839844 93.32775635 -18.21429687 94.4680127 -17.77734375 95.64282227 C-14.26783107 105.13260253 -10.9651957 114.6862641 -7.69604492 124.26098633 C-4.268795 134.26130011 -0.65986995 144.18733392 3.00170898 154.10327148 C6.69290068 164.1045964 10.29767883 174.13389185 13.86523438 184.17993164 C14.25001953 185.26266357 14.63480469 186.34539551 15.03125 187.4609375 C15.39009277 188.47454346 15.74893555 189.48814941 16.11865234 190.5324707 C16.99725953 192.95961773 17.92954532 195.3555176 18.8828125 197.75390625 C20.02955698 201.03907676 20.53083887 203.42618678 20.5 206.875 C20.50773437 207.74253906 20.51546875 208.61007812 20.5234375 209.50390625 C19.98010302 213.33388167 19.09804871 215.96064757 17.125 219.3125 C14.57926654 220.95011289 11.87573248 221.78558768 9 222.6875 C-15.11062962 231.18267642 -34.13483754 245.63825572 -51.4375 264.1875 C-52.17057373 264.97217651 -52.17057373 264.97217651 -52.91845703 265.77270508 C-55.94702764 269.09165035 -58.4690862 272.52354594 -60.875 276.3125 C-61.24375244 276.88323242 -61.61250488 277.45396484 -61.99243164 278.04199219 C-63.21476412 279.93760695 -64.42191299 281.84211685 -65.625 283.75 C-66.06400635 284.44230713 -66.5030127 285.13461426 -66.95532227 285.84790039 C-69.49955637 289.91747463 -71.77131188 294.02003803 -73.87158203 298.33349609 C-77.21710426 305.14780578 -80.88415684 309.65889054 -87.0703125 314.19140625 C-90.04276262 316.4393734 -92.53719377 318.88423854 -95.125 321.5625 C-104.18776649 330.78250692 -112.92377308 335.23842959 -126.01598263 335.43554783 C-127.57371438 335.43970843 -129.13146683 335.43844971 -130.68919373 335.43275452 C-131.5527207 335.43360894 -132.41624766 335.43446337 -133.30594212 335.43534368 C-136.18632332 335.43698484 -139.06664569 335.43149952 -141.94702148 335.42602539 C-144.01699319 335.4257432 -146.086965 335.42590188 -148.15693665 335.4264679 C-153.76792221 335.42675462 -159.37888637 335.42087803 -164.98986697 335.41389394 C-170.8568554 335.40763964 -176.72384433 335.40705496 -182.59083557 335.40586853 C-193.69705453 335.40276134 -204.80326363 335.39455619 -215.90947825 335.38451904 C-228.55510604 335.3733389 -241.2007343 335.36784266 -253.84636581 335.36282361 C-279.855916 335.35237308 -305.86545745 335.33478548 -331.875 335.3125 C-328.92828381 332.33449716 -326.05099174 329.56145447 -322.6875 327.0625 C-317.49172802 323.0796483 -312.66185921 318.77482638 -307.875 314.3125 C-307.04871094 313.56355469 -306.22242188 312.81460937 -305.37109375 312.04296875 C-288.06211288 295.70914173 -278.46285583 274.00191235 -276.5625 250.4375 C-277.05156053 236.8013418 -281.35433297 223.14670607 -290.84765625 213.11328125 C-326.2614607 181.65708886 -387.39676421 186.45370687 -431.14013672 187.95410156 C-441.72288241 188.31178402 -452.2873596 188.42702976 -462.875 188.3125 C-449.15772931 174.36074605 -427.8732962 161.56980066 -407.90765381 160.94068909 C-405.73503054 160.92664265 -403.56226417 160.92843614 -401.38964844 160.94360352 C-400.19294022 160.93983704 -398.99623199 160.93607056 -397.76325989 160.93218994 C-394.51290084 160.9241279 -391.26284872 160.92882548 -388.01250362 160.93811536 C-384.58554414 160.94367603 -381.15867973 160.92908639 -377.73175049 160.91575623 C-367.55753201 160.87976852 -357.38332189 160.87332163 -347.20904541 160.87585449 C-339.29528982 160.87757414 -331.38176492 160.87020545 -323.46807313 160.83587593 C-320.06999815 160.82195853 -316.67231004 160.81582413 -313.27422333 160.82892036 C-294.68343668 161.06593757 -294.68343668 161.06593757 -276.65753174 157.151474 C-271.72492111 155.66421978 -267.60961707 156.62763143 -262.67578125 157.86328125 C-258.83060915 158.48001039 -255.07332838 158.37841736 -251.1875 158.3125 C-243.14379547 158.17810226 -243.14379547 158.17810226 -240.875 159.3125 C-239.885 158.9825 -238.895 158.6525 -237.875 158.3125 C-236.39728915 158.22121869 -234.91582946 158.18460268 -233.43530273 158.18310547 C-232.54105087 158.17995331 -231.64679901 158.17680115 -230.72544861 158.17355347 C-229.76288651 158.1755777 -228.8003244 158.17760193 -227.80859375 158.1796875 C-226.81875992 158.17873077 -225.82892609 158.17777405 -224.80909729 158.17678833 C-222.71688778 158.17610781 -220.62467616 158.17795317 -218.5324707 158.18212891 C-215.32172939 158.1874846 -212.11112761 158.18217665 -208.90039062 158.17578125 C-206.86979136 158.17644194 -204.83919218 158.17772292 -202.80859375 158.1796875 C-201.84400742 158.17766327 -200.87942108 158.17563904 -199.88560486 158.17355347 C-198.99450516 158.17670563 -198.10340546 158.17985779 -197.18530273 158.18310547 C-196.39937241 158.18390106 -195.61344208 158.18469666 -194.80369568 158.18551636 C-192.875 158.3125 -192.875 158.3125 -190.875 159.3125 C-191.76363256 168.90973161 -193.29475172 177.77102648 -200.875 184.3125 C-203.04913905 185.87899506 -205.23128272 187.41788101 -207.4375 188.9375 C-225.95818374 201.71844474 -240.83874027 220.35542097 -245.40625 242.78515625 C-247.17986646 256.13162011 -246.76516565 269.00833597 -238.65625 280.27734375 C-228.79939321 291.53923496 -212.06574759 293.82371806 -197.9375 294.9375 C-159.75510882 297.05020776 -114.14124546 296.08648637 -83.875 269.3125 C-82.68390625 268.29929687 -82.68390625 268.29929687 -81.46875 267.265625 C-57.8796685 246.7343874 -41.24188465 220.40030891 -39.00390625 188.70996094 C-37.0721135 152.78154279 -44.07851114 119.30661325 -54.375 85.125 C-54.649953 84.21033966 -54.92490601 83.29567932 -55.20819092 82.353302 C-58.68750377 70.83637535 -62.4879869 59.51618052 -66.875 48.3125 C-67.74745361 48.62888428 -68.61990723 48.94526855 -69.51879883 49.27124023 C-79.2067757 52.78446262 -79.2067757 52.78446262 -83.875 51.3125 C-84.875 50.3125 -84.875 50.3125 -85.4375 47.5625 C-84.875 44.3125 -84.875 44.3125 -83.36230469 43.05737305 C-82.70133789 42.67105713 -82.04037109 42.28474121 -81.359375 41.88671875 C-80.63177979 41.4582666 -79.90418457 41.02981445 -79.15454102 40.58837891 C-75.65147771 38.62768395 -72.12454412 36.72627975 -68.5625 34.875 C-67.06767661 34.08599761 -65.57288495 33.29693509 -64.078125 32.5078125 C-61.5993593 31.20618262 -59.11389287 29.93194643 -56.609375 28.6796875 C-51.10795215 25.86750766 -47.17489481 22.88698146 -42.953125 18.390625 C-30.9941844 6.4316844 -16.63798531 0.27489299 0 0 Z " fill="#000000" transform="translate(922.875,459.6875)"/>
<path d="M0 0 C1.20308304 -0.00426498 2.40616608 -0.00852997 3.64570618 -0.01292419 C4.98593143 -0.01257466 6.32615666 -0.01211311 7.66638184 -0.0115509 C9.0722818 -0.01454174 10.47818093 -0.01794409 11.88407898 -0.02172852 C15.70835741 -0.03057937 19.53261349 -0.03290705 23.35690117 -0.0335443 C26.54549157 -0.03449241 29.73407673 -0.03816948 32.92266512 -0.0417164 C40.44222052 -0.04986471 47.96176394 -0.05230025 55.48132324 -0.05158997 C63.24869526 -0.05098873 71.01599792 -0.0615488 78.78335238 -0.07733363 C85.44409402 -0.09038926 92.10481295 -0.09577471 98.7655673 -0.09513456 C102.7473262 -0.09487903 106.72902346 -0.09776027 110.71076965 -0.10831261 C114.45357911 -0.11796069 118.19626759 -0.11809557 121.93908119 -0.11079597 C123.31536853 -0.10974609 124.69166328 -0.11213681 126.06793785 -0.11815643 C127.94135433 -0.12582199 129.81481165 -0.12005698 131.68823242 -0.11352539 C132.73832237 -0.11407016 133.78841232 -0.11461493 134.87032318 -0.1151762 C137.34411621 0.13371277 137.34411621 0.13371277 139.34411621 2.13371277 C139.64236681 6.85602887 139.10963778 11.0714823 138.09411621 15.67521667 C137.81936462 16.93788361 137.54461304 18.20055054 137.26153564 19.5014801 C136.95585375 20.8711063 136.65004363 22.24070389 136.34411621 23.61027527 C136.02870454 25.04768292 135.71396029 26.48523716 135.39984131 27.92292786 C134.56215667 31.74863911 133.71576118 35.57237211 132.86750793 39.39575195 C131.99511577 43.33434785 131.13025771 47.27459598 130.26501465 51.21476746 C129.23785216 55.89057384 128.21013121 60.56625191 127.17877197 65.24113464 C125.31498506 73.6916087 123.47113148 82.14569138 121.67224121 90.61027527 C121.48609253 91.48402802 121.29994385 92.35778076 121.1081543 93.25801086 C120.44669503 96.3647584 119.78533616 99.47148919 119.13366699 102.58030701 C114.92308421 122.65327174 114.92308421 122.65327174 111.65393162 125.71843052 C108.73101939 127.50937268 106.87190783 127.51346114 103.45445251 127.52139282 C102.25006531 127.53129745 101.0456781 127.54120209 99.80479431 127.55140686 C98.48673294 127.54690521 97.16867157 127.54240356 95.81066895 127.5377655 C94.40609188 127.54346878 93.00151946 127.55043287 91.59695435 127.55856323 C87.78506108 127.57651176 83.97339778 127.5753235 80.16147494 127.56962085 C76.98031994 127.56653236 73.79920933 127.57261744 70.61806065 127.57865959 C63.11565689 127.59270789 55.613367 127.59114018 48.11096191 127.57975769 C40.36618803 127.56826731 32.62176006 127.58236669 24.87703174 127.60915416 C18.22980063 127.63128635 11.5826783 127.63795444 4.93541294 127.63207775 C0.96421178 127.62870205 -3.00676746 127.631164 -6.9779377 127.64832878 C-10.71024604 127.66375727 -14.44204013 127.65988876 -18.17432785 127.64102364 C-19.54535636 127.63732673 -20.91642264 127.64047827 -22.28741646 127.65090942 C-24.15597366 127.66404305 -26.02466295 127.65021114 -27.89320374 127.63491821 C-28.93977426 127.63470893 -29.98634478 127.63449965 -31.06462955 127.63428402 C-33.65588379 127.13371277 -33.65588379 127.13371277 -35.52288723 125.27279758 C-37.07302005 122.34616419 -36.61233055 120.70495361 -35.90588379 117.50871277 C-35.70479004 116.54707214 -35.50369629 115.58543152 -35.29650879 114.59465027 C-34.65588379 112.13371277 -34.65588379 112.13371277 -33.65588379 110.13371277 C-32.8387088 110.13006714 -32.02153381 110.12642151 -31.17959595 110.12266541 C-23.44175716 110.08464559 -15.70439243 110.02763599 -7.96685982 109.94981003 C-3.98981307 109.91046388 -0.01298346 109.87821299 3.9642334 109.86271667 C7.80949372 109.84746443 11.65415655 109.81286998 15.49914932 109.76540375 C16.95894269 109.75067751 18.41882141 109.74267683 19.87868881 109.74182892 C28.89123982 109.73133911 38.07631253 109.70159966 45.24154663 103.48838806 C50.25770215 98.26180548 52.45555739 92.30470907 52.71911621 85.13371277 C52.5256689 78.84667524 50.32660389 73.63984386 47.34411621 68.13371277 C46.68411621 68.13371277 46.02411621 68.13371277 45.34411621 68.13371277 C45.34411621 67.47371277 45.34411621 66.81371277 45.34411621 66.13371277 C36.13027657 62.14104892 27.7902611 60.67977549 17.77380371 60.62199402 C16.61156281 60.60404282 15.4493219 60.58609161 14.25186157 60.56759644 C10.57431565 60.51382571 6.89689703 60.47970409 3.21911621 60.44621277 C0.71128612 60.41301042 -1.79652724 60.3785181 -4.30432129 60.34269714 C-10.42139453 60.25811849 -16.53848495 60.18962917 -22.65588379 60.13371277 C-21.19736152 49.61869654 -19.12935963 39.28157132 -16.8795166 28.91056824 C-16.27659183 26.11380384 -15.69289377 23.31341178 -15.10900879 20.51261902 C-14.72216648 18.71939563 -14.33418671 16.92641715 -13.94494629 15.13371277 C-13.69002914 13.88835754 -13.69002914 13.88835754 -13.42996216 12.61784363 C-12.37264241 7.87160092 -11.17916795 4.68911358 -7.65588379 1.13371277 C-4.9952068 -0.19662573 -2.98065808 0.00475685 0 0 Z " fill="#000000" transform="translate(494.6558837890625,488.8662872314453)"/>
<path d="M0 0 C1.73750771 -0.00832352 1.73750771 -0.00832352 3.51011658 -0.01681519 C7.33171175 -0.02860882 11.15212093 -0.00434261 14.97363281 0.02148438 C17.6282928 0.02319514 20.28290612 0.02323337 22.93756104 0.0213623 C28.49579243 0.0214158 34.05368294 0.04113156 39.61181641 0.07324219 C46.04106478 0.11020442 52.46986802 0.11890712 58.89920878 0.11194468 C65.08652562 0.10564631 71.27368964 0.11637681 77.46097565 0.13591003 C80.09410097 0.14295876 82.72723982 0.14606231 85.36037445 0.1452179 C89.03086529 0.1470071 92.70071343 0.16831202 96.37109375 0.1953125 C97.46721481 0.1923819 98.56333588 0.18945129 99.69267273 0.18643188 C101.18571678 0.20345657 101.18571678 0.20345657 102.70892334 0.2208252 C103.57683376 0.22455391 104.44474419 0.22828262 105.33895493 0.23212433 C106.02792988 0.35855064 106.71690483 0.48497696 107.42675781 0.61523438 C110.25587661 4.85891257 109.24611065 7.76401661 108.42675781 12.61523438 C108.24113281 13.81148437 108.05550781 15.00773438 107.86425781 16.24023438 C105.75023901 21.20358287 103.21940486 24.05206564 98.42675781 26.61523438 C92.63864472 27.6441589 86.93023468 27.55349421 81.06738281 27.47460938 C79.35552869 27.47424477 77.64367258 27.47626249 75.93182373 27.48052979 C72.34387129 27.48182206 68.75714646 27.45894851 65.16943359 27.41796875 C60.63032217 27.36735156 56.09315789 27.36943575 51.55386734 27.38793468 C33.61243017 27.44521623 16.58094768 27.49907154 -0.57324219 21.61523438 C-2.53300033 21.07399936 -4.49599283 20.54414131 -6.46386719 20.03320312 C-7.91778222 19.62585624 -9.37097721 19.21592544 -10.82324219 18.80273438 C-11.59152344 18.58681641 -12.35980469 18.37089844 -13.15136719 18.1484375 C-14.95938183 17.63993338 -16.76644122 17.12803417 -18.57324219 16.61523438 C-19.85015316 12.35575761 -19.25310733 9.77837842 -17.57324219 5.61523438 C-12.36798707 -0.28878929 -7.57213221 -0.09230589 0 0 Z " fill="#000000" transform="translate(641.5732421875,586.384765625)"/>
<path d="M0 0 C3.23318705 -0.00439469 6.46610876 -0.01835973 9.69921875 -0.04101562 C86.17409372 -0.56541874 86.17409372 -0.56541874 112.41479492 21.24023438 C112.74479492 22.23023438 113.07479492 23.22023438 113.41479492 24.24023438 C114.57301758 24.67916016 114.57301758 24.67916016 115.75463867 25.12695312 C121.62352811 27.58309628 124.29602233 34.71154661 126.75073242 40.25976562 C132.54382482 56.59135591 129.87028006 74.06998009 122.67871094 89.4934082 C112.69796092 109.76492914 96.62839887 126.46479062 77.41479492 138.24023438 C76.80304224 138.6635715 76.19128956 139.08690863 75.56099892 139.52307415 C66.9942235 144.72223093 57.96185249 143.90705956 48.28735352 143.80786133 C46.35486895 143.80644928 44.4223817 143.8072459 42.48989868 143.81007385 C37.26727927 143.81150328 32.04523879 143.78219006 26.82275343 143.74720407 C21.35620052 143.71586162 15.88963305 143.71300361 10.42300415 143.70707703 C0.0817473 143.69156176 -10.25924399 143.65056458 -20.60038412 143.60032958 C-32.37786344 143.54436403 -44.15535572 143.51693146 -55.932935 143.4918524 C-80.15050536 143.43964675 -104.36784031 143.35174948 -128.58520508 143.24023438 C-128.43537659 141.3164257 -128.28256651 139.39284907 -128.12849426 137.46937561 C-128.04371732 136.39815995 -127.95894037 135.32694429 -127.87159443 134.22326756 C-127.55247578 130.89932579 -126.94607536 127.77737571 -126.09692383 124.54882812 C-125.80237305 123.41896484 -125.50782227 122.28910156 -125.2043457 121.125 C-124.8969043 119.98740234 -124.58946289 118.84980469 -124.27270508 117.67773438 C-123.97686523 116.53626953 -123.68102539 115.39480469 -123.3762207 114.21875 C-121.48574738 107.06924937 -119.24471063 100.14031413 -116.58520508 93.24023438 C-115.30468262 93.22565186 -114.02416016 93.21106934 -112.70483398 93.19604492 C-107.91484857 93.13769563 -103.12531538 93.06046705 -98.33569336 92.9777832 C-96.27001329 92.94470521 -94.20424656 92.91662102 -92.13842773 92.89379883 C-89.15416831 92.85993591 -86.17069098 92.80760645 -83.18676758 92.75195312 C-81.82051743 92.74236824 -81.82051743 92.74236824 -80.42666626 92.73258972 C-71.789519 92.53834606 -63.47800962 91.12937694 -57.05395508 84.96289062 C-52.17284421 79.2379707 -50.27259535 72.73128979 -50.58520508 65.24023438 C-51.61146721 60.23426873 -53.28072286 56.17414177 -56.58520508 52.24023438 C-56.58520508 51.58023438 -56.58520508 50.92023437 -56.58520508 50.24023438 C-57.12145508 49.97210937 -57.65770508 49.70398438 -58.21020508 49.42773438 C-60.01028224 48.5276958 -61.8002484 47.60739931 -63.58520508 46.67773438 C-67.58846072 44.75950771 -70.9357677 44.1219399 -75.35083008 43.92382812 C-76.2402832 43.88193359 -77.12973633 43.84003906 -78.04614258 43.796875 C-79.42672852 43.73790039 -79.42672852 43.73790039 -80.83520508 43.67773438 C-81.77106445 43.63455078 -82.70692383 43.59136719 -83.67114258 43.546875 C-85.97569149 43.44105388 -88.28034347 43.3389688 -90.58520508 43.24023438 C-89.24657205 38.38497619 -87.26112297 35.11807606 -84.14770508 31.17773438 C-83.71176025 30.62335693 -83.27581543 30.06897949 -82.82666016 29.49780273 C-78.71160975 24.3051925 -74.4404575 19.24213495 -70.12817383 14.21289062 C-68.36078645 12.14686637 -66.61555048 10.07153979 -64.88598633 7.97460938 C-60.84571008 3.17292283 -57.93353734 1.62785698 -51.70504761 1.07263184 C-49.32071603 0.91660335 -46.93717875 0.7985902 -44.55004883 0.69335938 C-43.60669174 0.65172668 -42.66333466 0.61009399 -41.69139099 0.56719971 C-27.80095062 0.02222239 -13.89915456 0.01609393 0 0 Z " fill="#000000" transform="translate(511.585205078125,651.759765625)"/>
<path d="M0 0 C0.66902344 0.51433594 1.33804687 1.02867187 2.02734375 1.55859375 C9.26946214 7.35557287 15.97177569 15.61432151 20 24 C20 24.99 20 25.98 20 27 C13.59214587 28.17067115 7.33046639 28.07652561 0.83203125 27.9921875 C-1.61522992 27.97462866 -4.06249587 27.95772464 -6.50976562 27.94140625 C-10.31304693 27.91088504 -14.11607775 27.87588781 -17.91918945 27.82861328 C-46.71211445 27.49043178 -75.08787227 29.65100941 -102.68896484 38.33398438 C-105 39 -105 39 -107.50854492 39.4777832 C-110.01765858 40.00370129 -112.16476587 40.77448164 -114.52734375 41.76171875 C-118.31415737 43.31680522 -122.11364774 44.81791941 -125.94140625 46.26953125 C-140.81742549 51.96339361 -155.35445927 58.17877286 -169.80688477 64.87231445 C-171.13418732 65.48668541 -172.4615774 66.10086732 -173.7890625 66.71484375 C-174.41729416 67.0054921 -175.04552582 67.29614044 -175.6927948 67.59559631 C-180.72783526 69.90947869 -185.82167649 72.02953506 -191 74 C-192.05932617 72.20361328 -192.05932617 72.20361328 -193 70 C-192.25012556 67.42635687 -191.43714932 65.28118545 -190.3125 62.875 C-189.83635254 61.82916748 -189.83635254 61.82916748 -189.35058594 60.76220703 C-172.36586431 24.63559186 -143.26662136 -4.45137361 -105.625 -18.3125 C-69.61434263 -30.77487445 -29.60876898 -23.74735328 0 0 Z " fill="#000000" transform="translate(1039,704)"/>
<path d="M0 0 C4.55413202 -0.32146814 7.93310381 -0.44722147 11.875 2.03515625 C14.30484672 4.34949243 16.29849944 6.72214938 18.30078125 9.4140625 C18.94917969 10.26871094 19.59757813 11.12335937 20.265625 12.00390625 C30.10361539 26.16811651 31.53940966 42.91459319 28.67578125 59.63671875 C25.45705864 73.30192055 18.43620496 84.90735955 9.30078125 95.4140625 C8.84574219 96.0121875 8.39070312 96.6103125 7.921875 97.2265625 C-5.8442902 114.97875165 -30.06902874 125.34245827 -51.7578125 128.13671875 C-56.12595466 128.54858873 -60.31930841 128.70605652 -64.69921875 128.4140625 C-65.74464844 128.34574219 -66.79007813 128.27742187 -67.8671875 128.20703125 C-84.01341022 126.54679818 -98.62624316 119.23506802 -109.0703125 106.70703125 C-112.24210724 102.2421787 -114.535296 97.43042887 -116.69921875 92.4140625 C-117.21355469 91.22876953 -117.21355469 91.22876953 -117.73828125 90.01953125 C-122.9876235 75.62063453 -119.92854361 57.71460569 -113.828125 44.03515625 C-111.93993224 40.06537456 -109.93735638 36.19754395 -107.69921875 32.4140625 C-107.37042725 31.79998535 -107.04163574 31.1859082 -106.70288086 30.55322266 C-103.20468357 24.73041685 -98.37702257 23.14906256 -92.13671875 21.0390625 C-91.19119141 20.69746094 -90.24566406 20.35585938 -89.27148438 20.00390625 C-85.43865815 18.63329843 -81.64830869 17.39678295 -77.69921875 16.4140625 C-75.90222752 15.69811837 -74.11133833 14.96680372 -72.32421875 14.2265625 C-51.15357003 6.08762421 -28.89063602 2.33722717 -6.33789062 0.62133789 C-4.22165165 0.45510113 -2.10958391 0.23613083 0 0 Z M-64.69921875 37.4140625 C-65.99859375 38.55875 -65.99859375 38.55875 -67.32421875 39.7265625 C-74.68603785 48.05704201 -78.78975433 56.17256173 -78.69921875 67.4140625 C-77.66684422 74.38765123 -75.02247257 79.75931033 -69.69921875 84.4140625 C-61.85368028 89.98405518 -54.0806588 90.12266063 -44.69921875 89.4140625 C-32.97108451 86.78275033 -23.8198812 79.93512926 -16.69921875 70.4140625 C-11.7601629 62.32029178 -10.91820485 54.85414353 -11.69921875 45.4140625 C-13.41500147 38.74764554 -18.10565409 34.17628215 -23.69921875 30.4140625 C-37.10052342 23.49250954 -53.92935152 27.57174365 -64.69921875 37.4140625 Z " fill="#000000" transform="translate(998.69921875,735.5859375)"/>
<path d="" fill="#000000" transform="translate(0,0)"/>
<path d="M0 0 C2.96365118 2.06362696 4.31374302 3.97003017 5.80078125 7.25390625 C6.77418741 12.71917626 5.98129823 17.49987248 3.265625 22.33203125 C-0.75722685 27.61001288 -6.63416538 31.99676837 -13.19921875 33.25390625 C-19.05102807 33.71833556 -22.98296353 33.26328426 -28.19921875 30.25390625 C-31.70775852 26.65540392 -32.49159327 23.6989539 -32.69921875 18.81640625 C-32.40223733 11.74633248 -30.03771096 7.76636235 -24.94921875 3.00390625 C-17.34551043 -3.07256151 -8.74881966 -4.87555581 0 0 Z " fill="#000000" transform="translate(967.19921875,778.74609375)"/>
<path d="M0 0 C13.53 0 27.06 0 41 0 C41.99 3.96 42.98 7.92 44 12 C46.69933128 17.4986378 50.60029873 20.35288082 56 23 C65.4203852 26.18064619 76.21518772 24.41670612 85.05859375 20.54296875 C93.30910546 16.21501108 98.29203113 10.96495716 103 3 C105 0 105 0 106.79702759 -0.36076355 C107.88290665 -0.3507708 107.88290665 -0.3507708 108.99072266 -0.34057617 C110.22177231 -0.34023628 110.22177231 -0.34023628 111.47769165 -0.33988953 C112.36419403 -0.32440567 113.25069641 -0.30892181 114.1640625 -0.29296875 C115.07127045 -0.28872391 115.97847839 -0.28447906 116.91317749 -0.28010559 C119.81741732 -0.26328133 122.7209691 -0.2256226 125.625 -0.1875 C127.59113583 -0.17245799 129.55728251 -0.15876875 131.5234375 -0.14648438 C136.34922439 -0.11336557 141.17449545 -0.06155786 146 0 C140.67710605 15.32233044 133.54123272 26.66023518 122 38 C120.96552734 39.03253906 120.96552734 39.03253906 119.91015625 40.0859375 C114.27366665 45.35301657 107.64768508 49.15799189 101 53 C100.32324219 53.4021875 99.64648438 53.804375 98.94921875 54.21875 C82.28852847 63.38028257 59.39092148 66.85966168 41 62 C25.59819491 57.24670516 13.7418541 48.70423039 5.6875 34.5 C-0.20612701 22.95297534 -1.61724846 12.93798771 0 0 Z " fill="#000000" transform="translate(417,800)"/>
<path d="M0 0 C11.88 0 23.76 0 36 0 C26.32563578 11.28675826 26.32563578 11.28675826 17.88671875 12.23828125 C12.01066934 12.43658487 8.7895189 11.44845361 4 8 C1.37610635 5.2011801 0.96576444 3.86305775 0 0 Z " fill="#000000" transform="translate(472,800)"/>
<path d="M0 0 C1.671875 1.3671875 1.671875 1.3671875 3.671875 3.3671875 C3.671875 4.3571875 3.671875 5.3471875 3.671875 6.3671875 C1.8359375 8.12890625 1.8359375 8.12890625 -0.703125 10.0546875 C-1.60804688 10.74949219 -2.51296875 11.44429687 -3.4453125 12.16015625 C-4.87230469 13.25263672 -4.87230469 13.25263672 -6.328125 14.3671875 C-8.98940314 16.5382302 -11.64471 18.71627642 -14.296875 20.8984375 C-16.328125 22.3671875 -16.328125 22.3671875 -18.328125 22.3671875 C-19.4109375 21.2225 -19.4109375 21.2225 -20.515625 20.0546875 C-24.95830013 15.80946459 -29.18619919 14.20664577 -35.265625 13.9921875 C-40.01738138 14.16576764 -44.23040736 14.85568314 -48.328125 17.3671875 C-51.23199103 20.56144013 -52.19130744 22.71730409 -53.078125 26.9296875 C-52.69901192 30.29913258 -52.69901192 30.29913258 -50.85644531 31.66040039 C-44.76352109 35.34529235 -38.44832068 37.78763357 -31.75 40.15234375 C-23.95350185 43.08200947 -17.6653114 47.21587358 -13.828125 54.8046875 C-10.48757142 63.66311975 -12.84185273 70.90380283 -16.328125 79.3671875 C-17.73673009 82.27761419 -19.37842053 84.7911531 -21.328125 87.3671875 C-21.90820312 88.16898438 -22.48828125 88.97078125 -23.0859375 89.796875 C-30.61076839 99.21006649 -42.39666395 105.47553363 -54.328125 107.3671875 C-70.54374708 108.72578952 -84.75320405 107.94823556 -98.3046875 98.24609375 C-100.54767152 96.16332287 -101.88247037 94.05131695 -103.328125 91.3671875 C-101.93400391 90.28050781 -101.93400391 90.28050781 -100.51171875 89.171875 C-99.26288785 88.19548256 -98.01419895 87.21890849 -96.765625 86.2421875 C-96.12391357 85.74170898 -95.48220215 85.24123047 -94.82104492 84.72558594 C-91.49431927 82.11827791 -88.26318679 79.46939762 -85.140625 76.6171875 C-84.2125 75.8746875 -83.284375 75.1321875 -82.328125 74.3671875 C-79.328125 75.3671875 -79.328125 75.3671875 -77.640625 77.6796875 C-73.52273386 82.46534477 -68.58126689 84.40930695 -62.390625 85.3046875 C-55.67053124 85.72857034 -50.44854378 84.17837854 -45.328125 79.8046875 C-42.42316567 76.26426832 -42.13462923 74.0045881 -41.8046875 69.4375 C-42.65128693 66.08900972 -44.4513969 65.21833112 -47.328125 63.3671875 C-50.54312739 61.90158885 -53.82955586 60.66007007 -57.140625 59.4296875 C-75.64317734 52.54469599 -75.64317734 52.54469599 -80.30078125 43.47265625 C-83.70796897 35.28655588 -81.51750502 27.35768553 -78.765625 19.2421875 C-74.26283666 8.89075896 -64.72941421 0.70666594 -54.56640625 -3.87890625 C-51.84359753 -4.91562422 -49.12181282 -5.80796996 -46.328125 -6.6328125 C-45.27238281 -6.97119141 -45.27238281 -6.97119141 -44.1953125 -7.31640625 C-29.41112577 -11.39189499 -12.41329253 -9.00663706 0 0 Z " fill="#000000" transform="translate(935.328125,901.6328125)"/>
<path d="M0 0 C2.11768107 1.62542759 4.122673 3.28152828 6.06640625 5.109375 C4.75291149 8.07529237 3.42785505 9.93659179 0.94921875 12.01953125 C0.03849609 12.79200195 0.03849609 12.79200195 -0.890625 13.58007812 C-1.52355469 14.10537109 -2.15648437 14.63066406 -2.80859375 15.171875 C-3.43378906 15.70103516 -4.05898438 16.23019531 -4.703125 16.77539062 C-6.43512997 18.23459566 -8.18297173 19.67262443 -9.93359375 21.109375 C-10.67867187 21.74746094 -11.42375 22.38554688 -12.19140625 23.04296875 C-13.05378906 23.57083984 -13.05378906 23.57083984 -13.93359375 24.109375 C-16.93359375 23.109375 -16.93359375 23.109375 -18.68359375 21.234375 C-23.12523434 17.03949222 -27.4134227 15.91117204 -33.37109375 15.671875 C-38.56075954 15.82178282 -42.7726191 16.9297623 -46.93359375 20.109375 C-49.05825967 22.36531318 -49.87385204 23.58364794 -50.2265625 26.6875 C-50.17435547 28.01007812 -50.17435547 28.01007812 -50.12109375 29.359375 C-50.09402344 30.25140625 -50.06695313 31.1434375 -50.0390625 32.0625 C-49.98685547 33.07570313 -49.98685547 33.07570313 -49.93359375 34.109375 C-48.75410156 34.48835937 -48.75410156 34.48835937 -47.55078125 34.875 C-43.00709291 36.42554591 -38.53203823 38.11785575 -34.05859375 39.859375 C-33.19878906 40.18164062 -32.33898437 40.50390625 -31.453125 40.8359375 C-23.62078908 43.90231484 -16.04251528 48.09762599 -11.78125 55.65234375 C-9.00946381 63.68669175 -10.33738225 72.72539555 -13.5234375 80.43359375 C-16.12775456 85.37530341 -19.39058804 89.80247689 -22.93359375 94.109375 C-23.42730469 94.728125 -23.92101562 95.346875 -24.4296875 95.984375 C-25.93359375 97.109375 -25.93359375 97.109375 -27.82543945 96.86352539 C-30.24588915 95.99765751 -31.38506854 95.00435596 -33.16796875 93.16796875 C-34.02841797 92.29301758 -34.02841797 92.29301758 -34.90625 91.40039062 C-35.49277344 90.78873047 -36.07929687 90.17707031 -36.68359375 89.546875 C-37.28558594 88.93134766 -37.88757813 88.31582031 -38.5078125 87.68164062 C-39.98993756 86.16422687 -41.46269045 84.63766904 -42.93359375 83.109375 C-42.61575928 82.49441162 -42.2979248 81.87944824 -41.97045898 81.24584961 C-40.88291606 79.00495295 -40.37507275 77.12885124 -39.99609375 74.671875 C-39.86332031 73.93066406 -39.73054687 73.18945312 -39.59375 72.42578125 C-40.15005921 68.63392654 -41.94839341 67.44272018 -44.93359375 65.109375 C-48.28817924 63.54860384 -51.74382528 62.35722057 -55.24609375 61.171875 C-64.42633603 58.06421701 -72.33980847 54.38817722 -77.93359375 46.109375 C-80.68380313 37.85874686 -79.50732482 28.46689529 -76.1875 20.56640625 C-69.66206158 7.77979951 -58.28325827 -0.38786498 -44.875 -4.92578125 C-29.85354693 -8.95775679 -13.38376044 -8.62548609 0 0 Z " fill="#000000" transform="translate(1025.93359375,899.890625)"/>
<path d="M0 0 C24.75 0 49.5 0 75 0 C70 20 70 20 69 22 C52.83 22 36.66 22 20 22 C19.505 24.475 19.505 24.475 19 27 C17.92185661 32.39071693 16.44648114 37.69623582 15 43 C29.85 43 44.7 43 60 43 C59.38355553 48.54800023 58.85843006 53.22929135 57.5 58.5 C57.2421875 59.5209375 56.984375 60.541875 56.71875 61.59375 C56 64 56 64 55 65 C53.55710213 65.09295815 52.10970215 65.11746513 50.66381836 65.11352539 C49.7429393 65.11344986 48.82206024 65.11337433 47.87327576 65.11329651 C46.87224319 65.10813522 45.87121063 65.10297394 44.83984375 65.09765625 C43.31043907 65.09553383 43.31043907 65.09553383 41.75013733 65.09336853 C38.47922893 65.08775097 35.20838787 65.0751955 31.9375 65.0625 C29.72591244 65.05748726 27.51432382 65.05292396 25.30273438 65.04882812 C19.86846643 65.03777584 14.43423803 65.02102063 9 65 C8.73445313 66.15757812 8.46890625 67.31515625 8.1953125 68.5078125 C7.83869236 70.04690993 7.48191309 71.58597048 7.125 73.125 C6.95097656 73.88554688 6.77695312 74.64609375 6.59765625 75.4296875 C6.42363281 76.17734375 6.24960937 76.925 6.0703125 77.6953125 C5.91320801 78.37609863 5.75610352 79.05688477 5.59423828 79.75830078 C4.85625438 82.5422647 3.91077304 85.26768087 3 88 C19.83 88 36.66 88 54 88 C53 96 53 96 49 111 C23.59 111 -1.82 111 -28 111 C-26.87480436 100.87323928 -26.87480436 100.87323928 -26.00024414 97.5534668 C-25.80656754 96.80626877 -25.61289093 96.05907074 -25.41334534 95.28923035 C-25.20604294 94.51702652 -24.99874054 93.74482269 -24.78515625 92.94921875 C-24.5693541 92.12799026 -24.35355194 91.30676178 -24.13121033 90.46064758 C-23.677876 88.74142286 -23.22142387 87.02301744 -22.76196289 85.30541992 C-22.06023898 82.67903754 -21.37025273 80.04976894 -20.68164062 77.41992188 C-20.23766775 75.74200515 -19.79302973 74.06426425 -19.34765625 72.38671875 C-19.14237808 71.60439377 -18.93709991 70.82206879 -18.7256012 70.01603699 C-17.21441083 64.40028826 -17.21441083 64.40028826 -15.91577148 61.97583008 C-14.7596417 59.48141303 -14.61974424 57.05507068 -14.33129883 54.34487915 C-13.67143399 49.67446327 -12.32304273 45.15246612 -11.09375 40.60546875 C-10.80898804 39.53629715 -10.52422607 38.46712555 -10.23083496 37.36555481 C-9.32547708 33.97153259 -8.41273351 30.57954524 -7.5 27.1875 C-6.88625637 24.88879528 -6.27297037 22.58996832 -5.66015625 20.29101562 C-4.53976037 16.0971869 -3.41896215 11.9034748 -2.29101562 7.71166992 C-2.06530884 6.87198166 -1.83960205 6.0322934 -1.60705566 5.16716003 C-1.12051973 3.43024976 -0.57040113 1.7112034 0 0 Z " fill="#000000" transform="translate(361,896)"/>
<path d="M0 0 C10.89 0 21.78 0 33 0 C36.63 10.89 40.26 21.78 44 33 C51.64160369 25.35839631 58.62515311 17.39385509 65.19384766 8.82250977 C66.44355893 7.20018661 67.72096069 5.5993027 69 4 C69.56323975 3.28408691 70.12647949 2.56817383 70.70678711 1.83056641 C73.9158315 -0.73106617 76.10500219 -0.45729505 80.171875 -0.390625 C81.1955014 -0.38213531 81.1955014 -0.38213531 82.23980713 -0.37347412 C84.41059762 -0.35115636 86.57971206 -0.30097508 88.75 -0.25 C90.2252365 -0.22992876 91.70049899 -0.21167907 93.17578125 -0.1953125 C96.78439501 -0.1513088 100.39203381 -0.08231583 104 0 C100.27382366 4.39466519 96.48460794 8.71589058 92.5625 12.9375 C92.05444824 13.48615723 91.54639648 14.03481445 91.02294922 14.60009766 C87.53115642 18.3654265 84.02431971 22.11661707 80.51147461 25.86230469 C79.2540876 27.20382126 77.99838829 28.54692169 76.74438477 29.89160156 C73.50293615 33.36174518 70.232002 36.79386976 66.8984375 40.17578125 C66.24407715 40.84947754 65.5897168 41.52317383 64.91552734 42.21728516 C63.66493666 43.50357968 62.40264253 44.77862689 61.12744141 46.04052734 C57.86680044 49.23016457 57.86680044 49.23016457 56.953125 53.48046875 C57.29859375 54.31191406 57.6440625 55.14335938 58 56 C58.40734375 57.11632812 58.8146875 58.23265625 59.234375 59.3828125 C59.73510869 60.63201128 60.24042829 61.87938027 60.75 63.125 C61.23984375 64.34445312 61.7296875 65.56390625 62.234375 66.8203125 C63.53742882 69.96114403 64.92490527 73.05648272 66.33984375 76.1484375 C69.27041714 82.55416501 72.05419192 89.0185284 74.8125 95.5 C75.31458984 96.6653125 75.81667969 97.830625 76.33398438 99.03125 C76.80771484 100.145 77.28144531 101.25875 77.76953125 102.40625 C78.19854736 103.40978516 78.62756348 104.41332031 79.06958008 105.44726562 C80 108 80 108 80 111 C69.44 111 58.88 111 48 111 C45.60364139 105.60819313 43.37095113 100.50992755 41.421875 94.99609375 C40.98359375 93.76181641 40.5453125 92.52753906 40.09375 91.25585938 C39.64575464 89.98310061 39.1978389 88.71031382 38.75 87.4375 C38.28678655 86.12944102 37.82324717 84.8214974 37.359375 83.51367188 C36.23638457 80.34356346 35.11668227 77.17233479 34 74 C31.75682658 73.76701711 31.75682658 73.76701711 29.93359375 76.01953125 C28.69802734 77.40205078 28.69802734 77.40205078 27.4375 78.8125 C26.77041016 79.55693359 26.77041016 79.55693359 26.08984375 80.31640625 C22.36115132 84.51118524 18.82724913 88.85392768 15.3046875 93.22265625 C12.0563142 97.13722137 8.62411211 100.86067917 5.1640625 104.58984375 C2.99270364 106.83155602 2.99270364 106.83155602 1.80688477 109.1262207 C0 111 0 111 -3.1862793 111.45410156 C-4.46929932 111.4331543 -5.75231934 111.41220703 -7.07421875 111.390625 C-7.7580513 111.38496521 -8.44188385 111.37930542 -9.1464386 111.37347412 C-11.32750899 111.35110816 -13.50692753 111.30091765 -15.6875 111.25 C-17.16729395 111.229935 -18.6471137 111.21168422 -20.12695312 111.1953125 C-23.7518376 111.15124474 -27.37575756 111.08221822 -31 111 C-29.65758197 108.03327646 -28.15683032 105.88066126 -25.91015625 103.53125 C-24.98940308 102.56022339 -24.98940308 102.56022339 -24.05004883 101.56958008 C-23.39415771 100.88661865 -22.7382666 100.20365723 -22.0625 99.5 C-20.69217526 98.05649544 -19.32238723 96.61248121 -17.953125 95.16796875 C-16.94088867 94.10328369 -16.94088867 94.10328369 -15.90820312 93.01708984 C-13.3461554 90.30884544 -10.82651875 87.56542404 -8.3125 84.8125 C-5.07428556 81.26770904 -1.83340222 77.72578356 1.42675781 74.20117188 C2.42784354 73.11531418 3.42465744 72.02550137 4.41699219 70.93164062 C7.03332012 68.05968459 9.70279506 65.30506669 12.53125 62.640625 C13.38601929 61.80422485 13.38601929 61.80422485 14.25805664 60.95092773 C15.34868441 59.88693545 16.46439486 58.84785563 17.60717773 57.84008789 C19.37433218 56.21163086 19.37433218 56.21163086 21 53 C20.76758971 49.38037815 19.40722584 46.31484163 18 43 C17.3042688 41.3152356 17.3042688 41.3152356 16.59448242 39.59643555 C14.97838917 35.77448027 13.31075802 31.97903497 11.625 28.1875 C10.76695844 26.24958532 9.91078206 24.31089626 9.05795288 22.37068176 C8.28022052 20.60246329 7.4970014 18.83666096 6.71337891 17.07104492 C4.34145947 11.43528593 2.19499728 5.70699292 0 0 Z " fill="#000000" transform="translate(447,896)"/>
<path d="M0 0 C7.04338539 -0.07663409 14.08666159 -0.12884295 21.13037109 -0.16479492 C23.52201353 -0.17979713 25.91362885 -0.20020547 28.30517578 -0.22631836 C31.76081064 -0.26308043 35.21607892 -0.27981264 38.671875 -0.29296875 C39.72550232 -0.30845261 40.77912964 -0.32393646 41.86468506 -0.33988953 C52.89345229 -0.3423392 63.55433096 1.43110593 72 9 C76.56477696 14.05929446 77.21800179 20.39018561 77 27 C75.06687351 40.24106107 69.49244552 50.62851737 59 59 C43.14213691 69.30083414 26.27559785 69.51979895 8 69 C7.90348145 69.60626221 7.80696289 70.21252441 7.70751953 70.8371582 C6.25207263 79.41734167 4.08772386 87.78050921 1.875 96.1875 C1.49832741 97.63076273 1.12202282 99.07412155 0.74609375 100.51757812 C-0.16436952 104.01303515 -1.08231651 107.50640029 -2 111 C-10.91 111 -19.82 111 -29 111 C-25.74161434 95.70118169 -21.82843147 80.61553706 -17.8125 65.5 C-17.14147424 62.96483913 -16.4707406 60.42960093 -15.80029297 57.89428711 C-14.47848142 52.89764473 -13.15478321 47.90150819 -11.82958984 42.90576172 C-10.22861185 36.86765985 -8.63724159 30.82708623 -7.05078125 24.78515625 C-6.43202641 22.43224097 -5.81304736 20.07938484 -5.19393921 17.7265625 C-4.81704235 16.29296757 -4.44075267 14.85921285 -4.06509399 13.42529297 C-3.5584692 11.49262489 -3.04886554 9.56073839 -2.5390625 7.62890625 C-2.26271973 6.57775635 -1.98637695 5.52660645 -1.70166016 4.44360352 C-1 2 -1 2 0 0 Z M21 21 C19.10683233 26.359531 17.69805741 31.80579747 16.3125 37.3125 C16.07466797 38.23095703 15.83683594 39.14941406 15.59179688 40.09570312 C15.37201172 40.96775391 15.15222656 41.83980469 14.92578125 42.73828125 C14.72380127 43.53274658 14.52182129 44.32721191 14.3137207 45.14575195 C14.21019287 45.75765381 14.10666504 46.36955566 14 47 C15.86104302 48.86104302 18.82036798 48.2173163 21.3125 48.25 C33.03353869 48.17377337 33.03353869 48.17377337 43.265625 43.125 C46.91430807 39.09068375 48.80954663 36.09498703 49.3125 30.5625 C49.29304541 27.03049499 49.29304541 27.03049499 47.4375 24.6875 C41.76588948 20.76100041 35.71348864 20.7268203 29.0625 20.875 C28.28326172 20.88402344 27.50402344 20.89304687 26.70117188 20.90234375 C24.80064553 20.92566309 22.90027992 20.96152414 21 21 Z " fill="#000000" transform="translate(567,896)"/>
<path d="M0 0 C7.32821898 -0.07659857 14.65633321 -0.12882844 21.98486328 -0.16479492 C24.4735093 -0.17980232 26.96212923 -0.20021464 29.45068359 -0.22631836 C33.04531325 -0.26305706 36.63959064 -0.2798075 40.234375 -0.29296875 C41.33174988 -0.30845261 42.42912476 -0.32393646 43.55975342 -0.33988953 C54.04724545 -0.342131 63.98509532 0.928821 72.15234375 7.984375 C76.2840488 12.4916896 78.161907 17.41575464 78.4375 23.5 C78.20178169 28.34064391 76.71431058 32.50898918 75 37 C74.81824219 37.65742187 74.63648438 38.31484375 74.44921875 38.9921875 C71.8455558 47.81275993 64.57567225 54.59378637 56.82421875 59.16015625 C54.89414622 60.04873354 53.0627028 60.50077174 51 61 C49.32886747 61.65539171 47.66165021 62.32092651 46 63 C46.20044922 63.57185028 46.40089844 64.14370056 46.60742188 64.73287964 C48.68731845 70.66844049 50.76289631 76.6054985 52.8359375 82.54345703 C53.61086426 84.76129482 54.38690291 86.97874442 55.1640625 89.19580078 C56.27894819 92.37692233 57.38986811 95.55940438 58.5 98.7421875 C58.84998047 99.73805878 59.19996094 100.73393005 59.56054688 101.75997925 C59.88087891 102.68078278 60.20121094 103.6015863 60.53125 104.55029297 C60.81548828 105.3630368 61.09972656 106.17578064 61.39257812 107.01315308 C62 109 62 109 62 111 C51.77 111 41.54 111 31 111 C28.68005749 104.04017248 26.55537254 97.12411827 24.58105469 90.06835938 C23.93769125 87.77820178 23.28524003 85.49071609 22.6328125 83.203125 C22.17159278 81.57299649 21.71065201 79.94278903 21.25 78.3125 C21.02715332 77.53398682 20.80430664 76.75547363 20.57470703 75.95336914 C19.7129879 72.88252166 19 70.20587731 19 67 C15.7 67 12.4 67 9 67 C8.79246094 67.92554688 8.58492187 68.85109375 8.37109375 69.8046875 C6.21586115 79.25649307 3.81930045 88.6353603 1.3125 98 C1.00304443 99.1638623 0.69358887 100.32772461 0.37475586 101.52685547 C0.08221924 102.61111816 -0.21031738 103.69538086 -0.51171875 104.8125 C-0.77428467 105.78832031 -1.03685059 106.76414062 -1.30737305 107.76953125 C-2 110 -2 110 -3 111 C-4.85369611 111.08737645 -6.71067541 111.10698153 -8.56640625 111.09765625 C-9.69111328 111.09443359 -10.81582031 111.09121094 -11.97460938 111.08789062 C-13.15861328 111.07951172 -14.34261719 111.07113281 -15.5625 111.0625 C-16.75037109 111.05798828 -17.93824219 111.05347656 -19.16210938 111.04882812 C-22.10812226 111.03699675 -25.05403681 111.02051287 -28 111 C-27.37073311 104.86188009 -26.13275242 99.10269216 -24.55078125 93.14453125 C-24.30133759 92.18869644 -24.05189392 91.23286163 -23.79489136 90.24806213 C-22.97235663 87.10156016 -22.14251187 83.95703707 -21.3125 80.8125 C-20.73633681 78.61485046 -20.16057864 76.41709469 -19.58520508 74.21923828 C-18.05190767 68.36889067 -16.51165125 62.52040005 -14.96887207 56.67254639 C-13.98338112 52.9370055 -12.99891535 49.20119561 -12.01464844 45.46533203 C-8.02023042 30.3074489 -4.0151511 15.15240397 0 0 Z M21 21 C18.90812946 26.95826086 17.19971791 32.90368429 15.8125 39.0625 C15.63525391 39.83271484 15.45800781 40.60292969 15.27539062 41.39648438 C14.84634177 43.26342669 14.42259201 45.13158556 14 47 C17.33316277 47.08811914 20.66602047 47.14076197 24 47.1875 C24.93457031 47.21263672 25.86914062 47.23777344 26.83203125 47.26367188 C34.26180295 47.34160654 40.01897933 46.52738709 45.875 41.5625 C49.35976472 37.36028373 50.53035354 34.61746395 50.3828125 28.96875 C49.70896997 25.50327416 47.75345492 24.01920027 45 22 C40.19340568 20.54345627 35.15931498 20.88930194 30.1875 20.9375 C28.86202148 20.94426758 28.86202148 20.94426758 27.50976562 20.95117188 C25.33981441 20.96290134 23.16989828 20.98083505 21 21 Z " fill="#000000" transform="translate(667,896)"/>
<path d="M0 0 C24.75 0 49.5 0 75 0 C71 18 71 18 69 22 C52.83 22 36.66 22 20 22 C19.67 24.64 19.34 27.28 19 30 C17.68 34.29 16.36 38.58 15 43 C30.18 43 45.36 43 61 43 C58 57 58 57 55 65 C39.82 65 24.64 65 9 65 C8.34 68.63 7.68 72.26 7 76 C6.01 79.63 5.02 83.26 4 87 C20.83 87.33 37.66 87.66 55 88 C51 104 51 104 49 111 C23.59 111 -1.82 111 -28 111 C-26.87499776 101.9999821 -26.87499776 101.9999821 -26.03349304 98.79808044 C-25.74981369 97.70343224 -25.74981369 97.70343224 -25.46040344 96.58666992 C-25.25521591 95.81613281 -25.05002838 95.0455957 -24.83862305 94.25170898 C-24.62057007 93.41632095 -24.40251709 92.58093292 -24.17785645 91.7202301 C-23.46066778 88.97755206 -22.73625711 86.23683849 -22.01171875 83.49609375 C-21.5066269 81.57059517 -21.00198051 79.64497968 -20.49775696 77.71925354 C-19.17056801 72.65548557 -17.83720122 67.5933642 -16.50256348 62.53155518 C-15.15736064 57.42504272 -13.81826274 52.31693033 -12.47851562 47.20898438 C-10.50527612 39.68986247 -8.52993819 32.17129799 -6.54956055 24.65405273 C-6.35044571 23.89768524 -6.15133087 23.14131775 -5.94618225 22.36203003 C-3.98006737 14.90369115 -1.98741584 7.45280939 0 0 Z " fill="#000000" transform="translate(771,896)"/>
<path d="" fill="#000000" transform="translate(0,0)"/>
<path d="" fill="#000000" transform="translate(0,0)"/>
<path d="" fill="#000000" transform="translate(0,0)"/>
<path d="M0 0 C0.4125 0.38671875 0.825 0.7734375 1.25 1.171875 C8.30446608 7.53349174 15.24533956 11.43655116 25 11 C28.13675055 10.278741 31.03023344 9.22677474 34 8 C34.99 7.67 35.98 7.34 37 7 C43.93 13.93 43.93 13.93 51 21 C49.80817322 24.57548035 48.58034506 25.02189879 45.32617188 26.65429688 C44.70291016 26.95400391 44.07964844 27.25371094 43.4375 27.5625 C42.84130859 27.86607422 42.24511719 28.16964844 41.63085938 28.48242188 C28.64572105 34.8706089 11.46633025 35.3062654 -2.375 31.375 C-9.52615459 28.7110296 -15.91705494 24.74593789 -21 19 C-19.78939012 15.36817037 -18.49841584 14.56359247 -15.5 12.25 C-14.60410156 11.55261719 -13.70820312 10.85523438 -12.78515625 10.13671875 C-11.86605469 9.43160156 -10.94695313 8.72648438 -10 8 C-8.31195991 6.6881947 -6.62441663 5.3757497 -4.9375 4.0625 C-4.20402344 3.49660156 -3.47054687 2.93070313 -2.71484375 2.34765625 C-1.0717138 1.11139558 -1.0717138 1.11139558 0 0 Z " fill="#000000" transform="translate(946,976)"/>
<path d="M0 0 C1.4540625 -0.01836914 1.4540625 -0.01836914 2.9375 -0.03710938 C10.1986398 -0.05174877 17.31664495 0.0652633 23.5 4.1875 C24.11875 4.455625 24.7375 4.72375 25.375 5 C28.89898009 6.96928299 31.91896594 9.49281732 33.25 13.375 C33.3325 13.973125 33.415 14.57125 33.5 15.1875 C33.995 16.1775 33.995 16.1775 34.5 17.1875 C35.58181377 28.23618821 33.20125439 37.78224961 26.11328125 46.41796875 C19.66252853 53.49349171 11.0538807 59.34375032 1.5 61.1875 C-0.67059032 61.26897598 -2.84352851 61.29502942 -5.015625 61.28515625 C-6.89121094 61.28032227 -6.89121094 61.28032227 -8.8046875 61.27539062 C-10.75761719 61.26282227 -10.75761719 61.26282227 -12.75 61.25 C-14.72613281 61.24323242 -14.72613281 61.24323242 -16.7421875 61.23632812 C-19.99483741 61.22454316 -23.24739584 61.20809011 -26.5 61.1875 C-23.59554883 47.22448631 -19.97753197 33.49097451 -16.19262695 19.74267578 C-15.33419777 16.57583765 -14.55042512 13.39659982 -13.78125 10.20703125 C-13.5234375 9.14871094 -13.265625 8.09039063 -13 7 C-12.7421875 5.93394531 -12.484375 4.86789062 -12.21875 3.76953125 C-10.6489948 -1.86964369 -5.02923141 0.00324048 0 0 Z M-7 6.67578125 C-8.68248801 9.49307238 -8.84743003 11.78120862 -9.2026062 14.99617004 C-9.67733933 18.49421516 -10.61866337 21.83538793 -11.56640625 25.23046875 C-11.97332036 26.73111625 -12.38022101 28.2317674 -12.78710938 29.73242188 C-13.42627378 32.06321678 -14.0675745 34.39341253 -14.7097168 36.72338867 C-15.3338046 38.9952016 -15.95034732 41.26896781 -16.56640625 43.54296875 C-16.76013321 44.23577438 -16.95386017 44.92858002 -17.15345764 45.64237976 C-18.12678414 49.24235561 -18.7230552 52.45504295 -18.5 56.1875 C-3.80078332 56.6198299 7.15579632 56.67638674 18.5 46.1875 C24.32876569 40.44795011 27.95699461 33.60074692 28.53515625 25.421875 C28.44009574 19.38025138 26.84714516 14.53464516 22.5 10.1875 C16.80536521 6.20125564 11.24887283 5.85475214 4.5 5.375 C3.69304688 5.29830078 2.88609375 5.22160156 2.0546875 5.14257812 C-1.6201992 4.89091509 -3.78228024 4.76023246 -7 6.67578125 Z " fill="#000000" transform="translate(642.5,1030.8125)"/>
<path d="M0 0 C1.51815699 0.00015911 3.0363194 0.00585313 4.55444336 0.01586914 C5.35208603 0.01728409 6.1497287 0.01869904 6.97154236 0.02015686 C9.52916146 0.02577223 12.08669429 0.03832727 14.64428711 0.05102539 C16.37410356 0.05603841 18.10392137 0.06060166 19.83374023 0.06469727 C24.08312264 0.07574664 28.33244023 0.09302153 32.58178711 0.11352539 C33.07678711 1.10352539 33.07678711 1.10352539 33.58178711 2.11352539 C32.92178711 3.43352539 32.26178711 4.75352539 31.58178711 6.11352539 C16.23678711 6.60852539 16.23678711 6.60852539 0.58178711 7.11352539 C-1.06821289 13.38352539 -2.71821289 19.65352539 -4.41821289 26.11352539 C5.15178711 26.44352539 14.72178711 26.77352539 24.58178711 27.11352539 C24.08678711 29.58852539 24.08678711 29.58852539 23.58178711 32.11352539 C19.2410786 32.35577623 14.90012732 32.57065585 10.55688477 32.76049805 C9.08028265 32.82886826 7.60400393 32.90464764 6.12817383 32.98803711 C4.00375753 33.10677553 1.87959444 33.19862124 -0.24633789 33.28540039 C-1.52412109 33.34824219 -2.8019043 33.41108398 -4.1184082 33.47583008 C-7.41821289 33.11352539 -7.41821289 33.11352539 -9.87036133 31.29467773 C-11.41821289 29.11352539 -11.41821289 29.11352539 -11.35571289 26.04321289 C-11.07715322 24.72568192 -10.75976523 23.41614788 -10.41821289 22.11352539 C-10.20551758 21.28369141 -9.99282227 20.45385742 -9.77368164 19.59887695 C-9.02430081 16.80072099 -8.22812404 14.01972972 -7.41821289 11.23852539 C-7.00829102 9.79606445 -7.00829102 9.79606445 -6.59008789 8.32446289 C-4.23201222 0.14055322 -4.23201222 0.14055322 0 0 Z " fill="#000000" transform="translate(701.418212890625,1030.886474609375)"/>
<path d="M0 0 C1.67542976 0.28604898 3.34385343 0.61781233 5 1 C2.85576793 11.59235865 0.23674906 22.0037285 -2.5625 32.4375 C-2.96578994 33.95239541 -3.36878599 35.4673691 -3.77148438 36.98242188 C-5.46440613 43.33733957 -7.19306671 49.67573348 -9 56 C0.24 56 9.48 56 19 56 C18.67 57.65 18.34 59.3 18 61 C6.78 61 -4.44 61 -16 61 C-14.87497207 51.99977655 -14.87497207 51.99977655 -13.81665039 48.07202148 C-13.46607323 46.75541786 -13.46607323 46.75541786 -13.1084137 45.41221619 C-12.85736374 44.49114578 -12.60631378 43.57007538 -12.34765625 42.62109375 C-12.08746201 41.65019302 -11.82726776 40.6792923 -11.55918884 39.67897034 C-10.73193733 36.59711581 -9.89727714 33.51732355 -9.0625 30.4375 C-8.50538317 28.36536235 -7.94873802 26.29309782 -7.39257812 24.22070312 C-5.93821744 18.81108833 -4.48002073 13.40265643 -3 8 C-2.80783905 7.28844757 -2.6156781 6.57689514 -2.41769409 5.84378052 C-1.11539679 1.11539679 -1.11539679 1.11539679 0 0 Z " fill="#000000" transform="translate(749,1031)"/>
<path d="M0 0 C1.65 0 3.3 0 5 0 C4.3427062 7.01113388 2.66834575 13.58491528 0.83984375 20.375 C0.53051407 21.5400708 0.22118439 22.7051416 -0.09751892 23.90551758 C-1.08094387 27.60500427 -2.07161024 31.30250654 -3.0625 35 C-3.73290177 37.5167993 -4.40282884 40.0337251 -5.07226562 42.55078125 C-6.70935007 48.70199618 -8.35237497 54.85160054 -10 61 C-11.98 61 -13.96 61 -16 61 C-14.74571216 53.56721022 -13.16318384 46.29341408 -11.25 39.00390625 C-10.9912207 38.0079393 -10.73244141 37.01197235 -10.46582031 35.98582458 C-9.92323504 33.90221574 -9.37861701 31.81913525 -8.83203125 29.73657227 C-7.99620379 26.54801804 -7.16960813 23.3571647 -6.34375 20.16601562 C-5.81304991 18.13266889 -5.28181888 16.09946065 -4.75 14.06640625 C-4.38116699 12.63984459 -4.38116699 12.63984459 -4.00488281 11.1844635 C-3.77124023 10.29931564 -3.53759766 9.41416779 -3.296875 8.50219727 C-3.09416992 7.72707291 -2.89146484 6.95194855 -2.68261719 6.15333557 C-1.98738024 3.9601906 -1.08334877 2.02608023 0 0 Z " fill="#000000" transform="translate(793,1031)"/>
<path d="M0 0 C1.66611905 -0.042721 3.33382885 -0.04063832 5 0 C7.22214275 2.22214275 6.83715352 7.12805026 7.19140625 10.22265625 C7.35575417 11.62371864 7.35575417 11.62371864 7.52342224 13.05308533 C7.75499433 15.03766259 7.98434271 17.02250038 8.21166992 19.00756836 C8.55831312 22.02604177 8.91437669 25.04329583 9.27148438 28.06054688 C9.49536593 29.98951677 9.71869054 31.9185514 9.94140625 33.84765625 C10.04763809 34.74380142 10.15386993 35.63994659 10.26332092 36.56324768 C10.8493345 41.74769665 11.10257188 46.78245974 11 52 C14.99513998 48.44460611 17.53324502 44.25742931 20.3125 39.75 C20.82232422 38.9338623 21.33214844 38.11772461 21.85742188 37.27685547 C23.57732107 34.52141218 25.28921964 31.76111348 27 29 C28.99962657 25.77646837 31.00050447 22.55373921 33.00463867 19.33300781 C34.31414642 17.22766928 35.62041019 15.12030882 36.9230957 13.01074219 C37.52597412 12.04040039 38.12885254 11.07005859 38.75 10.0703125 C39.28109375 9.21195801 39.8121875 8.35360352 40.359375 7.46923828 C42.11348012 4.82920566 43.88638749 2.36470884 46 0 C48.75 -0.3125 48.75 -0.3125 51 0 C50.08454001 4.32146632 47.91727144 7.63374829 45.5625 11.3125 C45.11221436 12.02470703 44.66192871 12.73691406 44.19799805 13.47070312 C40.92287205 18.62507462 37.5416897 23.70304717 34.12133789 28.76171875 C29.21940629 36.06752793 24.61966924 43.56573682 20.0012207 51.05273438 C19.38206787 52.05240234 18.76291504 53.05207031 18.125 54.08203125 C17.57070313 54.98155518 17.01640625 55.8810791 16.4453125 56.80786133 C15 59 15 59 13 61 C9.375 61.125 9.375 61.125 6 61 C5.06055701 53.7860648 4.1298317 46.57106089 3.21012783 39.35458088 C2.78277073 36.00347963 2.35245396 32.65281481 1.9152832 29.30297852 C1.41383165 25.44900592 0.92271103 21.59383615 0.43359375 17.73828125 C0.27531601 16.53915604 0.11703827 15.34003082 -0.04603577 14.10456848 C-0.25636696 12.4233918 -0.25636696 12.4233918 -0.47094727 10.70825195 C-0.59752213 9.72452103 -0.72409698 8.7407901 -0.85450745 7.72724915 C-1.00263671 4.95057504 -0.66874917 2.68876027 0 0 Z " fill="#000000" transform="translate(808,1031)"/>
<path d="M0 0 C0.77403168 0.00141495 1.54806335 0.0028299 2.34555054 0.00428772 C4.82155192 0.00989222 7.29746338 0.02244542 9.7734375 0.03515625 C11.45051953 0.04017067 13.12760297 0.04473368 14.8046875 0.04882812 C18.91930556 0.0598631 23.03385628 0.07713071 27.1484375 0.09765625 C28.1484375 3.09765625 28.1484375 3.09765625 27.1484375 6.09765625 C16.5884375 6.09765625 6.0284375 6.09765625 -4.8515625 6.09765625 C-5.5115625 9.72765625 -6.1715625 13.35765625 -6.8515625 17.09765625 C-7.8415625 20.39765625 -8.8315625 23.69765625 -9.8515625 27.09765625 C-0.2815625 27.09765625 9.2884375 27.09765625 19.1484375 27.09765625 C18.6534375 29.57265625 18.6534375 29.57265625 18.1484375 32.09765625 C8.5784375 32.42765625 -0.9915625 32.75765625 -10.8515625 33.09765625 C-12.78331188 39.91808396 -12.78331188 39.91808396 -14.71069336 46.73974609 C-14.95182861 47.58746582 -15.19296387 48.43518555 -15.44140625 49.30859375 C-15.68753662 50.17790527 -15.93366699 51.0472168 -16.18725586 51.94287109 C-16.8515625 54.09765625 -16.8515625 54.09765625 -17.8515625 56.09765625 C-6.9615625 56.09765625 3.9284375 56.09765625 15.1484375 56.09765625 C14.8184375 57.74765625 14.4884375 59.39765625 14.1484375 61.09765625 C1.2784375 61.09765625 -11.5915625 61.09765625 -24.8515625 61.09765625 C-22.59977938 49.83874064 -22.59977938 49.83874064 -21.46289062 45.38842773 C-21.20922729 44.39137314 -20.95556396 43.39431854 -20.69421387 42.36705017 C-20.42645142 41.32811111 -20.15868896 40.28917206 -19.8828125 39.21875 C-19.60183716 38.1254689 -19.32086182 37.03218781 -19.03137207 35.90577698 C-18.4412466 33.61541446 -17.84955011 31.32545619 -17.25634766 29.03588867 C-16.34664432 25.51612717 -15.44866634 21.99349534 -14.55078125 18.47070312 C-13.97467709 16.24069961 -13.39787928 14.01087515 -12.8203125 11.78125 C-12.55255005 10.72409286 -12.2847876 9.66693573 -12.00891113 8.57774353 C-11.7552478 7.60905838 -11.50158447 6.64037323 -11.24023438 5.64233398 C-11.0197644 4.78647202 -10.79929443 3.93061005 -10.57214355 3.04881287 C-8.94885796 -1.34664607 -3.95285984 -0.02701301 0 0 Z " fill="#000000" transform="translate(877.8515625,1030.90234375)"/>
<path d="M0 0 C0.93005859 -0.01224609 1.86011719 -0.02449219 2.81835938 -0.03710938 C10.82057669 -0.05397983 17.9016663 0.33457035 23.9375 6.1875 C25.84540697 10.00331394 25.52483326 14.29105045 24.2890625 18.28125 C21.51964931 24.43550154 17.22537866 28.50532952 11.25 31.5625 C8.9375 32.1875 8.9375 32.1875 4.9375 32.1875 C5.21013672 32.95940674 5.48277344 33.73131348 5.76367188 34.52661133 C6.99311001 38.01606147 8.21538437 41.50797892 9.4375 45 C9.86675781 46.21494141 10.29601562 47.42988281 10.73828125 48.68164062 C11.14433594 49.84501953 11.55039062 51.00839844 11.96875 52.20703125 C12.53432617 53.81735229 12.53432617 53.81735229 13.11132812 55.46020508 C13.9375 58.1875 13.9375 58.1875 13.9375 61.1875 C11.6275 61.1875 9.3175 61.1875 6.9375 61.1875 C3.9675 52.2775 0.9975 43.3675 -2.0625 34.1875 C-5.6925 33.8575 -9.3225 33.5275 -13.0625 33.1875 C-13.4028125 35.3840625 -13.4028125 35.3840625 -13.75 37.625 C-15.19045064 45.65787803 -17.66991535 53.39790189 -20.0625 61.1875 C-22.0425 61.1875 -24.0225 61.1875 -26.0625 61.1875 C-23.24006405 48.94639622 -20.22849575 36.75883321 -17.1159668 24.58837891 C-16.36201729 21.63667279 -15.61359009 18.68359741 -14.86523438 15.73046875 C-14.38574966 13.85147749 -13.90594458 11.97256796 -13.42578125 10.09375 C-13.20287918 9.2116687 -12.97997711 8.3295874 -12.75032043 7.42077637 C-10.5078459 -1.30001241 -8.37104562 0.00563707 0 0 Z M-6.0625 6.1875 C-6.81061682 8.06151688 -6.81061682 8.06151688 -7.3515625 10.3359375 C-7.57070313 11.17640625 -7.78984375 12.016875 -8.015625 12.8828125 C-8.23734375 13.76710938 -8.4590625 14.65140625 -8.6875 15.5625 C-8.91695312 16.4390625 -9.14640625 17.315625 -9.3828125 18.21875 C-10.66306171 23.14004973 -10.66306171 23.14004973 -11.0625 28.1875 C2.25868485 28.86558559 2.25868485 28.86558559 14.375 24.125 C17.56290617 20.47057097 18.86781574 17.05668739 18.9375 12.1875 C18.12355585 9.75009116 17.39749197 8.53759241 15.3515625 6.98046875 C11.71572875 5.78617384 8.11770151 5.67557557 4.3125 5.5 C3.53648437 5.45294922 2.76046875 5.40589844 1.9609375 5.35742188 C-2.17735575 5.01838298 -2.17735575 5.01838298 -6.0625 6.1875 Z " fill="#000000" transform="translate(930.0625,1030.8125)"/>
<path d="M0 0 C1.4540625 0.0309375 1.4540625 0.0309375 2.9375 0.0625 C5.78278668 5.54231139 8.1885557 10.99499052 10.25 16.8125 C10.52650391 17.55371094 10.80300781 18.29492188 11.08789062 19.05859375 C13.40560547 25.5622067 13.40560547 25.5622067 11.9375 29.0625 C9.875 30.8125 9.875 30.8125 7.9375 32.0625 C6.38824754 28.13019205 4.84001573 24.19748428 3.29272461 20.2644043 C2.76631185 18.92672899 2.23962132 17.58916296 1.71264648 16.25170898 C0.95483355 14.32824977 0.1980234 12.40439861 -0.55859375 10.48046875 C-1.01419678 9.32313232 -1.4697998 8.1657959 -1.93920898 6.97338867 C-2.69292655 5.02021012 -3.40045796 3.04862612 -4.0625 1.0625 C-3.0625 0.0625 -3.0625 0.0625 0 0 Z " fill="#000000" transform="translate(967.0625,1030.9375)"/>
<path d="M0 0 C1.4540625 0.0309375 1.4540625 0.0309375 2.9375 0.0625 C1.52011511 3.31457092 -0.18776412 5.37611067 -2.75 7.8125 C-6.01197211 10.99277693 -9.0434552 14.26357252 -12 17.7265625 C-13.65288687 19.59858209 -15.33486479 21.40935265 -17.0625 23.2109375 C-17.59713867 23.77337158 -18.13177734 24.33580566 -18.68261719 24.9152832 C-19.74331906 26.02793976 -20.81135055 27.13366983 -21.88769531 28.23120117 C-28.08364135 34.76633399 -29.89833037 42.50495637 -32.25 51 C-32.52263672 51.97001953 -32.79527344 52.94003906 -33.07617188 53.93945312 C-33.74253669 56.31264711 -34.4045278 58.68696817 -35.0625 61.0625 C-37.0425 61.0625 -39.0225 61.0625 -41.0625 61.0625 C-40.79695312 59.95132812 -40.53140625 58.84015625 -40.2578125 57.6953125 C-39.90064336 56.19280296 -39.54390067 54.69019201 -39.1875 53.1875 C-39.0033252 52.41188721 -38.81915039 51.63627441 -38.62939453 50.8371582 C-37.47299663 45.92630811 -36.41714432 41.01529632 -35.5546875 36.04296875 C-34.56167895 32.04729149 -33.54210034 30.38223356 -30.0625 28.0625 C-29.7325 28.3925 -29.4025 28.7225 -29.0625 29.0625 C-28.66160156 28.60101562 -28.26070312 28.13953125 -27.84765625 27.6640625 C-22.97796188 22.07661272 -18.02831979 16.56449635 -13.0625 11.0625 C-10.64547262 8.37402185 -8.22887913 5.68515455 -5.8125 2.99609375 C-3.15923625 0.06447421 -3.15923625 0.06447421 0 0 Z " fill="#000000" transform="translate(1011.0625,1030.9375)"/>
<path d="" fill="#000000" transform="translate(0,0)"/>
<path d="M0 0 C2.49609375 1.79296875 2.49609375 1.79296875 5 4 C5.14500012 11.6850066 1.89309171 19.90090608 0 27 C10.56 27 21.12 27 32 27 C31.505 29.475 31.505 29.475 31 32 C18.46 32 5.92 32 -7 32 C-6.37822134 27.02577071 -5.80492176 22.72565116 -4.58984375 17.96875 C-4.32236328 16.91171875 -4.05488281 15.8546875 -3.77929688 14.765625 C-3.50150391 13.68796875 -3.22371094 12.6103125 -2.9375 11.5 C-2.65583984 10.39140625 -2.37417969 9.2828125 -2.08398438 8.140625 C-1.39361604 5.4259563 -0.69885625 2.71249362 0 0 Z " fill="#000000" transform="translate(689,1060)"/>
</svg>
