<?xml version="1.0" encoding="UTF-8"?>
<svg version="1.1" xmlns="http://www.w3.org/2000/svg" width="360" height="360">
<path d="M0 0 C118.8 0 237.6 0 360 0 C360 118.8 360 237.6 360 360 C241.2 360 122.4 360 0 360 C0 241.2 0 122.4 0 0 Z " fill="#FEFEFE" transform="translate(0,0)"/>
<path d="M0 0 C0.66298599 -0.0038269 1.32597198 -0.00765381 2.00904846 -0.01159668 C3.40326466 -0.01430344 4.79753272 -0.00702903 6.19165039 0.00976562 C8.30797404 0.03116474 10.4208911 0.00994566 12.53710938 -0.015625 C25.33175284 -0.04454949 25.33175284 -0.04454949 30.87890625 4.53125 C32.55078125 6.6015625 32.55078125 6.6015625 33.62890625 8.65625 C35.25705633 11.69469909 35.86490102 12.52191318 38.87890625 14.53125 C41.46775723 14.7241918 43.95785585 14.80824787 46.546875 14.8046875 C48.09571016 14.82499107 49.64453822 14.84584211 51.19335938 14.8671875 C53.62449117 14.88969571 56.0553414 14.90622321 58.48657227 14.91210938 C75.93096514 14.98326016 75.93096514 14.98326016 81.87890625 19.53125 C85.35888208 24.59231942 86.46444448 28.38587978 86.38061523 34.55859375 C86.38871971 35.71368942 86.38871971 35.71368942 86.39698792 36.89212036 C86.40941642 39.41806392 86.39302435 41.94285444 86.375 44.46875 C86.37515513 46.23559631 86.37664635 48.00244296 86.37940979 49.76928711 C86.38079115 53.46450931 86.36828002 57.15934213 86.34545898 60.85449219 C86.31707512 65.57882809 86.3198152 70.3025175 86.3325491 75.02690125 C86.33952118 78.67302929 86.33169955 82.31900927 86.31929207 85.96511841 C86.31479243 87.70654736 86.31442771 89.44799228 86.31835747 91.18942261 C86.32128478 93.6279124 86.30469122 96.06552734 86.28295898 98.50390625 C86.28971146 99.5717485 86.28971146 99.5717485 86.29660034 100.66116333 C86.20888548 106.61801503 84.76083087 111.13017376 81.06640625 115.84375 C75.00001914 120.52353434 67.84899014 119.82141997 60.55883789 119.8059082 C58.70170418 119.8135746 58.70170418 119.8135746 56.80705261 119.82139587 C53.4226673 119.83289216 50.03852738 119.83536905 46.65413976 119.83283257 C43.82370055 119.83176023 40.99328375 119.83665293 38.16284937 119.841438 C31.48297941 119.85251931 24.8031657 119.85297826 18.12329102 119.84692383 C11.24315836 119.84088358 4.36323019 119.85319937 -2.51686758 119.8744939 C-8.43468428 119.89213334 -14.35243603 119.8981076 -20.27027804 119.89485615 C-23.80000757 119.89304698 -27.32959119 119.89564278 -30.8592968 119.90957069 C-34.79682254 119.92452763 -38.73408955 119.91515839 -42.67163086 119.90356445 C-44.41508286 119.91503006 -44.41508286 119.91503006 -46.1937561 119.92672729 C-52.95859513 119.88270846 -58.48251366 119.59059425 -63.86328125 115.06640625 C-68.05696504 109.61461732 -68.27308411 105.56669978 -68.2980957 98.84448242 C-68.3046669 98.07485672 -68.3112381 97.30523102 -68.31800842 96.51228333 C-68.33768649 93.97042739 -68.34939115 91.42863036 -68.359375 88.88671875 C-68.36345053 88.01651911 -68.36752605 87.14631947 -68.37172508 86.24975014 C-68.39256145 81.64461125 -68.40687422 77.03950196 -68.41625977 72.43432617 C-68.42732494 67.68635116 -68.46173293 62.93884468 -68.50143147 58.19103527 C-68.5276139 54.53208056 -68.53595299 50.87323731 -68.53954124 47.21419716 C-68.54440223 45.46435694 -68.55600232 43.71452154 -68.57457924 41.96477318 C-68.59900821 39.51154074 -68.59799937 37.05951878 -68.59106445 34.60620117 C-68.60387451 33.8895932 -68.61668457 33.17298523 -68.62988281 32.43466187 C-68.57367679 26.95496151 -67.15735782 23.93576843 -64.12109375 19.53125 C-59.12811565 15.33784404 -54.47632821 15.01245535 -48.12109375 15.53125 C-48.22421875 14.78875 -48.32734375 14.04625 -48.43359375 13.28125 C-48.12109375 10.53125 -48.12109375 10.53125 -46.24609375 8.21875 C-41.84774079 5.8436394 -38.01745815 5.59211126 -33.12109375 6.53125 C-29.99609375 8.78125 -29.99609375 8.78125 -28.12109375 11.53125 C-28.12109375 12.85125 -28.12109375 14.17125 -28.12109375 15.53125 C-21.79243169 14.47216643 -21.79243169 14.47216643 -17.12109375 10.53125 C-16.52296875 9.561875 -15.92484375 8.5925 -15.30859375 7.59375 C-11.16618574 1.79437878 -7.02406445 0.02591735 0 0 Z " fill="#FBFBFB" transform="translate(171.12109375,70.46875)"/>
<path d="M0 0 C0.66298599 -0.0038269 1.32597198 -0.00765381 2.00904846 -0.01159668 C3.40326466 -0.01430344 4.79753272 -0.00702903 6.19165039 0.00976562 C8.30797404 0.03116474 10.4208911 0.00994566 12.53710938 -0.015625 C25.33175284 -0.04454949 25.33175284 -0.04454949 30.87890625 4.53125 C32.55078125 6.6015625 32.55078125 6.6015625 33.62890625 8.65625 C35.25705633 11.69469909 35.86490102 12.52191318 38.87890625 14.53125 C41.46775723 14.7241918 43.95785585 14.80824787 46.546875 14.8046875 C48.09571016 14.82499107 49.64453822 14.84584211 51.19335938 14.8671875 C53.62449117 14.88969571 56.0553414 14.90622321 58.48657227 14.91210938 C75.93096514 14.98326016 75.93096514 14.98326016 81.87890625 19.53125 C85.35888208 24.59231942 86.46444448 28.38587978 86.38061523 34.55859375 C86.38871971 35.71368942 86.38871971 35.71368942 86.39698792 36.89212036 C86.40941642 39.41806392 86.39302435 41.94285444 86.375 44.46875 C86.37515513 46.23559631 86.37664635 48.00244296 86.37940979 49.76928711 C86.38079115 53.46450931 86.36828002 57.15934213 86.34545898 60.85449219 C86.31707512 65.57882809 86.3198152 70.3025175 86.3325491 75.02690125 C86.33952118 78.67302929 86.33169955 82.31900927 86.31929207 85.96511841 C86.31479243 87.70654736 86.31442771 89.44799228 86.31835747 91.18942261 C86.32128478 93.6279124 86.30469122 96.06552734 86.28295898 98.50390625 C86.28971146 99.5717485 86.28971146 99.5717485 86.29660034 100.66116333 C86.20888548 106.61801503 84.76083087 111.13017376 81.06640625 115.84375 C75.00001914 120.52353434 67.84899014 119.82141997 60.55883789 119.8059082 C58.70170418 119.8135746 58.70170418 119.8135746 56.80705261 119.82139587 C53.4226673 119.83289216 50.03852738 119.83536905 46.65413976 119.83283257 C43.82370055 119.83176023 40.99328375 119.83665293 38.16284937 119.841438 C31.48297941 119.85251931 24.8031657 119.85297826 18.12329102 119.84692383 C11.24315836 119.84088358 4.36323019 119.85319937 -2.51686758 119.8744939 C-8.43468428 119.89213334 -14.35243603 119.8981076 -20.27027804 119.89485615 C-23.80000757 119.89304698 -27.32959119 119.89564278 -30.8592968 119.90957069 C-34.79682254 119.92452763 -38.73408955 119.91515839 -42.67163086 119.90356445 C-44.41508286 119.91503006 -44.41508286 119.91503006 -46.1937561 119.92672729 C-52.95859513 119.88270846 -58.48251366 119.59059425 -63.86328125 115.06640625 C-68.05696504 109.61461732 -68.27308411 105.56669978 -68.2980957 98.84448242 C-68.3046669 98.07485672 -68.3112381 97.30523102 -68.31800842 96.51228333 C-68.33768649 93.97042739 -68.34939115 91.42863036 -68.359375 88.88671875 C-68.36345053 88.01651911 -68.36752605 87.14631947 -68.37172508 86.24975014 C-68.39256145 81.64461125 -68.40687422 77.03950196 -68.41625977 72.43432617 C-68.42732494 67.68635116 -68.46173293 62.93884468 -68.50143147 58.19103527 C-68.5276139 54.53208056 -68.53595299 50.87323731 -68.53954124 47.21419716 C-68.54440223 45.46435694 -68.55600232 43.71452154 -68.57457924 41.96477318 C-68.59900821 39.51154074 -68.59799937 37.05951878 -68.59106445 34.60620117 C-68.60387451 33.8895932 -68.61668457 33.17298523 -68.62988281 32.43466187 C-68.57367679 26.95496151 -67.15735782 23.93576843 -64.12109375 19.53125 C-59.12811565 15.33784404 -54.47632821 15.01245535 -48.12109375 15.53125 C-48.22421875 14.78875 -48.32734375 14.04625 -48.43359375 13.28125 C-48.12109375 10.53125 -48.12109375 10.53125 -46.24609375 8.21875 C-41.84774079 5.8436394 -38.01745815 5.59211126 -33.12109375 6.53125 C-29.99609375 8.78125 -29.99609375 8.78125 -28.12109375 11.53125 C-28.12109375 12.85125 -28.12109375 14.17125 -28.12109375 15.53125 C-21.79243169 14.47216643 -21.79243169 14.47216643 -17.12109375 10.53125 C-16.52296875 9.561875 -15.92484375 8.5925 -15.30859375 7.59375 C-11.16618574 1.79437878 -7.02406445 0.02591735 0 0 Z M-12.12109375 8.53125 C-14.46681886 11.7550148 -14.46681886 11.7550148 -15.12109375 15.53125 C-19.48125602 17.68432412 -23.50903347 17.8110822 -28.2734375 17.8046875 C-29.87044975 17.82497365 -31.46745492 17.84582438 -33.06445312 17.8671875 C-35.56378191 17.88977697 -38.06282967 17.90625991 -40.56225586 17.91210938 C-42.98732339 17.92166347 -45.41114997 17.95546611 -47.8359375 17.9921875 C-48.57674057 17.98714203 -49.31754364 17.98209656 -50.08079529 17.97689819 C-55.22845556 18.07385786 -58.16758633 19.26522861 -62.12109375 22.53125 C-64.59345665 26.23979435 -64.42371486 29.10220831 -64.42749023 33.39575195 C-64.43581375 34.19609863 -64.44413727 34.99644531 -64.45271301 35.82104492 C-64.47683537 38.47058968 -64.48558833 41.11988828 -64.4921875 43.76953125 C-64.50115301 45.61175104 -64.51027484 47.45397008 -64.51954651 49.29618835 C-64.53604574 53.16061167 -64.54373816 57.02494827 -64.54663086 60.8894043 C-64.55201186 65.83606225 -64.58967595 70.78190249 -64.63537502 75.72832966 C-64.66515235 79.53481504 -64.67235458 83.34110382 -64.67335701 87.14769554 C-64.67755894 88.97093636 -64.68999219 90.79417778 -64.71087456 92.61730385 C-64.73780017 95.17166418 -64.73296067 97.72413359 -64.72045898 100.27856445 C-64.73529327 101.02839096 -64.75012756 101.77821747 -64.76541138 102.55076599 C-64.68532661 108.31116922 -63.07174553 110.64294125 -59.12109375 114.53125 C-56.57581338 115.80389018 -54.79143092 115.66283822 -51.94096375 115.67169189 C-50.84318604 115.67740204 -49.74540833 115.68311218 -48.61436462 115.68899536 C-46.79951317 115.69067215 -46.79951317 115.69067215 -44.94799805 115.69238281 C-43.67801971 115.69734772 -42.40804138 115.70231262 -41.09957886 115.70742798 C-37.60980397 115.72056016 -34.12004834 115.72699866 -30.6302526 115.73143864 C-28.45022875 115.73436839 -26.27021018 115.73847304 -24.09018898 115.74294281 C-17.27022154 115.75662066 -10.45026613 115.76628558 -3.63028592 115.7701447 C4.24372019 115.7746246 12.11755262 115.792168 19.99150592 115.8211453 C26.07650334 115.84276186 32.16145191 115.85284899 38.24648732 115.85418582 C41.88129961 115.85523399 45.51594871 115.86114393 49.1507206 115.87900543 C53.2064632 115.89854731 57.2618425 115.89419728 61.31762695 115.88769531 C62.52145523 115.8969101 63.72528351 115.90612488 64.96559143 115.9156189 C66.07182861 115.91004974 67.1780658 115.90448059 68.31782532 115.89874268 C69.75607399 115.90094252 69.75607399 115.90094252 71.22337818 115.9031868 C75.17194479 115.3501453 77.8035712 113.54736373 80.66516113 110.84336853 C82.42880465 107.48372342 82.31323323 104.2429565 82.29882812 100.53735352 C82.30729767 99.73525452 82.31576721 98.93315552 82.32449341 98.10675049 C82.34787494 95.45772405 82.34888533 92.80927803 82.34765625 90.16015625 C82.35475705 88.31696846 82.36245593 86.47378288 82.37072754 84.63059998 C82.38417493 80.76791234 82.38573993 76.9054291 82.37988281 73.04272461 C82.37398593 68.09483509 82.40457629 63.14792654 82.44499969 58.20022678 C82.47085986 54.39376042 82.47375566 50.5875308 82.47010803 46.78098869 C82.47180081 44.95693432 82.48145854 43.1328692 82.49925232 41.30890083 C82.52141001 38.75678129 82.51175794 36.20665423 82.49414062 33.65454102 C82.50740387 32.90269028 82.52066711 32.15083954 82.53433228 31.37620544 C82.4714388 27.45143779 82.03958759 25.72827529 79.5279541 22.64854431 C74.6992376 18.78911461 71.64955161 18.22813871 65.6328125 18.1875 C64.82529037 18.1728772 64.01776825 18.15825439 63.18577576 18.14318848 C60.6043694 18.09668648 58.02303974 18.0624901 55.44140625 18.03125 C52.04659104 17.99008537 48.65231537 17.93639573 45.2578125 17.875 C44.08890221 17.86708435 44.08890221 17.86708435 42.89637756 17.85900879 C35.89227589 17.73044092 35.89227589 17.73044092 32.87890625 15.53125 C32.16642893 13.8836462 31.50490242 12.21361471 30.87890625 10.53125 C28.3719184 6.96266422 28.3719184 6.96266422 24.87890625 4.53125 C20.3663032 4.2723565 15.84990068 4.26020286 11.33081055 4.23608398 C9.08515052 4.21889349 6.84097192 4.17501 4.59570312 4.13085938 C3.16277122 4.12072999 1.72982682 4.11221465 0.296875 4.10546875 C-1.00483643 4.09088623 -2.30654785 4.07630371 -3.64770508 4.0612793 C-7.68942165 4.60814824 -9.2609034 5.6873015 -12.12109375 8.53125 Z " fill="#3D3D3D" transform="translate(171.12109375,70.46875)"/>
<path d="M0 0 C7.06214752 3.94340721 11.35362072 9.29606248 13.83984375 17.02734375 C15.2122016 24.8144349 13.85243113 30.88837081 9.75 37.609375 C5.04486846 43.56535951 -1.68598021 47.25289636 -9.17578125 48.3125 C-16.96195678 48.8433756 -23.00714219 45.549755 -28.97265625 40.77734375 C-34.28903298 34.09389872 -37.05251862 28.76226155 -36.640625 20.0234375 C-35.45425095 12.62547898 -31.92957232 6.72928339 -25.96484375 2.2109375 C-18.0599318 -2.9734528 -8.72216691 -3.87057304 0 0 Z " fill="#F8F7F7" transform="translate(191.16015625,114.97265625)"/>
<path d="M0 0 C1.9375 1.5625 1.9375 1.5625 3 3 C3.65355469 2.34515625 4.30710938 1.6903125 4.98046875 1.015625 C8.9439577 -1.63011924 11.67961523 -1.46529045 16.3125 -1.25 C17.42334961 -1.22292969 17.42334961 -1.22292969 18.55664062 -1.1953125 C20.3716571 -1.14847337 22.18600166 -1.07673789 24 -1 C24 0.32 24 1.64 24 3 C20.04 3 16.08 3 12 3 C12 7.29 12 11.58 12 16 C15.3 16 18.6 16 22 16 C22 17.32 22 18.64 22 20 C19.03 20 16.06 20 13 20 C13 24.29 13 28.58 13 33 C16.63 33 20.26 33 24 33 C24 34.32 24 35.64 24 37 C21.22954827 37.27554763 18.46186584 37.52123257 15.6875 37.75 C14.90181641 37.83121094 14.11613281 37.91242188 13.30664062 37.99609375 C11.13708474 38.1622725 9.1591408 38.27712123 7 38 C4.95703125 36.015625 4.95703125 36.015625 4 34 C3.34 34.495 2.68 34.99 2 35.5 C-2.14685318 37.57342659 -4.38117047 37.58651804 -9 37 C-11.80132319 34.33051468 -12.89558209 32.66227882 -13.50170898 28.81787109 C-13.49985596 27.64820801 -13.49800293 26.47854492 -13.49609375 25.2734375 C-13.49673828 23.9946875 -13.49738281 22.7159375 -13.49804688 21.3984375 C-13.48245728 20.4079541 -13.48245728 20.4079541 -13.46655273 19.39746094 C-13.43747876 17.37352126 -13.44597816 15.35218582 -13.45898438 13.328125 C-13.3947358 3.54257288 -13.3947358 3.54257288 -11.66040039 1.15869141 C-7.71406933 -1.59521055 -4.50736489 -0.9658639 0 0 Z " fill="#FAF9F8" transform="translate(233,205)"/>
<path d="M0 0 C7.90371899 4.72894783 13.29078728 10.97869298 16.01953125 19.82421875 C17.92088851 29.43762323 16.3474798 38.03623076 10.96484375 46.16015625 C6.04060617 52.38821087 -0.73901759 56.418824 -8.5625 57.9375 C-18.17950548 58.80120343 -26.13046242 56.82159003 -33.70703125 50.7421875 C-40.25778943 44.37071323 -43.58852642 37.20048303 -43.875 28.125 C-43.63132794 18.24409782 -41.00362726 12.32103958 -34.0625 5.1796875 C-24.7708198 -3.15378818 -11.52629794 -5.29681783 0 0 Z M-34.37890625 13.13671875 C-38.75695241 19.79770647 -39.65032152 26.1194182 -38.5625 33.9375 C-35.38423757 42.63521406 -29.44453609 48.11727307 -21.171875 51.984375 C-14.1944595 54.5330118 -8.39824167 53.02230066 -1.78125 50.05078125 C5.21611318 46.53978036 8.65901828 41.15971241 11.4375 33.9375 C12.7720882 26.63485893 11.6550966 20.55266905 7.984375 14.12890625 C3.83976574 8.25737647 -1.50337251 4.44840097 -8.5625 2.9375 C-18.97042691 1.53102339 -27.94638498 4.62683934 -34.37890625 13.13671875 Z " fill="#F3F3F3" transform="translate(193.5625,110.0625)"/>
<path d="M0 0 C0.66298599 -0.0038269 1.32597198 -0.00765381 2.00904846 -0.01159668 C3.40326466 -0.01430344 4.79753272 -0.00702903 6.19165039 0.00976562 C8.30797404 0.03116474 10.4208911 0.00994566 12.53710938 -0.015625 C25.33175284 -0.04454949 25.33175284 -0.04454949 30.87890625 4.53125 C32.55078125 6.6015625 32.55078125 6.6015625 33.62890625 8.65625 C35.25705633 11.69469909 35.86490102 12.52191318 38.87890625 14.53125 C41.46775723 14.7241918 43.95785585 14.80824787 46.546875 14.8046875 C48.09571016 14.82499107 49.64453822 14.84584211 51.19335938 14.8671875 C53.62449117 14.88969571 56.0553414 14.90622321 58.48657227 14.91210938 C75.39786052 14.98108577 75.39786052 14.98108577 81.87890625 19.53125 C83.94140625 22.03125 83.94140625 22.03125 84.87890625 24.53125 C84.73747696 25.08576843 84.59604767 25.64028687 84.45033264 26.21160889 C83.63912062 29.50463277 83.70072692 32.77365689 83.67358398 36.14550781 C83.66368439 36.90687042 83.65378479 37.66823303 83.64358521 38.45266724 C83.61205849 40.96320512 83.58724778 43.47376191 83.5625 45.984375 C83.54192284 47.72744227 83.52092617 49.47050464 83.49952698 51.21356201 C83.44438496 55.79691592 83.39494102 60.38031428 83.34667969 64.96374512 C83.29640715 69.64253689 83.24075113 74.32126428 83.18554688 79 C83.07806158 88.1770283 82.97659528 97.35411256 82.87890625 106.53125 C82.54890625 106.53125 82.21890625 106.53125 81.87890625 106.53125 C81.86344505 105.0190815 81.86344505 105.0190815 81.84767151 103.47636414 C81.7500018 93.98532472 81.6472738 84.49435181 81.53956699 75.00342083 C81.48435449 70.12380425 81.4309371 65.24418167 81.3815918 60.36450195 C81.33392366 55.65715583 81.28157985 50.949883 81.2259655 46.24262428 C81.20555307 44.44487134 81.18683815 42.64709831 81.16983223 40.84930992 C81.14576367 38.33525697 81.11571239 35.82134252 81.08422852 33.30737305 C81.07847305 32.56074905 81.07271759 31.81412506 81.06678772 31.0448761 C81.02252049 27.94412071 80.86699956 25.49552994 79.87890625 22.53125 C77.40759707 21.37603498 77.40759707 21.37603498 74.87890625 20.53125 C74.54890625 20.20125 74.21890625 19.87125 73.87890625 19.53125 C71.20019006 19.43288553 68.54255371 19.39411551 65.86328125 19.390625 C64.20311134 19.37229133 62.54295472 19.3527205 60.8828125 19.33203125 C58.25807435 19.30309095 55.63418525 19.28125098 53.00927734 19.28076172 C50.48067394 19.27742142 47.9540418 19.24283196 45.42578125 19.203125 C44.6453949 19.2101947 43.86500854 19.2172644 43.06097412 19.22454834 C38.83864285 19.13052391 37.32559709 18.89866351 33.93920898 16.11328125 C32.28130185 14.03554386 30.66399351 11.99257705 29.19140625 9.78125 C27.25745261 6.52489953 27.25745261 6.52489953 24.87890625 5.53125 C20.36663101 5.24916585 15.85071228 5.21758331 11.33081055 5.18115234 C9.82642124 5.16460812 8.32211005 5.13733749 6.81811523 5.09912109 C4.64395584 5.04418792 2.47163603 5.0224563 0.296875 5.0078125 C-1.00483643 4.98799316 -2.30654785 4.96817383 -3.64770508 4.94775391 C-7.99443898 5.67796365 -9.38797606 7.15502736 -12.12109375 10.53125 C-12.61609375 11.3975 -13.11109375 12.26375 -13.62109375 13.15625 C-15.50724693 16.1426592 -16.91982196 17.02174637 -20.12109375 18.53125 C-22.9340066 18.81540811 -25.53409584 18.94883176 -28.34375 18.9375 C-29.12624619 18.94833618 -29.90874237 18.95917236 -30.71495056 18.97033691 C-34.04761965 19.01605339 -37.38020831 19.02768319 -40.71313477 19.04248047 C-43.15278742 19.05818179 -45.59179218 19.09117649 -48.03125 19.125 C-49.15793846 19.12046814 -49.15793846 19.12046814 -50.30738831 19.11584473 C-54.59459328 19.17739221 -56.93715722 19.6319621 -60.12109375 22.53125 C-60.78109375 22.53125 -61.44109375 22.53125 -62.12109375 22.53125 C-62.45109375 23.52125 -62.78109375 24.51125 -63.12109375 25.53125 C-64.11109375 25.20125 -65.10109375 24.87125 -66.12109375 24.53125 C-65.18709723 20.79526391 -64.18254931 19.57765522 -61.05859375 17.21875 C-56.83066024 14.99774695 -52.78677117 15.15037837 -48.12109375 15.53125 C-48.22421875 14.78875 -48.32734375 14.04625 -48.43359375 13.28125 C-48.12109375 10.53125 -48.12109375 10.53125 -46.24609375 8.21875 C-41.84774079 5.8436394 -38.01745815 5.59211126 -33.12109375 6.53125 C-29.99609375 8.78125 -29.99609375 8.78125 -28.12109375 11.53125 C-28.12109375 12.85125 -28.12109375 14.17125 -28.12109375 15.53125 C-21.79243169 14.47216643 -21.79243169 14.47216643 -17.12109375 10.53125 C-16.52296875 9.561875 -15.92484375 8.5925 -15.30859375 7.59375 C-11.16618574 1.79437878 -7.02406445 0.02591735 0 0 Z " fill="#383838" transform="translate(171.12109375,70.46875)"/>
<path d="M0 0 C8.08316873 4.58084885 14.74535599 11.61106797 17.72265625 20.54296875 C18.49964397 33.19130986 18.36681203 43.17787726 10.03515625 53.35546875 C2.52020331 61.27701429 -5.13298375 63.63508617 -15.83984375 63.98046875 C-24.74044241 64.04574185 -31.6536726 61.62119775 -38.4296875 55.64453125 C-45.50909174 48.07121509 -48.46535409 40.12171568 -48.58984375 29.85546875 C-48.61884766 29.07751953 -48.64785156 28.29957031 -48.67773438 27.49804688 C-48.78204106 17.87776116 -44.18033961 11.69023251 -37.79296875 4.81640625 C-27.03946653 -4.90182091 -12.87539983 -6.0560181 0 0 Z M-38.80859375 10.64453125 C-44.91272451 18.53444494 -46.12243427 26.76406412 -45.27734375 36.54296875 C-43.34286347 44.67710874 -38.8964403 51.35793133 -32 56.11328125 C-24.26389007 60.61850334 -16.26047985 61.92241402 -7.46484375 59.89453125 C1.3955492 57.01490354 7.38519929 52.64801284 11.66015625 44.29296875 C15.25904159 36.43641907 16.03486369 28.37324504 13.78515625 19.91796875 C10.9154255 12.54249251 4.88523247 6.43938257 -1.83984375 2.41796875 C-14.96692522 -3.3161698 -29.28748239 0.35993455 -38.80859375 10.64453125 Z " fill="#2F2F2F" transform="translate(195.27734375,107.45703125)"/>
<path d="M0 0 C2.66099951 1.64857842 3.58496617 2.30655861 5 5 C5.75847236 9.67402796 5.69688498 14.27476037 5.625 19 C5.65400391 20.90652344 5.65400391 20.90652344 5.68359375 22.8515625 C5.62915532 33.19486393 5.62915532 33.19486393 2.71484375 36.3359375 C-1.45921312 38.89442416 -3.16346516 38.76770394 -8 38 C-10.77760517 35.33527818 -11.89037072 33.65070123 -12.53344727 29.83374023 C-12.59916279 22.80509996 -12.59916279 22.80509996 -12.57641602 20.45239258 C-12.56250759 18.43859824 -12.59669343 16.42942079 -12.63476562 14.41601562 C-12.63283203 13.14306641 -12.63089844 11.87011719 -12.62890625 10.55859375 C-12.62963135 9.39642334 -12.63035645 8.23425293 -12.63110352 7.03686523 C-12 4 -12 4 -9.67944336 1.62524414 C-6.12362414 -0.53157486 -4.09253814 -0.65772934 0 0 Z " fill="#F82A28" transform="translate(139,204)"/>
<path d="M0 0 C7.06214752 3.94340721 11.35362072 9.29606248 13.83984375 17.02734375 C15.2122016 24.8144349 13.85243113 30.88837081 9.75 37.609375 C5.04486846 43.56535951 -1.68598021 47.25289636 -9.17578125 48.3125 C-16.96195678 48.8433756 -23.00714219 45.549755 -28.97265625 40.77734375 C-34.28903298 34.09389872 -37.05251862 28.76226155 -36.640625 20.0234375 C-35.45425095 12.62547898 -31.92957232 6.72928339 -25.96484375 2.2109375 C-18.0599318 -2.9734528 -8.72216691 -3.87057304 0 0 Z M-29.8125 11.125 C-33.46466991 16.28038187 -32.65215225 23.00930567 -32.16015625 29.02734375 C-30.62267244 35.09893586 -27.07157829 38.36996968 -22.0625 41.8984375 C-16.79220191 45.02598606 -9.91640179 44.91404112 -4.05859375 43.53125 C1.61054477 41.3210352 5.52630554 36.99765106 8.83984375 32.02734375 C10.70960767 26.418052 10.89456773 19.47478443 9.15625 13.79296875 C5.66261596 7.24059288 -0.24390235 3.25461195 -7.16015625 1.02734375 C-17.23214899 -0.46345662 -23.48970073 3.62117672 -29.8125 11.125 Z " fill="#2B2B2B" transform="translate(191.16015625,114.97265625)"/>
<path d="M0 0 C1.98 0 3.96 0 6 0 C6 12.54 6 25.08 6 38 C4.68 38 3.36 38 2 38 C1.67 30.74 1.34 23.48 1 16 C-0.32 23.26 -1.64 30.52 -3 38 C-4.65 38 -6.3 38 -8 38 C-9.65 30.08 -11.3 22.16 -13 14 C-13.33 21.59 -13.66 29.18 -14 37 C-14.99 37 -15.98 37 -17 37 C-17 25.12 -17 13.24 -17 1 C-15.02 1 -13.04 1 -11 1 C-9.35 9.25 -7.7 17.5 -6 26 C-3.12434826 17.37304478 -1.40467141 8.96598771 0 0 Z " fill="#F73738" transform="translate(185,204)"/>
<path d="M0 0 C2.475 0.495 2.475 0.495 5 1 C6.34061543 0.69728039 7.67405895 0.36162029 9 0 C10.99963028 -0.03845443 13.00051633 -0.04544281 15 0 C15 0.33 15 0.66 15 1 C13.35 1 11.7 1 10 1 C10 12.88 10 24.76 10 37 C10.99 37 11.98 37 13 37 C13 27.76 13 18.52 13 9 C13.33 9 13.66 9 14 9 C14.83644299 13.12437582 15.66862838 17.24959918 16.5 21.375 C16.73847656 22.550625 16.97695312 23.72625 17.22265625 24.9375 C17.56103516 26.61972656 17.56103516 26.61972656 17.90625 28.3359375 C18.11572266 29.37282715 18.32519531 30.4097168 18.54101562 31.47802734 C19 34 19 34 19 36 C14 38 14 38 0 38 C0 25.46 0 12.92 0 0 Z " fill="#FCF0EF" transform="translate(158,204)"/>
<path d="M0 0 C10 0 10 0 14 3 C14.4609375 5.41015625 14.4609375 5.41015625 14.375 8.0625 C14.36210937 8.94035156 14.34921875 9.81820313 14.3359375 10.72265625 C14 13 14 13 12 15 C12.495 15.474375 12.99 15.94875 13.5 16.4375 C15.6610041 20.12921534 15.75212212 23.81171211 15 28 C14.01 29.32 13.02 30.64 12 32 C8.04 32 4.08 32 0 32 C0 21.44 0 10.88 0 0 Z " fill="#252525" transform="translate(208,256)"/>
<path d="M0 0 C2.31 0 4.62 0 7 0 C7.9992937 5.08986753 8.996148 10.18020434 9.99072266 15.27099609 C10.32956641 17.00355002 10.669082 18.73597268 11.00927734 20.46826172 C11.49752742 22.95506314 11.98337686 25.44232318 12.46875 27.9296875 C12.62186646 28.70682098 12.77498291 29.48395447 12.93273926 30.28463745 C14 35.77225659 14 35.77225659 14 38 C12.35 38 10.7 38 9 38 C8.67 35.69 8.34 33.38 8 31 C4.7 30.67 1.4 30.34 -2 30 C-2 32.31 -2 34.62 -2 37 C-4.475 37.495 -4.475 37.495 -7 38 C-4.97003568 25.26658743 -2.59711824 12.62964098 0 0 Z " fill="#F83233" transform="translate(202,204)"/>
<path d="M0 0 C1.98 0 3.96 0 6 0 C6.176521 0.59538574 6.35304199 1.19077148 6.53491211 1.80419922 C7.33386175 4.49503847 8.13564527 7.18502509 8.9375 9.875 C9.21529297 10.81214844 9.49308594 11.74929687 9.77929688 12.71484375 C10.18051758 14.05869141 10.18051758 14.05869141 10.58984375 15.4296875 C10.95903931 16.67081299 10.95903931 16.67081299 11.33569336 17.93701172 C11.9526888 20.03165657 11.9526888 20.03165657 13 22 C13.33 14.74 13.66 7.48 14 0 C15.32 0 16.64 0 18 0 C18 12.54 18 25.08 18 38 C16.35 38 14.7 38 13 38 C12.03781983 35.1679225 11.0801792 32.33443873 10.125 29.5 C9.85558594 28.70851562 9.58617188 27.91703125 9.30859375 27.1015625 C9.04433594 26.31523437 8.78007813 25.52890625 8.5078125 24.71875 C8.14647217 23.65043945 8.14647217 23.65043945 7.77783203 22.56054688 C6.71984919 19.07777097 5.88281154 15.53124616 5 12 C4.67 20.58 4.34 29.16 4 38 C2.68 38 1.36 38 0 38 C0 25.46 0 12.92 0 0 Z " fill="#F8403F" transform="translate(104,204)"/>
<path d="M0 0 C1.70703125 1.25390625 1.70703125 1.25390625 3 3 C3.29296875 5.26171875 3.29296875 5.26171875 3.1875 7.6875 C3.16042969 8.49574219 3.13335937 9.30398437 3.10546875 10.13671875 C3.05326172 11.05904297 3.05326172 11.05904297 3 12 C1.68 12 0.36 12 -1 12 C-1.33 9.69 -1.66 7.38 -2 5 C-3.65614657 4.61781233 -5.32457024 4.28604898 -7 4 C-8.29545448 5.07029129 -8.29545448 5.07029129 -8.11352539 7.59204102 C-8.10828857 8.71795654 -8.10305176 9.84387207 -8.09765625 11.00390625 C-8.09443359 12.21884766 -8.09121094 13.43378906 -8.08789062 14.68554688 C-8.07951172 15.96494141 -8.07113281 17.24433594 -8.0625 18.5625 C-8.05798828 19.84576172 -8.05347656 21.12902344 -8.04882812 22.45117188 C-8.03699545 25.63416022 -8.02051068 28.81705762 -8 32 C-6.02 32 -4.04 32 -2 32 C-1.67 28.37 -1.34 24.74 -1 21 C-2.32 21 -3.64 21 -5 21 C-5 19.68 -5 18.36 -5 17 C-2.36 17 0.28 17 3 17 C3.10854617 19.39706123 3.18753157 21.78915838 3.25 24.1875 C3.30027344 25.19780273 3.30027344 25.19780273 3.3515625 26.22851562 C3.42148739 29.81216627 3.08832517 31.8524657 1.234375 34.94921875 C-1.10004473 37.09182428 -1.89727521 37.68560009 -5 37.625 C-5.99 37.64433594 -5.99 37.64433594 -7 37.6640625 C-10.13707125 36.62245681 -11.2015121 34.7165069 -13 32 C-13.50170898 28.81787109 -13.50170898 28.81787109 -13.49609375 25.2734375 C-13.49673828 23.9946875 -13.49738281 22.7159375 -13.49804688 21.3984375 C-13.48245728 20.4079541 -13.48245728 20.4079541 -13.46655273 19.39746094 C-13.43747876 17.37352126 -13.44597816 15.35218582 -13.45898438 13.328125 C-13.3947358 3.54257288 -13.3947358 3.54257288 -11.66040039 1.15869141 C-7.71406933 -1.59521055 -4.50736489 -0.9658639 0 0 Z " fill="#F73434" transform="translate(233,205)"/>
<path d="M0 0 C1.2065625 0.0309375 1.2065625 0.0309375 2.4375 0.0625 C8.4375 26.53822816 8.4375 26.53822816 8.4375 33.0625 C7.1175 33.0625 5.7975 33.0625 4.4375 33.0625 C4.4375 30.7525 4.4375 28.4425 4.4375 26.0625 C1.4675 26.0625 -1.5025 26.0625 -4.5625 26.0625 C-4.8925 28.0425 -5.2225 30.0225 -5.5625 32.0625 C-6.5525 32.0625 -7.5425 32.0625 -8.5625 32.0625 C-4.99488205 0.12182639 -4.99488205 0.12182639 0 0 Z " fill="#434343" transform="translate(195.5625,255.9375)"/>
<path d="M0 0 C1.98 0 3.96 0 6 0 C6.81736749 3.9990211 7.62800952 7.99937762 8.4375 12 C8.66759766 13.12535156 8.89769531 14.25070312 9.13476562 15.41015625 C10.31596799 21.26481144 11.36670827 27.06016035 12 33 C10.68 33 9.36 33 8 33 C7.67 30.69 7.34 28.38 7 26 C4.36 26 1.72 26 -1 26 C-1.33 27.98 -1.66 29.96 -2 32 C-2.99 32 -3.98 32 -5 32 C-4.39969169 24.69808624 -3.29701918 17.57132416 -1.9375 10.375 C-1.75123047 9.37082031 -1.56496094 8.36664063 -1.37304688 7.33203125 C-0.91902767 4.88731245 -0.46129456 2.44335452 0 0 Z " fill="#2B2B2B" transform="translate(109,256)"/>
<path d="M0 0 C1.2065625 0.0309375 1.2065625 0.0309375 2.4375 0.0625 C4.92085895 10.69513396 7.11194477 21.21387697 8.4375 32.0625 C7.1175 32.0625 5.7975 32.0625 4.4375 32.0625 C4.4375 30.0825 4.4375 28.1025 4.4375 26.0625 C1.4675 26.0625 -1.5025 26.0625 -4.5625 26.0625 C-4.8925 28.0425 -5.2225 30.0225 -5.5625 32.0625 C-6.5525 32.0625 -7.5425 32.0625 -8.5625 32.0625 C-8.22596861 24.72611559 -6.99586367 17.62475846 -5.5625 10.4375 C-5.38428711 9.53612305 -5.20607422 8.63474609 -5.02246094 7.70605469 C-3.46556216 0.08452591 -3.46556216 0.08452591 0 0 Z " fill="#383838" transform="translate(150.5625,255.9375)"/>
<path d="M0 0 C5.28 0 10.56 0 16 0 C16 1.32 16 2.64 16 4 C12.04 4 8.08 4 4 4 C4 8.29 4 12.58 4 17 C7.3 17 10.6 17 14 17 C14 18.32 14 19.64 14 21 C11.03 21 8.06 21 5 21 C5 25.29 5 29.58 5 34 C8.63 34 12.26 34 16 34 C16 35.32 16 36.64 16 38 C10.72 38 5.44 38 0 38 C0 25.46 0 12.92 0 0 Z " fill="#F83C3E" transform="translate(241,204)"/>
<path d="M0 0 C2.48620049 1.06551449 4.03717151 2.03837059 5.9375 4 C8.20319016 6.19703288 10.08740948 6.87977288 13 8 C14.8125 9.5 14.8125 9.5 16 11 C16 11.66 16 12.32 16 13 C9.17016104 18.12237922 3.37992328 18.69125272 -5 18 C-9.1610986 16.46696367 -10.53935571 15.69096643 -13 12 C-12.34 11.01 -11.68 10.02 -11 9 C-8.375 8.8125 -8.375 8.8125 -6 9 C-5.938125 8.443125 -5.87625 7.88625 -5.8125 7.3125 C-4.66626128 4.05012827 -2.50609803 2.31332126 0 0 Z " fill="#FAFAF9" transform="translate(179,141)"/>
<path d="M0 0 C-0.25390625 1.84375 -0.25390625 1.84375 -1 4 C-2.77734375 5.34375 -2.77734375 5.34375 -4.9375 6.5 C-8.27485666 8.29284496 -9.67825459 9.4211698 -11 13 C-11.20418969 15.80366052 -11.30408666 18.50515032 -11.30078125 21.30859375 C-11.30506638 22.11232925 -11.3093515 22.91606476 -11.31376648 23.74415588 C-11.31949992 25.44116272 -11.3200173 27.13819412 -11.31567383 28.83520508 C-11.31251516 31.42507044 -11.33597969 34.01379151 -11.36132812 36.60351562 C-11.36360143 38.2552069 -11.36430447 39.90690123 -11.36328125 41.55859375 C-11.37709587 42.71505653 -11.37709587 42.71505653 -11.39118958 43.8948822 C-11.35215864 48.45342445 -10.80236951 51.36723563 -8 55 C-5.99640257 56.75898744 -5.99640257 56.75898744 -3.8125 58.1875 C-1.64453125 59.66796875 -1.64453125 59.66796875 0 61 C0 61.66 0 62.32 0 63 C-5.02764448 62.75474905 -7.66101645 61.061407 -11.38671875 57.9609375 C-15.66542102 52.76019044 -16.46693215 47.27712969 -16.46875 40.72265625 C-16.48017029 39.56738686 -16.48017029 39.56738686 -16.49182129 38.38877869 C-16.50256533 36.76939108 -16.50549872 35.14993451 -16.50097656 33.53051758 C-16.50000372 31.07188941 -16.5416947 28.61638225 -16.5859375 26.15820312 C-16.6972752 11.78467094 -16.6972752 11.78467094 -12.35449219 6.33764648 C-10.6206254 4.62534365 -9.003094 3.2017472 -6.875 2 C-6.21242187 1.608125 -5.54984375 1.21625 -4.8671875 0.8125 C-3 0 -3 0 0 0 Z " fill="#252525" transform="translate(249,106)"/>
<path d="M0 0 C4.85613344 0.44146668 8.59221918 2.59984285 12 6 C15.55251202 11.29053977 16.60166314 14.96183691 16.53125 21.27734375 C16.5350769 22.04752335 16.53890381 22.81770294 16.54284668 23.61122131 C16.54555327 25.23065508 16.53828025 26.8501335 16.52148438 28.46948242 C16.50008333 30.92792786 16.52131067 33.38344197 16.546875 35.84179688 C16.54423093 37.42448553 16.53910429 39.00717238 16.53125 40.58984375 C16.53934692 41.31405014 16.54744385 42.03825653 16.55578613 42.78440857 C16.446612 48.82425832 14.65060244 53.9794005 10.62365723 58.56846619 C7.29605515 61.60825386 4.45139914 62.68204292 0 63 C0 62.01 0 61.02 0 60 C1.8910075 58.60757167 3.88846044 57.58432173 5.95703125 56.4765625 C8.61845437 54.55301003 9.57736392 52.979544 11 50 C11.29930678 47.13406976 11.44458583 44.49222175 11.43359375 41.62890625 C11.4388356 40.82895737 11.44407745 40.02900848 11.44947815 39.20481873 C11.45588297 37.51798662 11.45458131 35.83110977 11.44604492 34.14428711 C11.4375377 31.57389177 11.46631023 29.00572278 11.49804688 26.43554688 C11.49965926 24.79166733 11.49908065 23.14778387 11.49609375 21.50390625 C11.50732773 20.7412294 11.51856171 19.97855255 11.53013611 19.19276428 C11.46321157 14.02642683 10.36538605 11.12364996 7 7 C5.16680754 5.5128497 5.16680754 5.5128497 3.25 4.625 C2.1775 4.08875 1.105 3.5525 0 3 C0 2.01 0 1.02 0 0 Z " fill="#3C3C3C" transform="translate(111,106)"/>
<path d="M0 0 C1.2375 0.1546875 1.2375 0.1546875 2.5 0.3125 C4.7380858 3.6696287 4.75650054 4.82387364 4.765625 8.75 C4.76820313 9.80960938 4.77078125 10.86921875 4.7734375 11.9609375 C4.76570312 13.06695312 4.75796875 14.17296875 4.75 15.3125 C4.75773438 16.41851562 4.76546875 17.52453125 4.7734375 18.6640625 C4.77085937 19.72367188 4.76828125 20.78328125 4.765625 21.875 C4.76336914 22.84566406 4.76111328 23.81632812 4.75878906 24.81640625 C4.5 27.3125 4.5 27.3125 2.5 30.3125 C-0.625 30.5 -0.625 30.5 -3.5 30.3125 C-5.67425477 25.96399046 -4.68496474 20.08892634 -4.6875 15.3125 C-4.69974609 14.09820312 -4.71199219 12.88390625 -4.72460938 11.6328125 C-4.72654297 10.47523438 -4.72847656 9.31765625 -4.73046875 8.125 C-4.73457764 7.05894531 -4.73868652 5.99289063 -4.74291992 4.89453125 C-4.40956168 1.35121791 -3.5338071 0.44172589 0 0 Z " fill="#FBF3F0" transform="translate(135.5,207.6875)"/>
<path d="M0 0 C0.66 0 1.32 0 2 0 C2.06944885 10.37884933 2.12278521 20.75764356 2.15543652 31.13667774 C2.17110592 35.95586657 2.19236741 40.77489667 2.22631836 45.59399414 C2.25886641 50.24294792 2.2768434 54.89174882 2.28463173 59.54080772 C2.29018344 61.31627497 2.30102435 63.09173367 2.31719017 64.867136 C2.33890417 67.35016722 2.3419695 69.83256325 2.34057617 72.31567383 C2.35675491 73.42158371 2.35675491 73.42158371 2.3732605 74.54983521 C2.34279011 79.55378732 2.34279011 79.55378732 0.47871399 81.98027039 C-0.00926163 82.31678116 -0.49723724 82.65329193 -1 83 C-2.18938661 79.43184017 -2.09655827 76.23933862 -2.03759766 72.53100586 C-2.02959641 71.77300186 -2.02159515 71.01499786 -2.01335144 70.23402405 C-1.98546218 67.72753837 -1.94998947 65.22122617 -1.9140625 62.71484375 C-1.89229528 60.97514733 -1.87084566 59.2354469 -1.84970093 57.4957428 C-1.80420139 53.84989202 -1.75497637 50.20411543 -1.703125 46.55834961 C-1.63684762 41.87851524 -1.57959657 37.19862224 -1.52509499 32.51863766 C-1.48231201 28.92675311 -1.43487242 25.33494182 -1.38599777 21.74313545 C-1.36305665 20.01712426 -1.34155249 18.29109337 -1.32149124 16.56504631 C-1.2927773 14.15647089 -1.25783469 11.74806566 -1.22119141 9.33959961 C-1.2138649 8.62214569 -1.20653839 7.90469177 -1.19898987 7.16549683 C-1.1142794 2.22855881 -1.1142794 2.22855881 0 0 Z " fill="#333333" transform="translate(255,97)"/>
<path d="M0 0 C4.62 0 9.24 0 14 0 C14 1.32 14 2.64 14 4 C10.7 4 7.4 4 4 4 C4 7.3 4 10.6 4 14 C6.64 14 9.28 14 12 14 C12 15.32 12 16.64 12 18 C9.36 18 6.72 18 4 18 C4 21.63 4 25.26 4 29 C7.3 29 10.6 29 14 29 C13.67 30.32 13.34 31.64 13 33 C8.71 33 4.42 33 0 33 C0 22.11 0 11.22 0 0 Z " fill="#464646" transform="translate(243,256)"/>
<path d="M0 0 C1.32 0.33 2.64 0.66 4 1 C5.32 7.93 6.64 14.86 8 22 C8.33 22 8.66 22 9 22 C10.32 14.74 11.64 7.48 13 0 C14.32 0 15.64 0 17 0 C15.90428411 7.41219573 14.71912746 14.80535728 13.4375 22.1875 C13.31076904 22.92991943 13.18403809 23.67233887 13.0534668 24.43725586 C12.11771113 29.76457775 12.11771113 29.76457775 11 32 C9.02 32 7.04 32 5 32 C4.15743719 27.79346033 3.32758687 23.58450944 2.5 19.375 C2.26152344 18.18519531 2.02304688 16.99539063 1.77734375 15.76953125 C1.55175781 14.61582031 1.32617188 13.46210938 1.09375 12.2734375 C0.88427734 11.21560059 0.67480469 10.15776367 0.45898438 9.06787109 C-0.00058707 5.99607597 -0.081281 3.10087004 0 0 Z " fill="#323232" transform="translate(123,256)"/>
<path d="M0 0 C3.125 2.125 3.125 2.125 5 5 C5.1171875 8.1796875 5.1171875 8.1796875 5 11 C1.47918442 11.02927632 -2.04159939 11.04689119 -5.5625 11.0625 C-6.55314453 11.07087891 -7.54378906 11.07925781 -8.56445312 11.08789062 C-13.82548699 11.10536914 -18.81764665 10.92308398 -24 10 C-24 9.67 -24 9.34 -24 9 C-21.03 9 -18.06 9 -15 9 C-15.103125 8.2575 -15.20625 7.515 -15.3125 6.75 C-15 4 -15 4 -13.125 1.6875 C-8.71845565 -0.69203395 -4.9046605 -0.92464911 0 0 Z " fill="#2F2F2F" transform="translate(138,77)"/>
<path d="M0 0 C0.33 0.66 0.66 1.32 1 2 C3.64 2 6.28 2 9 2 C7.7934375 2.9590625 7.7934375 2.9590625 6.5625 3.9375 C4.7249496 5.40603502 4.7249496 5.40603502 3 7 C2.91209025 9.29151417 2.89305962 11.58572524 2.90234375 13.87890625 C2.9037587 14.5655687 2.90517365 15.25223114 2.90663147 15.95970154 C2.91224521 18.16067801 2.92479993 20.36155409 2.9375 22.5625 C2.94251324 24.05143083 2.94707645 25.54036324 2.95117188 27.02929688 C2.96221907 30.68623075 2.97949287 34.34310558 3 38 C1.02 38.99 -0.96 39.98 -3 41 C-3 28.46 -3 15.92 -3 3 C-2.01 3 -1.02 3 0 3 C0 2.01 0 1.02 0 0 Z " fill="#FCFCFA" transform="translate(125,201)"/>
<path d="M0 0 C3.14243123 3.14243123 3.25187503 6.22500061 3.4375 10.5 C3.35293048 17.48544264 1.32081683 22.53049975 -3 28 C-9.55774379 33.83300206 -16.25725912 36.24302885 -24.94921875 36.16796875 C-27 36 -27 36 -30 35 C-29.67 34.01 -29.34 33.02 -29 32 C-27.91460937 31.90203125 -26.82921875 31.8040625 -25.7109375 31.703125 C-24.26553435 31.55295324 -22.82022647 31.40186268 -21.375 31.25 C-20.66214844 31.188125 -19.94929687 31.12625 -19.21484375 31.0625 C-14.19916075 30.51031472 -11.02468333 29.24493842 -7 26 C-2.59686728 20.16882424 -1.8564341 15.95253483 -1.9375 8.8125 C-1.94201172 8.06291016 -1.94652344 7.31332031 -1.95117188 6.54101562 C-1.96293646 4.69397617 -1.98087135 2.84697787 -2 1 C-1.34 0.67 -0.68 0.34 0 0 Z " fill="#2F2F2F" transform="translate(202,127)"/>
<path d="M0 0 C2.31 0 4.62 0 7 0 C7.53181175 2.24743045 8.05007126 4.49807102 8.5625 6.75 C8.85253906 8.00296875 9.14257812 9.2559375 9.44140625 10.546875 C9.93444283 13.59473748 10.07666879 15.17641828 9 18 C9 17.01 9 16.02 9 15 C8.34 15 7.68 15 7 15 C6.67 14.01 6.34 13.02 6 12 C6.33 16.95 6.66 21.9 7 27 C4.36 27 1.72 27 -1 27 C-0.34 22.05 0.32 17.1 1 12 C0.34 12 -0.32 12 -1 12 C-1.14285714 3.42857143 -1.14285714 3.42857143 0 0 Z " fill="#F9383A" transform="translate(202,204)"/>
<path d="M0 0 C2.20797361 2.20797361 2.59757579 3.41458345 3.47265625 6.359375 C3.73240234 7.22820312 3.99214844 8.09703125 4.25976562 8.9921875 C4.52466797 9.90226563 4.78957031 10.81234375 5.0625 11.75 C5.33126953 12.64460937 5.60003906 13.53921875 5.87695312 14.4609375 C7.20583157 18.95460128 8.37547982 23.34308408 9 28 C10.65 28 12.3 28 14 28 C12.68 28.33 11.36 28.66 10 29 C10 29.99 10 30.98 10 32 C9.01 32 8.02 32 7 32 C6.67 31.34 6.34 30.68 6 30 C5.01 30 4.02 30 3 30 C1.32900023 29.68911632 -0.33871537 29.35919668 -2 29 C-1.34 28.67 -0.68 28.34 0 28 C0 18.76 0 9.52 0 0 Z " fill="#FBF8F8" transform="translate(108,214)"/>
<path d="M0 0 C4.24822374 0.47202486 6.19989709 2.96655518 9 6 C11.56451085 4.90092392 13.09554946 3.9015551 15.0625 1.875 C17 0 17 0 20 0 C19.52797514 4.24822374 17.03344482 6.19989709 14 9 C15.44253657 12.36591866 17.33264727 14.51047079 20 17 C19.67 17.99 19.34 18.98 19 20 C15.63408134 18.55746343 13.48952921 16.66735273 11 14 C7.63408134 15.44253657 5.48952921 17.33264727 3 20 C2.01 19.67 1.02 19.34 0 19 C1.44253657 15.63408134 3.33264727 13.48952921 6 11 C4.90092392 8.43548915 3.9015551 6.90445054 1.875 4.9375 C0 3 0 3 0 0 Z " fill="#F73537" transform="translate(170,128)"/>
<path d="M0 0 C11.29984052 -0.82014972 20.43456553 0.97211312 29.375 8.25 C35.15459118 13.80033808 39.82864231 19.7748311 40 28 C39.505 28.495 39.505 28.495 39 29 C38.63239269 31.32817964 38.29758419 33.6618385 38 36 C37.67 36 37.34 36 37 36 C36.85304688 34.83984375 36.85304688 34.83984375 36.703125 33.65625 C35.16225347 22.9232828 32.74549552 16.69491931 24.27734375 9.6953125 C17.36006048 4.54591123 10.35175982 4.36421208 2 4 C2 3.67 2 3.34 2 3 C6.455 2.505 6.455 2.505 11 2 C7.37 1.67 3.74 1.34 0 1 C0 0.67 0 0.34 0 0 Z " fill="#303030" transform="translate(173,104)"/>
<path d="M0 0 C1.32 0 2.64 0 4 0 C4 9.57 4 19.14 4 29 C6.97 29 9.94 29 13 29 C13 30.32 13 31.64 13 33 C8.71 33 4.42 33 0 33 C0 22.11 0 11.22 0 0 Z " fill="#3B3B3B" transform="translate(171,256)"/>
<path d="M0 0 C1.32 0 2.64 0 4 0 C4 9.57 4 19.14 4 29 C6.97 29 9.94 29 13 29 C13 30.32 13 31.64 13 33 C8.71 33 4.42 33 0 33 C0 22.11 0 11.22 0 0 Z " fill="#3F3F3F" transform="translate(227,256)"/>
<path d="M0 0 C1.32 0.66 2.64 1.32 4 2 C3.2575 2.515625 2.515 3.03125 1.75 3.5625 C-0.67903826 5.71551119 -1.58022745 6.81605475 -3 9.5625 C-5.18086441 13.3108607 -6.12858846 14.24374739 -10 16 C-12.81291285 16.28415811 -15.41300209 16.41758176 -18.22265625 16.40625 C-19.00515244 16.41708618 -19.78764862 16.42792236 -20.59385681 16.43908691 C-23.9265259 16.48480339 -27.25911456 16.49643319 -30.59204102 16.51123047 C-33.03169367 16.52693179 -35.47069843 16.55992649 -37.91015625 16.59375 C-39.03684471 16.58921814 -39.03684471 16.58921814 -40.18629456 16.58459473 C-44.47349953 16.64614221 -46.81606347 17.1007121 -50 20 C-50.66 20 -51.32 20 -52 20 C-52.33 20.99 -52.66 21.98 -53 23 C-53.99 22.67 -54.98 22.34 -56 22 C-55.08812276 18.93277656 -54.41669627 17.31790463 -51.84057617 15.35253906 C-48.41313269 13.72056339 -46.0251615 13.64178127 -42.23828125 13.671875 C-40.31338867 13.67960937 -40.31338867 13.67960937 -38.34960938 13.6875 C-37.35610474 13.70296875 -37.35610474 13.70296875 -36.3425293 13.71875 C-34.30824529 13.7500655 -32.27473622 13.75974139 -30.24023438 13.765625 C-20.30864375 13.84567812 -20.30864375 13.84567812 -18 15 C-18 14.34 -18 13.68 -18 13 C-16.741875 12.731875 -15.48375 12.46375 -14.1875 12.1875 C-9.17615359 10.91044336 -7.82797939 9.26784344 -5 4.9375 C-3 2 -3 2 0 0 Z " fill="#151515" transform="translate(161,73)"/>
<path d="M0 0 C1.32 0 2.64 0 4 0 C4 12.54 4 25.08 4 38 C2.68 38 1.36 38 0 38 C0 25.46 0 12.92 0 0 Z " fill="#F73132" transform="translate(158,204)"/>
<path d="M0 0 C1.58246707 -0.08153933 3.16616273 -0.13943557 4.75 -0.1875 C6.07257813 -0.23970703 6.07257813 -0.23970703 7.421875 -0.29296875 C10.44671583 0.05076316 11.75583602 1.00227459 14 3 C13.67 4.32 13.34 5.64 13 7 C12.67 7 12.34 7 12 7 C11.690625 7.969375 11.38125 8.93875 11.0625 9.9375 C10 13 10 13 9 14 C7.00041636 14.04080783 4.99954746 14.04254356 3 14 C2.34 12.02 1.68 10.04 1 8 C0.67 8 0.34 8 0 8 C0 5.36 0 2.72 0 0 Z " fill="#3E3E3E" transform="translate(208,256)"/>
<path d="M0 0 C0.33 0 0.66 0 1 0 C1.33 7.26 1.66 14.52 2 22 C2.66 21.01 3.32 20.02 4 19 C4.99 19 5.98 19 7 19 C6.51679152 25.2054142 5.66681876 30.99945246 4 37 C5.32 37.33 6.64 37.66 8 38 C5 40 5 40 1 40 C0.67 40.66 0.34 41.32 0 42 C-3.465 40.515 -3.465 40.515 -7 39 C-4 37 -4 37 0 37 C0 24.79 0 12.58 0 0 Z " fill="#FBF1F0" transform="translate(191,205)"/>
<path d="M0 0 C1.98 0 3.96 0 6 0 C8.27678571 8.03571429 8.27678571 8.03571429 7 12 C6.67 11.34 6.34 10.68 6 10 C6 14.29 6 18.58 6 23 C4.02 23 2.04 23 0 23 C0.01160156 22.07316406 0.02320312 21.14632813 0.03515625 20.19140625 C0.04417969 18.99386719 0.05320312 17.79632813 0.0625 16.5625 C0.07410156 15.36753906 0.08570312 14.17257812 0.09765625 12.94140625 C0.33901792 10.11126659 0.33901792 10.11126659 -1 9 C-0.91062197 7.47480724 -0.75462854 5.95318071 -0.5625 4.4375 C-0.46066406 3.61121094 -0.35882813 2.78492188 -0.25390625 1.93359375 C-0.17011719 1.29550781 -0.08632812 0.65742188 0 0 Z " fill="#3A3A3A" transform="translate(109,256)"/>
<path d="M0 0 C1.98 0 3.96 0 6 0 C6 0.33 6 0.66 6 1 C4.35 1 2.7 1 1 1 C1 12.88 1 24.76 1 37 C1.99 37 2.98 37 4 37 C4 27.76 4 18.52 4 9 C4.33 9 4.66 9 5 9 C5.83644299 13.12437582 6.66862838 17.24959918 7.5 21.375 C7.73847656 22.550625 7.97695312 23.72625 8.22265625 24.9375 C8.56103516 26.61972656 8.56103516 26.61972656 8.90625 28.3359375 C9.11572266 29.37282715 9.32519531 30.4097168 9.54101562 31.47802734 C10 34 10 34 10 36 C6.19956554 37.73734147 4.40285423 38 0 38 C0 25.46 0 12.92 0 0 Z " fill="#FAC0C0" transform="translate(167,204)"/>
<path d="M0 0 C2.19477763 -0.00218531 4.38905165 -0.02034232 6.58374023 -0.03930664 C7.97761872 -0.04224091 9.3714996 -0.04422548 10.76538086 -0.04516602 C12.03567139 -0.0492749 13.30596191 -0.05338379 14.61474609 -0.05761719 C17.76928711 0.18530273 17.76928711 0.18530273 20.76928711 2.18530273 C15.98241443 5.37655118 10.4875747 4.51856551 4.89038086 4.50097656 C2.77657661 4.49781364 0.66416864 4.52129286 -1.44946289 4.54663086 C-2.79321113 4.54890368 -4.13696312 4.54960743 -5.48071289 4.54858398 C-6.70274414 4.55156494 -7.92477539 4.5545459 -9.18383789 4.55761719 C-12.23071289 4.18530273 -12.23071289 4.18530273 -14.15258789 2.66259766 C-14.50836914 2.17509033 -14.86415039 1.68758301 -15.23071289 1.18530273 C-10.83778397 -1.01116173 -4.8848984 -0.00054659 0 0 Z " fill="#404040" transform="translate(177.230712890625,70.814697265625)"/>
<path d="M0 0 C1.65 0 3.3 0 5 0 C4.84152588 0.84256348 4.68305176 1.68512695 4.51977539 2.55322266 C3.98284099 6.11378621 3.79123921 9.55000344 3.68359375 13.1484375 C3.66281265 13.80582916 3.64203156 14.46322083 3.62062073 15.14053345 C3.55579247 17.21859362 3.49655436 19.29676856 3.4375 21.375 C3.39425112 22.79298011 3.35063491 24.21094907 3.30664062 25.62890625 C3.20018082 29.0858188 3.09873016 32.54285706 3 36 C2.01 36 1.02 36 0 36 C0 24.12 0 12.24 0 0 Z " fill="#F72626" transform="translate(168,205)"/>
<path d="M0 0 C1.65 0 3.3 0 5 0 C5 11.88 5 23.76 5 36 C4.01 36 3.02 36 2 36 C1.97494385 34.9805127 1.9498877 33.96102539 1.92407227 32.91064453 C1.83002996 29.13479646 1.72980163 25.35913373 1.62768555 21.58349609 C1.58432462 19.94812347 1.54265039 18.31270523 1.50268555 16.67724609 C1.44501088 14.32896159 1.38130871 11.98090696 1.31640625 9.6328125 C1.29969376 8.89942657 1.28298126 8.16604065 1.26576233 7.41043091 C1.21362038 3.57797692 1.21362038 3.57797692 0 0 Z " fill="#F82728" transform="translate(186,205)"/>
<path d="M0 0 C0.33 0 0.66 0 1 0 C1 2.64 1 5.28 1 8 C3.31 8 5.62 8 8 8 C8.33 7.01 8.66 6.02 9 5 C9 5.66 9 6.32 9 7 C9.66 7 10.32 7 11 7 C11.66 10.3 12.32 13.6 13 17 C11.68 17 10.36 17 9 17 C9 15.02 9 13.04 9 11 C6.03 11 3.06 11 0 11 C-0.33 12.98 -0.66 14.96 -1 17 C-1.99 17 -2.98 17 -4 17 C-3.88487847 15.27014758 -3.75744323 13.54111249 -3.625 11.8125 C-3.55539063 10.84957031 -3.48578125 9.88664062 -3.4140625 8.89453125 C-2.95867112 5.71108774 -2.35219998 2.35219998 0 0 Z " fill="#3A3A3A" transform="translate(146,271)"/>
<path d="M0 0 C3.41789999 1.98715115 4.60736674 4.27527687 6.4765625 7.6875 C7.7039892 9.86094883 7.7039892 9.86094883 10.6875 11.5625 C13.36754202 11.80297646 15.95304203 11.93523498 18.63671875 11.9765625 C19.40933548 11.99592865 20.18195221 12.0152948 20.97798157 12.0352478 C23.4435424 12.09498479 25.90915007 12.14140486 28.375 12.1875 C30.0475463 12.22568525 31.72007305 12.26473731 33.39257812 12.3046875 C37.49072647 12.40068133 41.58896688 12.48473377 45.6875 12.5625 C45.6875 12.8925 45.6875 13.2225 45.6875 13.5625 C44.81536865 13.58755615 43.9432373 13.6126123 43.04467773 13.63842773 C39.78122237 13.73407363 36.51791392 13.83327356 33.25463867 13.93481445 C31.84745443 13.97788658 30.44022718 14.01957864 29.03295898 14.05981445 C26.99970592 14.1181957 24.96666383 14.18168685 22.93359375 14.24609375 C21.71341553 14.28275146 20.4932373 14.31940918 19.23608398 14.35717773 C15.63204449 14.50011225 15.63204449 14.50011225 11.89868164 15.20727539 C8.6875 15.5625 8.6875 15.5625 6.0625 13.5625 C3.90455817 10.83667874 1.8413859 8.0927603 -0.1015625 5.2109375 C-1.37016941 3.48399519 -2.76387708 2.0395103 -4.3125 0.5625 C-2.3125 -0.4375 -2.3125 -0.4375 0 0 Z " fill="#2E2E2E" transform="translate(199.3125,73.4375)"/>
<path d="M0 0 C0.33 0 0.66 0 1 0 C2.65 8.25 4.3 16.5 6 25 C6.66 24.67 7.32 24.34 8 24 C7.625 26.4375 7.625 26.4375 7 29 C6.34 29.33 5.68 29.66 5 30 C4.34 30.99 3.68 31.98 3 33 C2.12656674 28.98310512 1.27974038 24.96104089 0.4375 20.9375 C0.19064453 19.80376953 -0.05621094 18.67003906 -0.31054688 17.50195312 C-1.51532943 11.68166559 -2.50798104 6.80943515 -1 1 C-0.67 0.67 -0.34 0.34 0 0 Z " fill="#F83738" transform="translate(173,205)"/>
<path d="M0 0 C0.66 0 1.32 0 2 0 C2 0.66 2 1.32 2 2 C4.31 2 6.62 2 9 2 C9 9.92 9 17.84 9 26 C6.71773687 22.5766053 5.67250814 19.14414826 4.5 15.25 C4.28730469 14.5590625 4.07460937 13.868125 3.85546875 13.15625 C2.516391 8.78576312 1.2435654 4.39853686 0 0 Z " fill="#FAF7F4" transform="translate(109,203)"/>
<path d="M0 0 C-0.3647227 2.60831992 -0.61646277 3.70417756 -2.7421875 5.34375 C-3.44601563 5.7253125 -4.14984375 6.106875 -4.875 6.5 C-8.04244191 8.33259139 -9.99355405 9.87886185 -12 13 C-12.99 13.495 -12.99 13.495 -14 14 C-14.33 25.55 -14.66 37.1 -15 49 C-15.33 49 -15.66 49 -16 49 C-16.12435639 44.01962213 -16.21469131 39.04016383 -16.2746582 34.05859375 C-16.2996766 32.36702719 -16.3337029 30.67556736 -16.37719727 28.984375 C-16.8068408 11.83907075 -16.8068408 11.83907075 -12.36108398 6.32226562 C-10.61729974 4.62821442 -8.99852413 3.19916657 -6.875 2 C-6.21242187 1.608125 -5.54984375 1.21625 -4.8671875 0.8125 C-3 0 -3 0 0 0 Z " fill="#686868" transform="translate(249,106)"/>
<path d="M0 0 C1.74587696 3.07909209 2.69232243 6.24060024 3.64941406 9.63623047 C5.69936606 16.85106152 7.93737003 22.32857275 13 28 C13.33 28.66 13.66 29.32 14 30 C12.68 30.33 11.36 30.66 10 31 C1.12167264 20.49195227 -0.52355634 13.8063746 0 0 Z " fill="#2A2A2A" transform="translate(147,132)"/>
<path d="M0 0 C1.85953078 3.25808543 2.53823806 6.24462525 3.125 9.9375 C3.29257813 10.95714844 3.46015625 11.97679687 3.6328125 13.02734375 C3.96614565 15.72592382 4.06998996 18.28538935 4 21 C1.36 21 -1.28 21 -4 21 C-3.86722656 20.14277344 -3.73445312 19.28554687 -3.59765625 18.40234375 C-3.33275391 16.68724609 -3.33275391 16.68724609 -3.0625 14.9375 C-2.87945312 13.75542969 -2.69640625 12.57335937 -2.5078125 11.35546875 C-2.12441451 8.82209283 -1.76771239 6.29050503 -1.4375 3.75 C-1 1 -1 1 0 0 Z " fill="#FAF5F3" transform="translate(205,210)"/>
<path d="M0 0 C0.66 0.33 1.32 0.66 2 1 C2.6328125 3.36328125 2.6328125 3.36328125 3.125 6.3125 C3.29257813 7.27800781 3.46015625 8.24351562 3.6328125 9.23828125 C4 12 4 12 4 16 C2.68 16 1.36 16 0 16 C0 13.69 0 11.38 0 9 C-2.97 9 -5.94 9 -9 9 C-9.33 10.98 -9.66 12.96 -10 15 C-10.99 15 -11.98 15 -13 15 C-12.38461538 8.47692308 -12.38461538 8.47692308 -10.4375 6.0625 C-9.7259375 5.5365625 -9.7259375 5.5365625 -9 5 C-9 5.66 -9 6.32 -9 7 C-6.36 7 -3.72 7 -1 7 C-0.67 4.69 -0.34 2.38 0 0 Z " fill="#252525" transform="translate(200,273)"/>
<path d="M0 0 C0.99 0 1.98 0 3 0 C3 10.23 3 20.46 3 31 C2.01 31 1.02 31 0 31 C0 20.77 0 10.54 0 0 Z " fill="#1C1C1C" transform="translate(163,257)"/>
<path d="M0 0 C1.98 0 3.96 0 6 0 C8 2 8 2 8.23046875 4.12890625 C8.20919922 5.33353516 8.20919922 5.33353516 8.1875 6.5625 C8.17783203 7.77099609 8.17783203 7.77099609 8.16796875 9.00390625 C8 11 8 11 7 12 C4.66702567 12.04092937 2.33294775 12.04241723 0 12 C0 8.04 0 4.08 0 0 Z " fill="#E7E7E7" transform="translate(211,273)"/>
<path d="M0 0 C0.99 0.66 1.98 1.32 3 2 C3.3984375 4.0234375 3.3984375 4.0234375 3.375 6.375 C3.38273438 7.14585937 3.39046875 7.91671875 3.3984375 8.7109375 C2.8868846 11.64985905 2.19486615 12.96618273 0 15 C-2.91796875 15.390625 -2.91796875 15.390625 -6.1875 15.25 C-7.27417969 15.21390625 -8.36085937 15.1778125 -9.48046875 15.140625 C-10.72763672 15.07101562 -10.72763672 15.07101562 -12 15 C-11.67 12.03 -11.34 9.06 -11 6 C-10.67 6 -10.34 6 -10 6 C-9.67 7.98 -9.34 9.96 -9 12 C-5.535 11.505 -5.535 11.505 -2 11 C-1.93941406 10.28972656 -1.87882813 9.57945312 -1.81640625 8.84765625 C-1.73261719 7.92855469 -1.64882812 7.00945312 -1.5625 6.0625 C-1.48128906 5.14597656 -1.40007812 4.22945313 -1.31640625 3.28515625 C-1 1 -1 1 0 0 Z " fill="#2A2A2A" transform="translate(220,273)"/>
<path d="M0 0 C1.65 0 3.3 0 5 0 C4.67 2.31 4.34 4.62 4 7 C3.34 7 2.68 7 2 7 C2 16.57 2 26.14 2 36 C1.34 36 0.68 36 0 36 C0 24.12 0 12.24 0 0 Z " fill="#F62627" transform="translate(105,205)"/>
<path d="M0 0 C0.99 0 1.98 0 3 0 C3.22506224 4.45765572 3.4272243 8.91605688 3.625 13.375 C3.68945312 14.64601562 3.75390625 15.91703125 3.8203125 17.2265625 C3.871875 18.43828125 3.9234375 19.65 3.9765625 20.8984375 C4.02893066 22.01911621 4.08129883 23.13979492 4.13525391 24.29443359 C4 27 4 27 2 29 C-0.32891212 25.50663182 -0.23551143 24.13992135 -0.1953125 20.01953125 C-0.18886719 18.85615234 -0.18242188 17.69277344 -0.17578125 16.49414062 C-0.15902344 15.27919922 -0.14226562 14.06425781 -0.125 12.8125 C-0.11597656 11.58595703 -0.10695313 10.35941406 -0.09765625 9.09570312 C-0.07406017 6.06360705 -0.04113841 3.03190062 0 0 Z " fill="#F72121" transform="translate(127,211)"/>
<path d="M0 0 C3.53006292 3.70804928 3.93594477 7.69587188 4.6875 12.5625 C4.81705078 13.33013672 4.94660156 14.09777344 5.08007812 14.88867188 C5.58552237 17.95610336 6 20.88657598 6 24 C4.68 24 3.36 24 2 24 C-0.90820671 16.33133589 -1.64173589 9.18213261 -1 1 C-0.67 0.67 -0.34 0.34 0 0 Z " fill="#313131" transform="translate(115,265)"/>
<path d="M0 0 C0.33 0 0.66 0 1 0 C1.01981934 0.79696289 1.03963867 1.59392578 1.06005859 2.41503906 C1.15533248 6.02702472 1.26500307 9.63843399 1.375 13.25 C1.4059375 14.50425781 1.436875 15.75851563 1.46875 17.05078125 C1.50742188 18.25605469 1.54609375 19.46132812 1.5859375 20.703125 C1.6173584 21.81333008 1.6487793 22.92353516 1.68115234 24.06738281 C1.98789356 26.88865042 2.54286225 28.5970009 4 31 C2.35 30.67 0.7 30.34 -1 30 C-0.67 31.32 -0.34 32.64 0 34 C-2.97 33.67 -5.94 33.34 -9 33 C-9.33 33.66 -9.66 34.32 -10 35 C-10.33 33.35 -10.66 31.7 -11 30 C-10.67 30 -10.34 30 -10 30 C-9.67 28.35 -9.34 26.7 -9 25 C-8.67 25 -8.34 25 -8 25 C-8 27.31 -8 29.62 -8 32 C-6.35 32 -4.7 32 -3 32 C-3.33 30.02 -3.66 28.04 -4 26 C-3.01 25.34 -2.02 24.68 -1 24 C-0.49039309 21.48614741 -0.49039309 21.48614741 -0.48828125 18.5546875 C-0.45283203 17.47832031 -0.41738281 16.40195313 -0.38085938 15.29296875 C-0.35830078 14.16503906 -0.33574219 13.03710938 -0.3125 11.875 C-0.27833984 10.73933594 -0.24417969 9.60367188 -0.20898438 8.43359375 C-0.12630498 5.62249421 -0.05722063 2.81171447 0 0 Z " fill="#F9D0CC" transform="translate(219,210)"/>
<path d="M0 0 C1.32 0.66 2.64 1.32 4 2 C3.2575 2.515625 2.515 3.03125 1.75 3.5625 C-0.67903826 5.71551119 -1.58022745 6.81605475 -3 9.5625 C-5.10999981 13.18906218 -6.04894723 14.65305019 -10 16 C-12.83740667 15.63013321 -15.25339475 14.88449999 -18 14 C-18 13.67 -18 13.34 -18 13 C-16.741875 12.731875 -15.48375 12.46375 -14.1875 12.1875 C-9.17615359 10.91044336 -7.82797939 9.26784344 -5 4.9375 C-3 2 -3 2 0 0 Z " fill="#2C2C2C" transform="translate(161,73)"/>
<path d="M0 0 C1.65 0 3.3 0 5 0 C6.30765478 3.92296433 6.1971417 6.86002433 6 11 C5.34 11.66 4.68 12.32 4 13 C3.34 11.02 2.68 9.04 2 7 C1.34 9.31 0.68 11.62 0 14 C-0.66 13.67 -1.32 13.34 -2 13 C-2.16682272 8.07872966 -2.24828052 4.49656104 0 0 Z " fill="#242424" transform="translate(193,256)"/>
<path d="M0 0 C0.33 0 0.66 0 1 0 C1 8.58 1 17.16 1 26 C-0.32 26 -1.64 26 -3 26 C-4.53232086 20.19838265 -3.32230627 15.34101423 -2.0625 9.625 C-1.76956055 8.23474609 -1.76956055 8.23474609 -1.47070312 6.81640625 C-0.9900388 4.54204336 -0.49958628 2.27026779 0 0 Z " fill="#FCF4F2" transform="translate(186,216)"/>
<path d="M0 0 C1.37344385 4.39844322 0.24307502 7.92504555 -0.9375 12.25 C-1.13279297 12.99507812 -1.32808594 13.74015625 -1.52929688 14.5078125 C-2.01104198 16.34079386 -2.50439225 18.17071818 -3 20 C-5.2233881 17.7766119 -5.3605016 17.07694479 -5.8515625 14.0859375 C-5.98046875 13.32539063 -6.109375 12.56484375 -6.2421875 11.78125 C-6.36851562 10.9871875 -6.49484375 10.193125 -6.625 9.375 C-6.82609375 8.17230469 -6.82609375 8.17230469 -7.03125 6.9453125 C-7.36134789 4.96472516 -7.68161083 2.98250325 -8 1 C-7.01 1.495 -7.01 1.495 -6 2 C-6 2.66 -6 3.32 -6 4 C-4.35 4 -2.7 4 -1 4 C-0.67 2.68 -0.34 1.36 0 0 Z " fill="#FCDFE0" transform="translate(183,212)"/>
<path d="M0 0 C4.25561318 -0.5158319 6.46465626 0.75817704 10.0234375 2.984375 C12.95164847 4.48898933 15.95232954 4.97174287 19.1796875 5.5078125 C19.78039062 5.67023438 20.38109375 5.83265625 21 6 C21.33 6.66 21.66 7.32 22 8 C14.41340462 9.77020559 10.25106595 8.20131209 3.40625 4.640625 C1 3 1 3 0 0 Z " fill="#333333" transform="translate(158,162)"/>
<path d="M0 0 C7.26 0 14.52 0 22 0 C22.33 0.99 22.66 1.98 23 3 C15.08 3 7.16 3 -1 3 C-0.67 2.01 -0.34 1.02 0 0 Z " fill="#262626" transform="translate(169,86)"/>
<path d="M0 0 C2.05137315 3.48216283 2.56818592 6.77275657 3.125 10.75 C3.29257813 11.92046875 3.46015625 13.0909375 3.6328125 14.296875 C3.75398437 15.18890625 3.87515625 16.0809375 4 17 C1.69 17 -0.62 17 -3 17 C-2.54775239 11.08507728 -1.8417395 5.64800112 0 0 Z " fill="#E7E7E7" transform="translate(150,262)"/>
<path d="M0 0 C0.66 0 1.32 0 2 0 C3.38529821 5.45461169 4.2396943 10.36718401 4 16 C2.02 16 0.04 16 -2 16 C-2.2396943 10.36718401 -1.38529821 5.45461169 0 0 Z " fill="#E6E6E6" transform="translate(111,263)"/>
<path d="M0 0 C2.15059309 3.53186832 2.3797728 6.66287993 2.625 10.75 C2.69976562 11.92046875 2.77453125 13.0909375 2.8515625 14.296875 C2.90054688 15.18890625 2.94953125 16.0809375 3 17 C1.02 17 -0.96 17 -3 17 C-2.69268013 14.35346869 -2.37940678 11.707885 -2.0625 9.0625 C-1.97548828 8.30775391 -1.88847656 7.55300781 -1.79882812 6.77539062 C-1.11328125 1.11328125 -1.11328125 1.11328125 0 0 Z " fill="#E9E9E9" transform="translate(195,262)"/>
<path d="M0 0 C0.33 0.66 0.66 1.32 1 2 C3.64 2 6.28 2 9 2 C7.7934375 2.9590625 7.7934375 2.9590625 6.5625 3.9375 C4.7249496 5.40603502 4.7249496 5.40603502 3 7 C2.8415735 9.0708472 2.74875578 11.14678029 2.68359375 13.22265625 C2.64169922 14.48271484 2.59980469 15.74277344 2.55664062 17.04101562 C2.51682404 18.38150736 2.47711186 19.7220022 2.4375 21.0625 C2.39431958 22.40691523 2.35070544 23.7513166 2.30664062 25.09570312 C2.20014642 28.3970234 2.0981354 31.69842236 2 35 C1.67 35 1.34 35 1 35 C0.67 25.43 0.34 15.86 0 6 C-0.66 6 -1.32 6 -2 6 C-2.33 5.01 -2.66 4.02 -3 3 C-2.01 3 -1.02 3 0 3 C0 2.01 0 1.02 0 0 Z " fill="#FBE4E4" transform="translate(125,201)"/>
<path d="M0 0 C2.97 0 5.94 0 9 0 C9 1.32 9 2.64 9 4 C6.03 4 3.06 4 0 4 C0 8.29 0 12.58 0 17 C-0.99 16.34 -1.98 15.68 -3 15 C-3.29296875 11.7421875 -3.29296875 11.7421875 -3.1875 7.875 C-3.16042969 6.59367188 -3.13335937 5.31234375 -3.10546875 3.9921875 C-3.07066406 3.00476563 -3.03585938 2.01734375 -3 1 C-2.01 1.33 -1.02 1.66 0 2 C0 1.34 0 0.68 0 0 Z " fill="#F85E5F" transform="translate(246,221)"/>
<path d="M0 0 C1.98 0 3.96 0 6 0 C5.01 1.485 5.01 1.485 4 3 C3.34 3 2.68 3 2 3 C2.16298584 3.68408936 2.32597168 4.36817871 2.49389648 5.07299805 C3.06590995 8.38118397 3.11244643 11.47465976 3.09765625 14.83203125 C3.09443359 16.12431641 3.09121094 17.41660156 3.08789062 18.74804688 C3.07953665 20.10286526 3.07107172 21.45768297 3.0625 22.8125 C3.05748 24.18684735 3.05291797 25.56119645 3.04882812 26.93554688 C3.03705668 30.29040924 3.02061283 33.64518221 3 37 C3.99 37.33 4.98 37.66 6 38 C4.68 38 3.36 38 2 38 C1.98018066 37.23333008 1.96036133 36.46666016 1.93994141 35.67675781 C1.84464554 32.20082781 1.73498402 28.72549494 1.625 25.25 C1.57859375 23.44015625 1.57859375 23.44015625 1.53125 21.59375 C1.49257812 20.43359375 1.45390625 19.2734375 1.4140625 18.078125 C1.3826416 17.00981445 1.3512207 15.94150391 1.31884766 14.84082031 C1.00502746 12.04479287 0.34509769 10.42549744 -1 8 C-0.96986729 5.24787881 -0.45482541 2.72895247 0 0 Z " fill="#F75254" transform="translate(185,204)"/>
<path d="M0 0 C1.29847256 1.94770884 2.55193845 3.92646812 3.75 5.9375 C6.19142525 9.26055104 8.48150779 10.90387698 12 13 C12.99 13.66 13.98 14.32 15 15 C13.25 16.125 13.25 16.125 11 17 C6.64391484 15.50259573 3.41785757 12.47900746 0.4375 9.0625 C-1.2442909 5.47955417 -1.07186675 3.75153361 0 0 Z " fill="#2C2C2C" transform="translate(159,144)"/>
<path d="M0 0 C0.99 0.33 1.98 0.66 3 1 C3 6.61 3 12.22 3 18 C2.34 18.33 1.68 18.66 1 19 C-1.08603004 15.57825111 -1.24161837 12.9078202 -1.1875 8.9375 C-1.18105469 7.89464844 -1.17460937 6.85179687 -1.16796875 5.77734375 C-1 3 -1 3 0 0 Z " fill="#333333" transform="translate(156,129)"/>
<path d="M0 0 C4.23881455 -0.41557005 6.27921286 -0.56065554 9.70776367 2.10620117 C12.48091956 5.60712957 12.5889569 7.20368758 12.48828125 11.61328125 C12.47216797 12.86044922 12.45605469 14.10761719 12.43945312 15.39257812 C12.39755859 16.68615234 12.35566406 17.97972656 12.3125 19.3125 C12.27866211 21.28186523 12.27866211 21.28186523 12.24414062 23.29101562 C12.18527725 26.5285013 12.10308804 29.76367 12 33 C11.67 33 11.34 33 11 33 C11 26.07 11 19.14 11 12 C10.34 12 9.68 12 9 12 C9 9.03 9 6.06 9 3 C4.545 2.01 4.545 2.01 0 1 C0 0.67 0 0.34 0 0 Z " fill="#F94A4D" transform="translate(132,204)"/>
<path d="M0 0 C1.32 0 2.64 0 4 0 C3.68798326 2.04174058 3.37536431 4.08338913 3.0625 6.125 C2.88847656 7.26195312 2.71445313 8.39890625 2.53515625 9.5703125 C2.04410734 12.71732669 1.52981281 15.85930783 1 19 C-0.515625 17.8359375 -0.515625 17.8359375 -2 16 C-2.109375 13.4765625 -2.109375 13.4765625 -1.75 10.625 C-1.64171875 9.68914062 -1.5334375 8.75328125 -1.421875 7.7890625 C-1.02593199 5.17143928 -0.54626394 2.59004456 0 0 Z " fill="#3E3E3E" transform="translate(136,256)"/>
<path d="M0 0 C1.1875 1.6875 1.1875 1.6875 2 4 C0.25553453 8.10462464 -2.29213063 10.58557344 -6 13 C-9.3125 13.75 -9.3125 13.75 -12 14 C-12 13.01 -12 12.02 -12 11 C-10.390625 9.82421875 -10.390625 9.82421875 -8.25 8.6875 C-4.16600056 6.31240813 -2.28649298 4.09663325 0 0 Z " fill="#2D2D2D" transform="translate(123,155)"/>
<path d="M0 0 C-0.33 0.66 -0.66 1.32 -1 2 C-3.546875 2.5625 -3.546875 2.5625 -6.75 3 C-10.83113823 3.56291562 -14.19366969 4.45635825 -18 6 C-20.3125 5.625 -20.3125 5.625 -22 5 C-22 4.34 -22 3.68 -22 3 C-15.08715353 -1.04654428 -7.74175497 -0.26901851 0 0 Z " fill="#343434" transform="translate(185,105)"/>
<path d="M0 0 C1.98 0 3.96 0 6 0 C6.02689216 1.47906892 6.04634621 2.95827483 6.0625 4.4375 C6.07410156 5.26121094 6.08570313 6.08492188 6.09765625 6.93359375 C6 9 6 9 5 10 C3.35 10 1.7 10 0 10 C0 6.7 0 3.4 0 0 Z " fill="#F6F6F6" transform="translate(212,260)"/>
<path d="M0 0 C2.58548628 2.58548628 2.97641847 4.29538385 3.09765625 7.91796875 C3.08605469 8.99691406 3.07445312 10.07585937 3.0625 11.1875 C3.05347656 12.27417969 3.04445312 13.36085937 3.03515625 14.48046875 C3.02355469 15.31191406 3.01195312 16.14335937 3 17 C2.34 17 1.68 17 1 17 C1 16.34 1 15.68 1 15 C0.34 15 -0.32 15 -1 15 C-1.33 10.38 -1.66 5.76 -2 1 C-1.34 0.67 -0.68 0.34 0 0 Z " fill="#353535" transform="translate(202,127)"/>
<path d="M0 0 C0.495 0.70125 0.99 1.4025 1.5 2.125 C4.19689202 5.22642582 7.02853209 7.34272566 10.390625 9.66796875 C10.92171875 10.10753906 11.4528125 10.54710937 12 11 C12 11.66 12 12.32 12 13 C6.78016506 12.74537391 4.19348103 10.88742925 0.41796875 7.5703125 C-1 6 -1 6 -2 3 C-1.34 2.01 -0.68 1.02 0 0 Z " fill="#292929" transform="translate(237,156)"/>
<path d="M0 0 C3.3 0 6.6 0 10 0 C10.33 1.65 10.66 3.3 11 5 C7.04 5 3.08 5 -1 5 C-0.67 3.35 -0.34 1.7 0 0 Z " fill="#F5F5F5" transform="translate(128,81)"/>
<path d="M0 0 C0.66 1.32 1.32 2.64 2 4 C1.01 4.66 0.02 5.32 -1 6 C-1.33 6.66 -1.66 7.32 -2 8 C-8.0546875 8.1953125 -8.0546875 8.1953125 -10 8 C-10.66 7.34 -11.32 6.68 -12 6 C-11.67 5.01 -11.34 4.02 -11 3 C-10.37351563 2.95101562 -9.74703125 2.90203125 -9.1015625 2.8515625 C-8.28429687 2.77679688 -7.46703125 2.70203125 -6.625 2.625 C-5.81289062 2.55539063 -5.00078125 2.48578125 -4.1640625 2.4140625 C-1.79665809 2.17107412 -1.79665809 2.17107412 0 0 Z " fill="#FBF6F4" transform="translate(234,239)"/>
<path d="M0 0 C2.31 0 4.62 0 7 0 C7 4.29 7 8.58 7 13 C6.01 12.67 5.02 12.34 4 12 C4 9.03 4 6.06 4 3 C2.68 3 1.36 3 0 3 C0 2.01 0 1.02 0 0 Z " fill="#F6252B" transform="translate(229,222)"/>
<path d="M0 0 C0 3.96 0 7.92 0 12 C-0.99 11.67 -1.98 11.34 -3 11 C-3.99 11.495 -3.99 11.495 -5 12 C-5.36666667 4.66666667 -5.36666667 4.66666667 -3.625 1.5 C-2 0 -2 0 0 0 Z " fill="#FAFEF9" transform="translate(241,205)"/>
<path d="M0 0 C0.99 0.33 1.98 0.66 3 1 C2.84152588 1.54366211 2.68305176 2.08732422 2.51977539 2.64746094 C1.92399019 5.34402563 1.78635695 7.88069895 1.68359375 10.640625 C1.64169922 11.71054688 1.59980469 12.78046875 1.55664062 13.8828125 C1.51732422 14.99398437 1.47800781 16.10515625 1.4375 17.25 C1.39431641 18.37664062 1.35113281 19.50328125 1.30664062 20.6640625 C1.20067985 23.44258954 1.09860858 26.22120391 1 29 C0.67 29 0.34 29 0 29 C0 21.41 0 13.82 0 6 C-0.99 6 -1.98 6 -3 6 C-2.42655063 3.13275314 -2.1385485 2.1385485 0 0 Z " fill="#F84447" transform="translate(130,205)"/>
<path d="M0 0 C1.32 0 2.64 0 4 0 C2.69139043 3.92582871 1.25150787 6.3987937 -2 9 C-4.75 9.75 -4.75 9.75 -7 10 C-7.66 9.01 -8.32 8.02 -9 7 C-8.071875 6.5875 -7.14375 6.175 -6.1875 5.75 C-2.96328492 4.2679285 -2.96328492 4.2679285 -1.375 1.8125 C-0.92125 1.214375 -0.4675 0.61625 0 0 Z " fill="#2F2F2F" transform="translate(252,179)"/>
<path d="M0 0 C1.625 1.5625 1.625 1.5625 3 4 C2.25 7.25 2.25 7.25 1 11 C0.56154988 13.66335124 0.28275878 16.31379163 0 19 C-2.3010761 15.31827824 -3.09574123 11.30037674 -3 7 C-2.24815468 4.44083421 -1.24159926 2.38387058 0 0 Z " fill="#383838" transform="translate(150,121)"/>
<path d="M0 0 C0.33 0 0.66 0 1 0 C1.66 4.29 2.32 8.58 3 13 C1.35 13 -0.3 13 -2 13 C-2.33 9.7 -2.66 6.4 -3 3 C-2.01 2.67 -1.02 2.34 0 2 C0 1.34 0 0.68 0 0 Z " fill="#F53334" transform="translate(213,229)"/>
<path d="M0 0 C4.455 0.99 4.455 0.99 9 2 C9 11.24 9 20.48 9 30 C8.67 30 8.34 30 8 30 C7.97494385 29.28344238 7.9498877 28.56688477 7.92407227 27.82861328 C7.80830249 24.59388486 7.68549031 21.35946159 7.5625 18.125 C7.52318359 16.99707031 7.48386719 15.86914062 7.44335938 14.70703125 C7.40146484 13.63066406 7.35957031 12.55429688 7.31640625 11.4453125 C7.27974854 10.45031738 7.24309082 9.45532227 7.20532227 8.43017578 C7.15040468 5.99220499 7.15040468 5.99220499 6 4 C2.97065509 3.34227572 2.97065509 3.34227572 0 3 C0 2.01 0 1.02 0 0 Z " fill="#F71D24" transform="translate(132,205)"/>
<path d="M0 0 C1.32 0 2.64 0 4 0 C6 2.3125 6 2.3125 8 5 C8.7425 5.556875 9.485 6.11375 10.25 6.6875 C10.8275 7.120625 11.405 7.55375 12 8 C12 8.66 12 9.32 12 10 C8.80961017 9.92403834 6.68285912 9.61211245 4.265625 7.4453125 C0 2.55 0 2.55 0 0 Z " fill="#2E2E2E" transform="translate(104,179)"/>
<path d="M0 0 C4.94881287 0.44989208 8.36347798 2.77586708 12 6 C13.4375 8.3125 13.4375 8.3125 14 10 C13.34 10.66 12.68 11.32 12 12 C11.60167969 11.39671875 11.20335938 10.7934375 10.79296875 10.171875 C8.80946372 7.76919789 7.06024961 6.68360849 4.3125 5.25 C3.50425781 4.82203125 2.69601563 4.3940625 1.86328125 3.953125 C1.24839844 3.63859375 0.63351563 3.3240625 0 3 C0 2.01 0 1.02 0 0 Z " fill="#2B2B2B" transform="translate(111,106)"/>
<path d="M0 0 C3.63 0 7.26 0 11 0 C11 0.33 11 0.66 11 1 C7.7 1 4.4 1 1 1 C1 4.63 1 8.26 1 12 C2.65 11.67 4.3 11.34 6 11 C5.34 10.34 4.68 9.68 4 9 C6.31 9 8.62 9 11 9 C10.67 10.32 10.34 11.64 10 13 C6.7 13 3.4 13 0 13 C0 8.71 0 4.42 0 0 Z " fill="#FACECD" transform="translate(245,208)"/>
<path d="M0 0 C0.33 0.66 0.66 1.32 1 2 C2.093125 1.773125 3.18625 1.54625 4.3125 1.3125 C8 1 8 1 9.9375 2.4375 C10.288125 2.953125 10.63875 3.46875 11 4 C7.91111478 6.05925681 7.29064073 6.2390374 3.8125 6.125 C1.9253125 6.063125 1.9253125 6.063125 0 6 C-1.125 2.25 -1.125 2.25 0 0 Z " fill="#F6393D" transform="translate(131,236)"/>
<path d="M0 0 C1.32 0.66 2.64 1.32 4 2 C4 4.97 4 7.94 4 11 C2.68 11 1.36 11 0 11 C-1 4.375 -1 4.375 -1 1 C-0.67 0.67 -0.34 0.34 0 0 Z " fill="#F63D3D" transform="translate(232,206)"/>
<path d="M0 0 C0.33 0.99 0.66 1.98 1 3 C2.32 3 3.64 3 5 3 C5.07347656 3.95712891 5.07347656 3.95712891 5.1484375 4.93359375 C5.22320312 5.75988281 5.29796875 6.58617187 5.375 7.4375 C5.44460937 8.26121094 5.51421875 9.08492187 5.5859375 9.93359375 C5.72257813 10.61550781 5.85921875 11.29742187 6 12 C6.66 12.33 7.32 12.66 8 13 C6.25 17.875 6.25 17.875 4 19 C1.98072489 18.39421747 -0.02253397 17.73080266 -2 17 C-2 16.67 -2 16.34 -2 16 C-0.35 15.67 1.3 15.34 3 15 C3.33 11.37 3.66 7.74 4 4 C2.68 4 1.36 4 0 4 C0 2.68 0 1.36 0 0 Z " fill="#F85054" transform="translate(228,222)"/>
<path d="M0 0 C0.33 0 0.66 0 1 0 C1.02699725 2.27076842 1.04639453 4.54162821 1.0625 6.8125 C1.07410156 8.07707031 1.08570313 9.34164062 1.09765625 10.64453125 C1 14 1 14 0 17 C-0.99 17 -1.98 17 -3 17 C-1.32994924 1.32994924 -1.32994924 1.32994924 0 0 Z " fill="#222222" transform="translate(212,132)"/>
<path d="M0 0 C1.33804688 0.04060547 1.33804688 0.04060547 2.703125 0.08203125 C3.37859375 0.11683594 4.0540625 0.15164062 4.75 0.1875 C4.09 0.8475 3.43 1.5075 2.75 2.1875 C3.08 2.8475 3.41 3.5075 3.75 4.1875 C3.12351563 4.21328125 2.49703125 4.2390625 1.8515625 4.265625 C1.03429687 4.32234375 0.21703125 4.3790625 -0.625 4.4375 C-1.43710938 4.48390625 -2.24921875 4.5303125 -3.0859375 4.578125 C-5.43838927 4.9797092 -5.43838927 4.9797092 -6.5390625 7.234375 C-6.77367188 7.87890625 -7.00828125 8.5234375 -7.25 9.1875 C-7.91 7.2075 -8.57 5.2275 -9.25 3.1875 C-6.10408067 0.38704377 -4.182936 -0.16511589 0 0 Z " fill="#494949" transform="translate(133.25,76.8125)"/>
<path d="M0 0 C3.3 0 6.6 0 10 0 C10 0.66 10 1.32 10 2 C10.66 2.33 11.32 2.66 12 3 C11 4 11 4 9.0390625 4.1328125 C8.24242187 4.13023437 7.44578125 4.12765625 6.625 4.125 C5.83351562 4.12757813 5.04203125 4.13015625 4.2265625 4.1328125 C2 4 2 4 -1 3 C-0.67 2.01 -0.34 1.02 0 0 Z " fill="#3A3A3A" transform="translate(173,159)"/>
<path d="M0 0 C0.33 0 0.66 0 1 0 C1.33776684 1.7491497 1.67003671 3.49936145 2 5.25 C2.185625 6.22453125 2.37125 7.1990625 2.5625 8.203125 C3 11 3 11 3 15 C1.68 14.67 0.36 14.34 -1 14 C-1.93402724 8.58264203 -2.20808081 5.19548425 0 0 Z " fill="#414141" transform="translate(154,263)"/>
<path d="M0 0 C0.33 0 0.66 0 1 0 C1 6.6 1 13.2 1 20 C1.66 20 2.32 20 3 20 C2.67 21.98 2.34 23.96 2 26 C0.50463867 24.83276367 0.50463867 24.83276367 -1 23 C-1.2487793 20.5480957 -1.2487793 20.5480957 -1.07421875 17.67578125 C-1.01943359 16.64775391 -0.96464844 15.61972656 -0.90820312 14.56054688 C-0.83537109 13.48869141 -0.76253906 12.41683594 -0.6875 11.3125 C-0.62626953 10.22904297 -0.56503906 9.14558594 -0.50195312 8.02929688 C-0.3486115 5.35171622 -0.18075343 2.67584718 0 0 Z " fill="#F92D2D" transform="translate(128,214)"/>
<path d="M0 0 C1.79133978 -0.05391993 3.58313899 -0.09275571 5.375 -0.125 C6.37273437 -0.14820312 7.37046875 -0.17140625 8.3984375 -0.1953125 C11 0 11 0 13 2 C10.16730334 3.41634833 7.52533562 3.3463005 4.375 3.5625 C3.18648437 3.64628906 1.99796875 3.73007813 0.7734375 3.81640625 C-0.14179688 3.87699219 -1.05703125 3.93757813 -2 4 C-1.34 2.68 -0.68 1.36 0 0 Z " fill="#252525" transform="translate(174,113)"/>
<path d="M0 0 C3.81287042 1.44626119 5.32707177 3.30194812 7 7 C6.6875 9.3125 6.6875 9.3125 6 11 C5.34 11 4.68 11 4 11 C3.773125 10.05125 3.54625 9.1025 3.3125 8.125 C2.30916286 4.80676612 2.30916286 4.80676612 -0.625 3.625 C-1.40875 3.41875 -2.1925 3.2125 -3 3 C-2.01 2.01 -1.02 1.02 0 0 Z " fill="#313131" transform="translate(249,88)"/>
<path d="M0 0 C3.96 0 7.92 0 12 0 C12 0.66 12 1.32 12 2 C7.545 2.495 7.545 2.495 3 3 C2.67 4.98 2.34 6.96 2 9 C1.34 9 0.68 9 0 9 C0 6.03 0 3.06 0 0 Z " fill="#191919" transform="translate(244,257)"/>
<path d="M0 0 C0.66 0.99 1.32 1.98 2 3 C1.24074219 3.12117187 0.48148438 3.24234375 -0.30078125 3.3671875 C-1.79158203 3.61855469 -1.79158203 3.61855469 -3.3125 3.875 C-4.29863281 4.03742188 -5.28476563 4.19984375 -6.30078125 4.3671875 C-9.20059827 4.88085454 -9.20059827 4.88085454 -12 7 C-12 3 -12 3 -10.5 1.25 C-6.76547034 -0.61726483 -4.15926502 -0.40250952 0 0 Z " fill="#F8F3EE" transform="translate(232,201)"/>
<path d="M0 0 C2.08304538 -0.05418326 4.16649768 -0.09287551 6.25 -0.125 C7.99023438 -0.15980469 7.99023438 -0.15980469 9.765625 -0.1953125 C12.82786046 -0.0103949 14.44202751 0.39176977 17 2 C16.67 2.66 16.34 3.32 16 4 C11.38 4 6.76 4 2 4 C2 3.67 2 3.34 2 3 C6.455 2.505 6.455 2.505 11 2 C7.37 1.67 3.74 1.34 0 1 C0 0.67 0 0.34 0 0 Z " fill="#4F4F4F" transform="translate(173,104)"/>
<path d="M0 0 C1.65 0 3.3 0 5 0 C6.30765478 3.92296433 6.1971417 6.86002433 6 11 C5.34 11.66 4.68 12.32 4 13 C3.80508548 11.54263913 3.61930642 10.08405407 3.4375 8.625 C3.33308594 7.81289063 3.22867188 7.00078125 3.12109375 6.1640625 C3 4 3 4 4 2 C2.68 2.33 1.36 2.66 0 3 C0 2.01 0 1.02 0 0 Z " fill="#282828" transform="translate(148,256)"/>
<path d="M0 0 C0.33 0.66 0.66 1.32 1 2 C1.99 2.33 2.98 2.66 4 3 C4.25 10.625 4.25 10.625 2 14 C0.66416101 9.15758367 -0.25328119 5.06562383 0 0 Z " fill="#FAEFEE" transform="translate(177,218)"/>
<path d="M0 0 C1.65 0.33 3.3 0.66 5 1 C3.515 2.485 3.515 2.485 2 4 C2.9590625 4.2165625 2.9590625 4.2165625 3.9375 4.4375 C6 5 6 5 7 6 C7.04080783 7.99958364 7.04254356 10.00045254 7 12 C5 11 5 11 4.125 9.1875 C2.80034915 6.61179002 1.10584139 4.96545196 -1 3 C-0.67 2.01 -0.34 1.02 0 0 Z " fill="#F7EEEA" transform="translate(184,136)"/>
<path d="M0 0 C0.38063221 2.3260857 0.71269945 4.66055264 1 7 C0.67 7.33 0.34 7.66 0 8 C-0.36760731 10.32817964 -0.70241581 12.6618385 -1 15 C-1.33 15 -1.66 15 -2 15 C-2.66 10.38 -3.32 5.76 -4 1 C-2 0 -2 0 0 0 Z " fill="#3B3B3B" transform="translate(212,125)"/>
<path d="M0 0 C0.33 0 0.66 0 1 0 C1 2.64 1 5.28 1 8 C2.65 8.33 4.3 8.66 6 9 C6 9.33 6 9.66 6 10 C3.36 10 0.72 10 -2 10 C-2.1953125 3.9453125 -2.1953125 3.9453125 -2 2 C-1.34 1.34 -0.68 0.68 0 0 Z " fill="#252525" transform="translate(146,271)"/>
<path d="M0 0 C1.2065625 0.0309375 1.2065625 0.0309375 2.4375 0.0625 C2.7675 2.3725 3.0975 4.6825 3.4375 7.0625 C2.4475 7.5575 2.4475 7.5575 1.4375 8.0625 C1.4375 6.0825 1.4375 4.1025 1.4375 2.0625 C0.4475 2.5575 0.4475 2.5575 -0.5625 3.0625 C-0.8925 4.0525 -1.2225 5.0425 -1.5625 6.0625 C-2.2225 6.0625 -2.8825 6.0625 -3.5625 6.0625 C-3.8925 7.0525 -4.2225 8.0425 -4.5625 9.0625 C-3.56521739 0.08695652 -3.56521739 0.08695652 0 0 Z " fill="#3C3C3C" transform="translate(195.5625,255.9375)"/>
<path d="M0 0 C0.33 0 0.66 0 1 0 C1.33 1.98 1.66 3.96 2 6 C2.66 5.67 3.32 5.34 4 5 C3.625 7.4375 3.625 7.4375 3 10 C2.01 10.495 2.01 10.495 1 11 C0.34 11.99 -0.32 12.98 -1 14 C-1.93402724 8.58264203 -2.20808081 5.19548425 0 0 Z " fill="#F64141" transform="translate(177,224)"/>
<path d="M0 0 C0.33 0 0.66 0 1 0 C1.85330338 5.83475015 2.48351814 10.44860651 0 16 C-0.33 16 -0.66 16 -1 16 C-1.85330338 10.16524985 -2.48351814 5.55139349 0 0 Z " fill="#393939" transform="translate(128,267)"/>
<path d="M0 0 C2.09350689 3.4019487 2.17942163 6.05272412 2 10 C1.34 10 0.68 10 0 10 C-0.33 11.32 -0.66 12.64 -1 14 C-2.01522809 9.37507206 -1.9109468 5.64582868 -1 1 C-0.67 0.67 -0.34 0.34 0 0 Z " fill="#FBD5D4" transform="translate(205,210)"/>
<path d="M0 0 C1.79133978 -0.05391993 3.58313899 -0.09275571 5.375 -0.125 C6.37273437 -0.14820312 7.37046875 -0.17140625 8.3984375 -0.1953125 C11 0 11 0 13 2 C13.125 4.625 13.125 4.625 13 7 C12.01 7.495 12.01 7.495 11 8 C10.525625 7.195625 10.05125 6.39125 9.5625 5.5625 C8.23099846 3.15246512 8.23099846 3.15246512 7 2 C4.67182036 1.63239269 2.3381615 1.29758419 0 1 C0 0.67 0 0.34 0 0 Z " fill="#232323" transform="translate(129,78)"/>
<path d="M0 0 C0.33 0 0.66 0 1 0 C1.1953125 1.98567708 1.390625 3.97135417 1.5859375 5.95703125 C1.92665391 8.29988142 1.92665391 8.29988142 4 11 C3.01 12.98 2.02 14.96 1 17 C0.34 17 -0.32 17 -1 17 C-0.67 11.39 -0.34 5.78 0 0 Z " fill="#FBD8D9" transform="translate(236,222)"/>
<path d="M0 0 C0.66 0 1.32 0 2 0 C2.75 1.5625 2.75 1.5625 3 4 C1.86915563 6.50286409 0.47860484 8.67007722 -1 11 C-2.1875 9.4375 -2.1875 9.4375 -3 7 C-1.625 3.25 -1.625 3.25 0 0 Z " fill="#282828" transform="translate(201,142)"/>
<path d="M0 0 C1.73602074 3.05938081 2.39557633 5.63288438 2.75 9.125 C2.84796875 9.99382812 2.9459375 10.86265625 3.046875 11.7578125 C3 14 3 14 1 16 C-0.50156874 12.99686252 -0.09281204 10.20932478 -0.0625 6.875 C-0.05347656 5.59367188 -0.04445312 4.31234375 -0.03515625 2.9921875 C-0.02355469 2.00476563 -0.01195312 1.01734375 0 0 Z " fill="#1E1E1E" transform="translate(147,132)"/>
<path d="M0 0 C1.485 0.99 1.485 0.99 3 2 C3.29296875 4.1640625 3.29296875 4.1640625 3.1875 6.625 C3.16042969 7.44226563 3.13335937 8.25953125 3.10546875 9.1015625 C3.07066406 9.72804688 3.03585938 10.35453125 3 11 C2.01 10.67 1.02 10.34 0 10 C-0.19412181 8.52168779 -0.38012131 7.04230684 -0.5625 5.5625 C-0.66691406 4.73878906 -0.77132812 3.91507812 -0.87890625 3.06640625 C-0.91886719 2.38449219 -0.95882812 1.70257813 -1 1 C-0.67 0.67 -0.34 0.34 0 0 Z " fill="#373737" transform="translate(220,273)"/>
<path d="M0 0 C0.66 0.33 1.32 0.66 2 1 C2 5.29 2 9.58 2 14 C1.01 13.34 0.02 12.68 -1 12 C-1.328125 9.43359375 -1.328125 9.43359375 -1.25 6.4375 C-1.23453125 5.44621094 -1.2190625 4.45492188 -1.203125 3.43359375 C-1 1 -1 1 0 0 Z " fill="#1C1C1C" transform="translate(209,272)"/>
<path d="M0 0 C0.99 0.33 1.98 0.66 3 1 C1.92598892 3.91517292 1.22189824 5.77810176 -1 8 C-1.99 8.33 -2.98 8.66 -4 9 C-3.46930939 5.17902761 -2.50298434 2.93828597 0 0 Z " fill="#343434" transform="translate(238,111)"/>
<path d="M0 0 C0.99 0.33 1.98 0.66 3 1 C2.34 2.32 1.68 3.64 1 5 C0.34 5 -0.32 5 -1 5 C-1.33 5.99 -1.66 6.98 -2 8 C-2.99 7.67 -3.98 7.34 -5 7 C-3.75023244 3.34683329 -3.32901247 2.21934164 0 0 Z " fill="#303030" transform="translate(110,88)"/>
<path d="M0 0 C0.33 0 0.66 0 1 0 C1.2493357 1.60115576 1.47378648 3.20620159 1.6875 4.8125 C1.87892578 6.15248047 1.87892578 6.15248047 2.07421875 7.51953125 C2 10 2 10 0.51953125 11.82421875 C-0.23263672 12.40623047 -0.23263672 12.40623047 -1 13 C-2.0070238 7.96488101 -1.97387813 4.76052962 0 0 Z " fill="#3B3B3B" transform="translate(199,263)"/>
<path d="M0 0 C1.32 0 2.64 0 4 0 C3.67 2.64 3.34 5.28 3 8 C2.01 8 1.02 8 0 8 C0 5.36 0 2.72 0 0 Z " fill="#373737" transform="translate(136,256)"/>
<path d="M0 0 C0.33 0 0.66 0 1 0 C1.36504603 1.58086048 1.71660506 3.16483907 2.0625 4.75 C2.25972656 5.63171875 2.45695313 6.5134375 2.66015625 7.421875 C2.99825872 9.98679028 2.81158635 11.57091639 2 14 C2 13.01 2 12.02 2 11 C1.34 11 0.68 11 0 11 C-0.309375 10.21625 -0.61875 9.4325 -0.9375 8.625 C-1.92875038 6.07669872 -1.92875038 6.07669872 -3 4 C-2.01 4 -1.02 4 0 4 C0 2.68 0 1.36 0 0 Z " fill="#F75255" transform="translate(209,208)"/>
<path d="M0 0 C3.9375 0.3125 3.9375 0.3125 5.9375 2.3125 C3.29291621 3.63479189 1.25988699 3.40927194 -1.6875 3.375 C-2.69039062 3.36597656 -3.69328125 3.35695312 -4.7265625 3.34765625 C-5.49742187 3.33605469 -6.26828125 3.32445312 -7.0625 3.3125 C-4.79975954 0.62416572 -3.5148412 -0.08540736 0 0 Z " fill="#1F1F1F" transform="translate(183.0625,167.6875)"/>
<path d="M0 0 C3.73584906 1.47169811 3.73584906 1.47169811 5 4 C4.34 4 3.68 4 3 4 C2.67 4.99 2.34 5.98 2 7 C0 5.6875 0 5.6875 -2 4 C-2 3.01 -2 2.02 -2 1 C-1.34 0.67 -0.68 0.34 0 0 Z " fill="#F9F9F9" transform="translate(198,115)"/>
<path d="M0 0 C2.97 0.99 5.94 1.98 9 3 C9 3.66 9 4.32 9 5 C6.36 5 3.72 5 1 5 C0.67 3.35 0.34 1.7 0 0 Z " fill="#F93132" transform="translate(223,237)"/>
<path d="M0 0 C0.33 0 0.66 0 1 0 C1 6.6 1 13.2 1 20 C-0.73783825 17.39324263 -1.50215905 15.98704569 -2 13 C-1.67 12.67 -1.34 12.34 -1 12 C-0.76572222 9.98405418 -0.58663876 7.961526 -0.4375 5.9375 C-0.35371094 4.83277344 -0.26992187 3.72804687 -0.18359375 2.58984375 C-0.12300781 1.73519531 -0.06242187 0.88054687 0 0 Z " fill="#FBECED" transform="translate(117,209)"/>
<path d="M0 0 C1.66611905 -0.042721 3.33382885 -0.04063832 5 0 C6 1 6 1 6.0625 4.0625 C6.041875 5.031875 6.02125 6.00125 6 7 C5.01 7 4.02 7 3 7 C2.87625 6.030625 2.7525 5.06125 2.625 4.0625 C2.41875 3.051875 2.2125 2.04125 2 1 C1.34 0.67 0.68 0.34 0 0 Z " fill="#F72628" transform="translate(203,205)"/>
<path d="M0 0 C7.625 1.75 7.625 1.75 11 4 C9.02 4.99 9.02 4.99 7 6 C1.125 2.25 1.125 2.25 0 0 Z " fill="#252525" transform="translate(163,155)"/>
<path d="M0 0 C1.99097846 2.98646769 2.94124926 5.59687262 4 9 C2.68 9.33 1.36 9.66 0 10 C-2.21538462 4.58461538 -2.21538462 4.58461538 -1.125 1.625 C-0.75375 1.08875 -0.3825 0.5525 0 0 Z " fill="#373737" transform="translate(150,144)"/>
<path d="M0 0 C1.98 0.66 3.96 1.32 6 2 C5.34 3.32 4.68 4.64 4 6 C1.69 5.01 -0.62 4.02 -3 3 C-2.01 2.01 -1.02 1.02 0 0 Z " fill="#343434" transform="translate(187,114)"/>
<path d="M0 0 C2.9375 0.75 2.9375 0.75 6 2 C6.33 3.32 6.66 4.64 7 6 C4.03 5.01 1.06 4.02 -2 3 C-1.34 2.01 -0.68 1.02 0 0 Z " fill="#2A2A2A" transform="translate(190,106)"/>
<path d="M0 0 C0.99 0 1.98 0 3 0 C3.33 2.31 3.66 4.62 4 7 C2.35 7.33 0.7 7.66 -1 8 C-0.67 5.36 -0.34 2.72 0 0 Z " fill="#F64F4F" transform="translate(196,234)"/>
<path d="M0 0 C0.66 0 1.32 0 2 0 C2 1.65 2 3.3 2 5 C-0.64 5 -3.28 5 -6 5 C-6 4.01 -6 3.02 -6 2 C-4.35 2 -2.7 2 -1 2 C-0.67 1.34 -0.34 0.68 0 0 Z " fill="#FBD7D6" transform="translate(207,226)"/>
<path d="M0 0 C0.99 0 1.98 0 3 0 C3.1953125 6.0546875 3.1953125 6.0546875 3 8 C2.34 8.66 1.68 9.32 1 10 C-0.60725635 6.78548731 -0.05748185 3.56387464 0 0 Z " fill="#F72E2D" transform="translate(200,216)"/>
<path d="M0 0 C2.475 0.99 2.475 0.99 5 2 C4.01 3.32 3.02 4.64 2 6 C-1.875 4.25 -1.875 4.25 -3 2 C-2.01 2 -1.02 2 0 2 C0 1.34 0 0.68 0 0 Z " fill="#FBEEEB" transform="translate(179,129)"/>
<path d="M0 0 C0.66 0.66 1.32 1.32 2 2 C1.7578125 5.0390625 1.7578125 5.0390625 1.125 8.625 C0.92132813 9.81351563 0.71765625 11.00203125 0.5078125 12.2265625 C0.34023437 13.14179688 0.17265625 14.05703125 0 15 C-0.33 15 -0.66 15 -1 15 C-1.33 10.38 -1.66 5.76 -2 1 C-1.34 0.67 -0.68 0.34 0 0 Z " fill="#434343" transform="translate(202,127)"/>
<path d="M0 0 C3.96 0 7.92 0 12 0 C11.67 0.66 11.34 1.32 11 2 C8.27734375 2.4140625 8.27734375 2.4140625 4.9375 2.625 C3.83277344 2.69976562 2.72804687 2.77453125 1.58984375 2.8515625 C0.73519531 2.90054688 -0.11945313 2.94953125 -1 3 C-0.67 2.01 -0.34 1.02 0 0 Z " fill="#1A1A1A" transform="translate(173,105)"/>
<path d="M0 0 C0.33 0 0.66 0 1 0 C1 1.98 1 3.96 1 6 C-3.95 5.67 -8.9 5.34 -14 5 C-14 4.67 -14 4.34 -14 4 C-10.37 4 -6.74 4 -3 4 C-2.67 3.01 -2.34 2.02 -2 1 C-1.67 1.66 -1.34 2.32 -1 3 C-0.67 2.01 -0.34 1.02 0 0 Z " fill="#3D3D3D" transform="translate(142,82)"/>
<path d="M0 0 C0.33 0 0.66 0 1 0 C1.33 2.97 1.66 5.94 2 9 C0.68 9 -0.64 9 -2 9 C-1.125 2.25 -1.125 2.25 0 0 Z " fill="#434343" transform="translate(202,280)"/>
<path d="M0 0 C0.66 0.33 1.32 0.66 2 1 C2.125 4.375 2.125 4.375 2 8 C1.34 8.66 0.68 9.32 0 10 C-1.49106457 7.01787087 -1.11941467 4.28390342 -1 1 C-0.67 0.67 -0.34 0.34 0 0 Z " fill="#282828" transform="translate(134,272)"/>
<path d="M0 0 C0.99 0 1.98 0 3 0 C3 3.63 3 7.26 3 11 C2.01 10.67 1.02 10.34 0 10 C0 6.7 0 3.4 0 0 Z " fill="#F6211B" transform="translate(233,224)"/>
<path d="M0 0 C-1.85714286 8.57142857 -1.85714286 8.57142857 -5 12 C-5.36666667 4.66666667 -5.36666667 4.66666667 -3.625 1.5 C-2 0 -2 0 0 0 Z " fill="#FBE6E7" transform="translate(241,205)"/>
<path d="M0 0 C-1.6875 1.5625 -1.6875 1.5625 -4 3 C-7.37036311 2.75925978 -8.58798021 2.41201979 -11 0 C-7.18243176 -1.37432457 -3.92744671 -0.67975039 0 0 Z " fill="#3F3F3F" transform="translate(196,167)"/>
<path d="M0 0 C1.98 0.99 1.98 0.99 4 2 C3.67 3.32 3.34 4.64 3 6 C2.67 6 2.34 6 2 6 C1.67 7.65 1.34 9.3 1 11 C0.67 11 0.34 11 0 11 C0 7.37 0 3.74 0 0 Z " fill="#4B4B4B" transform="translate(218,257)"/>
<path d="M0 0 C0.33 1.32 0.66 2.64 1 4 C2.65 4 4.3 4 6 4 C4.68 4.33 3.36 4.66 2 5 C2 5.99 2 6.98 2 8 C1.01 8 0.02 8 -1 8 C-1.33 6.68 -1.66 5.36 -2 4 C-1.34 4 -0.68 4 0 4 C0 2.68 0 1.36 0 0 Z " fill="#FBF0EE" transform="translate(116,238)"/>
<path d="M0 0 C2.34058637 2.12780579 3.70700306 4.11562221 5 7 C1.73045798 6.43628586 0.17424117 5.50037734 -2 3 C-2.33 3.99 -2.66 4.98 -3 6 C-3 4.68 -3 3.36 -3 2 C-2.01 1.34 -1.02 0.68 0 0 Z " fill="#FCE5E3" transform="translate(218,234)"/>
<path d="M0 0 C4.455 0.99 4.455 0.99 9 2 C8.67 3.32 8.34 4.64 8 6 C7.34 5.34 6.68 4.68 6 4 C4.01178687 3.60235737 2.01055661 3.26224651 0 3 C0 2.01 0 1.02 0 0 Z " fill="#F52B29" transform="translate(132,205)"/>
<path d="M0 0 C0.33 0.66 0.66 1.32 1 2 C1.66 2 2.32 2 3 2 C2.25 6.75 2.25 6.75 0 9 C-1.125 7.3125 -1.125 7.3125 -2 5 C-1.125 2.25 -1.125 2.25 0 0 Z " fill="#383838" transform="translate(208,147)"/>
<path d="M0 0 C-1.24976756 3.65316671 -1.67098753 4.78065836 -5 7 C-5.33 5.68 -5.66 4.36 -6 3 C-2.25 0 -2.25 0 0 0 Z " fill="#272727" transform="translate(157,117)"/>
<path d="M0 0 C2.56687367 3.8503105 1.83288724 5.58569763 1 10 C-1.29404844 6.55892734 -1.26293056 5.03160191 -1 1 C-0.67 0.67 -0.34 0.34 0 0 Z " fill="#1C1C1C" transform="translate(115,265)"/>
<path d="M0 0 C2.76223278 2.76223278 2.57856291 5.20706617 3 9 C2.01 9.33 1.02 9.66 0 10 C0 6.7 0 3.4 0 0 Z " fill="#FAE5E0" transform="translate(108,214)"/>
<path d="M0 0 C4 4.625 4 4.625 4 8 C1.5625 7.1875 1.5625 7.1875 -1 6 C-1.33 5.01 -1.66 4.02 -2 3 C-1.34 2.01 -0.68 1.02 0 0 Z " fill="#333333" transform="translate(237,156)"/>
<path d="M0 0 C0.33 0 0.66 0 1 0 C1 4.29 1 8.58 1 13 C0.01 13.495 0.01 13.495 -1 14 C-2.13732426 10.59598052 -1.83989957 8.22543336 -1.0625 4.75 C-0.86785156 3.85796875 -0.67320312 2.9659375 -0.47265625 2.046875 C-0.31667969 1.37140625 -0.16070312 0.6959375 0 0 Z " fill="#444444" transform="translate(158,134)"/>
<path d="M0 0 C0.33 0 0.66 0 1 0 C1.33 2.64 1.66 5.28 2 8 C0.68 8 -0.64 8 -2 8 C-1.125 2.25 -1.125 2.25 0 0 Z " fill="#474747" transform="translate(119,281)"/>
<path d="M0 0 C0.33 0 0.66 0 1 0 C1.33 2.31 1.66 4.62 2 7 C0.35 7 -1.3 7 -3 7 C-2.67 5.68 -2.34 4.36 -2 3 C-1.34 3 -0.68 3 0 3 C0 2.01 0 1.02 0 0 Z " fill="#FA504F" transform="translate(214,235)"/>
<path d="M0 0 C0.66 0.33 1.32 0.66 2 1 C2 3.31 2 5.62 2 8 C1.01 8 0.02 8 -1 8 C-1.125 2.25 -1.125 2.25 0 0 Z " fill="#F92D2C" transform="translate(174,214)"/>
<path d="M0 0 C2.31 0 4.62 0 7 0 C6.67 0.66 6.34 1.32 6 2 C5.01 2 4.02 2 3 2 C3 3.65 3 5.3 3 7 C1.5 5.75 1.5 5.75 0 4 C0 2.68 0 1.36 0 0 Z " fill="#F75B5A" transform="translate(202,204)"/>
<path d="M0 0 C1 2 1 2 1 5 C1.66 5.33 2.32 5.66 3 6 C2.625 7.9375 2.625 7.9375 2 10 C1.01 10.495 1.01 10.495 0 11 C-0.19406478 9.35492782 -0.38007935 7.70890406 -0.5625 6.0625 C-0.66691406 5.14597656 -0.77132812 4.22945312 -0.87890625 3.28515625 C-0.91886719 2.53105469 -0.95882812 1.77695313 -1 1 C-0.67 0.67 -0.34 0.34 0 0 Z " fill="#FBF8F4" transform="translate(210,202)"/>
<path d="M0 0 C0.33 0 0.66 0 1 0 C1.33 2.64 1.66 5.28 2 8 C0.68 8 -0.64 8 -2 8 C-1.47731534 5.23723823 -0.89130413 2.6739124 0 0 Z " fill="#343434" transform="translate(157,280)"/>
<path d="M0 0 C0.33 0.66 0.66 1.32 1 2 C1.66 2 2.32 2 3 2 C2.67 4.31 2.34 6.62 2 9 C0.4375 7.3125 0.4375 7.3125 -1 5 C-0.6875 2.25 -0.6875 2.25 0 0 Z " fill="#1B1B1B" transform="translate(154,276)"/>
<path d="M0 0 C-5.625 3 -5.625 3 -9 3 C-9.33 2.01 -9.66 1.02 -10 0 C-2.25 -1.125 -2.25 -1.125 0 0 Z " fill="#FCF4EF" transform="translate(141,242)"/>
<path d="M0 0 C0.33 0 0.66 0 1 0 C1.33 2.64 1.66 5.28 2 8 C0.68 8.33 -0.64 8.66 -2 9 C-2.6875 7.3125 -2.6875 7.3125 -3 5 C-1.625 2.25 -1.625 2.25 0 0 Z " fill="#FCE6E6" transform="translate(175,232)"/>
<path d="M0 0 C1.98 0 3.96 0 6 0 C6 0.99 6 1.98 6 3 C3.69 3 1.38 3 -1 3 C-0.67 2.01 -0.34 1.02 0 0 Z " fill="#F52826" transform="translate(248,221)"/>
<path d="M0 0 C1.23556641 0.01740234 1.23556641 0.01740234 2.49609375 0.03515625 C3.32238281 0.04417969 4.14867188 0.05320312 5 0.0625 C5.63808594 0.07410156 6.27617188 0.08570312 6.93359375 0.09765625 C4.33877246 2.69247754 2.5347575 2.79755927 -1.06640625 3.09765625 C-1.72640625 2.43765625 -2.38640625 1.77765625 -3.06640625 1.09765625 C-2.06640625 0.09765625 -2.06640625 0.09765625 0 0 Z " fill="#1E1E1E" transform="translate(114.06640625,86.90234375)"/>
<path d="M0 0 C1.98 0.99 1.98 0.99 4 2 C4 3.32 4 4.64 4 6 C2.68 5.67 1.36 5.34 0 5 C0 3.35 0 1.7 0 0 Z " fill="#313131" transform="translate(153,272)"/>
<path d="M0 0 C2.1519437 3.22791555 2.20086443 4.28400809 2 8 C1.01 8 0.02 8 -1 8 C-0.67 5.36 -0.34 2.72 0 0 Z " fill="#F8282B" transform="translate(184,212)"/>
<path d="M0 0 C0.66 0 1.32 0 2 0 C2 1.98 2 3.96 2 6 C1.01 6 0.02 6 -1 6 C-1.042721 4.33388095 -1.04063832 2.66617115 -1 1 C-0.67 0.67 -0.34 0.34 0 0 Z " fill="#282828" transform="translate(143,282)"/>
<path d="M0 0 C-0.33 1.32 -0.66 2.64 -1 4 C-3.97 3.505 -3.97 3.505 -7 3 C-3.375 0 -3.375 0 0 0 Z " fill="#373737" transform="translate(249,106)"/>
<path d="M0 0 C0.99 0 1.98 0 3 0 C2.67 2.64 2.34 5.28 2 8 C0 6 0 6 -0.125 2.875 C-0.08375 1.92625 -0.0425 0.9775 0 0 Z " fill="#202020" transform="translate(104,95)"/>
</svg>
